<ttFont>
<head>
    <!-- Most of this table will be recalculated by the compiler -->
    <tableVersion value="1.0"/>
    <fontRevision value="5.0"/>
    <checkSumAdjustment value="0x9cb843ec"/>
    <magicNumber value="0x5f0f3cf5"/>
    <flags value="00000000 00001011"/>
    <unitsPerEm value="2048"/>
    <created value="Sun May 15 08:57:39 2005"/>
    <modified value="Fri Apr 15 06:26:32 2011"/>
    <xMin value="0"/>
    <yMin value="-1041"/>
    <xMax value="6524"/>
    <yMax value="2296"/>
    <macStyle value="00000000 00000000"/>
    <lowestRecPPEM value="8"/>
    <fontDirectionHint value="2"/>
    <indexToLocFormat value="1"/>
    <glyphDataFormat value="0"/>
  </head>
    <TTGlyph name=".notdef" xMin="142" yMin="226" xMax="842" yMax="1588">
      <contour>
        <pt x="142" y="226" on="1"/>
        <pt x="142" y="1588" on="1"/>
        <pt x="842" y="1588" on="1"/>
        <pt x="842" y="226" on="1"/>
      </contour>
      <contour>
        <pt x="284" y="368" on="1"/>
        <pt x="700" y="368" on="1"/>
        <pt x="700" y="1447" on="1"/>
        <pt x="284" y="1447" on="1"/>
      </contour>
    </TTGlyph>
    <TTGlyph name=".null" xMin="142" yMin="226" xMax="842" yMax="1588">
      <contour>
        <pt x="142" y="226" on="1"/>
        <pt x="142" y="1588" on="1"/>
        <pt x="842" y="1588" on="1"/>
        <pt x="842" y="226" on="1"/>
      </contour>
      <contour>
        <pt x="284" y="368" on="1"/>
        <pt x="700" y="368" on="1"/>
        <pt x="700" y="1447" on="1"/>
        <pt x="284" y="1447" on="1"/>
      </contour>
    </TTGlyph>
    <TTGlyph name="afii57381" xMin="142" yMin="226" xMax="842" yMax="1588">
      <contour>
        <pt x="142" y="226" on="1"/>
        <pt x="142" y="1588" on="1"/>
        <pt x="842" y="1588" on="1"/>
        <pt x="842" y="226" on="1"/>
      </contour>
      <contour>
        <pt x="284" y="368" on="1"/>
        <pt x="700" y="368" on="1"/>
        <pt x="700" y="1447" on="1"/>
        <pt x="284" y="1447" on="1"/>
      </contour>
    </TTGlyph>
    <TTGlyph name="afii57388" xMin="142" yMin="226" xMax="842" yMax="1588">
      <contour>
        <pt x="142" y="226" on="1"/>
        <pt x="142" y="1588" on="1"/>
        <pt x="842" y="1588" on="1"/>
        <pt x="842" y="226" on="1"/>
      </contour>
      <contour>
        <pt x="284" y="368" on="1"/>
        <pt x="700" y="368" on="1"/>
        <pt x="700" y="1447" on="1"/>
        <pt x="284" y="1447" on="1"/>
      </contour>
    </TTGlyph>
    <TTGlyph name="afii57396" xMin="142" yMin="226" xMax="842" yMax="1588">
      <contour>
        <pt x="142" y="226" on="1"/>
        <pt x="142" y="1588" on="1"/>
        <pt x="842" y="1588" on="1"/>
        <pt x="842" y="226" on="1"/>
      </contour>
      <contour>
        <pt x="284" y="368" on="1"/>
        <pt x="700" y="368" on="1"/>
        <pt x="700" y="1447" on="1"/>
        <pt x="284" y="1447" on="1"/>
      </contour>
    </TTGlyph>
    <TTGlyph name="afii57397" xMin="142" yMin="226" xMax="842" yMax="1588">
      <contour>
        <pt x="142" y="226" on="1"/>
        <pt x="142" y="1588" on="1"/>
        <pt x="842" y="1588" on="1"/>
        <pt x="842" y="226" on="1"/>
      </contour>
      <contour>
        <pt x="284" y="368" on="1"/>
        <pt x="700" y="368" on="1"/>
        <pt x="700" y="1447" on="1"/>
        <pt x="284" y="1447" on="1"/>
      </contour>
    </TTGlyph>
    <TTGlyph name="afii57398" xMin="142" yMin="226" xMax="842" yMax="1588">
      <contour>
        <pt x="142" y="226" on="1"/>
        <pt x="142" y="1588" on="1"/>
        <pt x="842" y="1588" on="1"/>
        <pt x="842" y="226" on="1"/>
      </contour>
      <contour>
        <pt x="284" y="368" on="1"/>
        <pt x="700" y="368" on="1"/>
        <pt x="700" y="1447" on="1"/>
        <pt x="284" y="1447" on="1"/>
      </contour>
    </TTGlyph>
    <TTGlyph name="afii57403" xMin="142" yMin="226" xMax="842" yMax="1588">
      <contour>
        <pt x="142" y="226" on="1"/>
        <pt x="142" y="1588" on="1"/>
        <pt x="842" y="1588" on="1"/>
        <pt x="842" y="226" on="1"/>
      </contour>
      <contour>
        <pt x="284" y="368" on="1"/>
        <pt x="700" y="368" on="1"/>
        <pt x="700" y="1447" on="1"/>
        <pt x="284" y="1447" on="1"/>
      </contour>
    </TTGlyph>
    <TTGlyph name="afii57407" xMin="142" yMin="226" xMax="842" yMax="1588">
      <contour>
        <pt x="142" y="226" on="1"/>
        <pt x="142" y="1588" on="1"/>
        <pt x="842" y="1588" on="1"/>
        <pt x="842" y="226" on="1"/>
      </contour>
      <contour>
        <pt x="284" y="368" on="1"/>
        <pt x="700" y="368" on="1"/>
        <pt x="700" y="1447" on="1"/>
        <pt x="284" y="1447" on="1"/>
      </contour>
    </TTGlyph>
    <TTGlyph name="afii57440" xMin="142" yMin="226" xMax="842" yMax="1588">
      <contour>
        <pt x="142" y="226" on="1"/>
        <pt x="142" y="1588" on="1"/>
        <pt x="842" y="1588" on="1"/>
        <pt x="842" y="226" on="1"/>
      </contour>
      <contour>
        <pt x="284" y="368" on="1"/>
        <pt x="700" y="368" on="1"/>
        <pt x="700" y="1447" on="1"/>
        <pt x="284" y="1447" on="1"/>
      </contour>
    </TTGlyph>
    <TTGlyph name="afii57451" xMin="142" yMin="226" xMax="842" yMax="1588">
      <contour>
        <pt x="142" y="226" on="1"/>
        <pt x="142" y="1588" on="1"/>
        <pt x="842" y="1588" on="1"/>
        <pt x="842" y="226" on="1"/>
      </contour>
      <contour>
        <pt x="284" y="368" on="1"/>
        <pt x="700" y="368" on="1"/>
        <pt x="700" y="1447" on="1"/>
        <pt x="284" y="1447" on="1"/>
      </contour>
    </TTGlyph>
    <TTGlyph name="afii57452" xMin="142" yMin="226" xMax="842" yMax="1588">
      <contour>
        <pt x="142" y="226" on="1"/>
        <pt x="142" y="1588" on="1"/>
        <pt x="842" y="1588" on="1"/>
        <pt x="842" y="226" on="1"/>
      </contour>
      <contour>
        <pt x="284" y="368" on="1"/>
        <pt x="700" y="368" on="1"/>
        <pt x="700" y="1447" on="1"/>
        <pt x="284" y="1447" on="1"/>
      </contour>
    </TTGlyph>
    <TTGlyph name="afii57453" xMin="142" yMin="226" xMax="842" yMax="1588">
      <contour>
        <pt x="142" y="226" on="1"/>
        <pt x="142" y="1588" on="1"/>
        <pt x="842" y="1588" on="1"/>
        <pt x="842" y="226" on="1"/>
      </contour>
      <contour>
        <pt x="284" y="368" on="1"/>
        <pt x="700" y="368" on="1"/>
        <pt x="700" y="1447" on="1"/>
        <pt x="284" y="1447" on="1"/>
      </contour>
    </TTGlyph>
    <TTGlyph name="afii57454" xMin="142" yMin="226" xMax="842" yMax="1588">
      <contour>
        <pt x="142" y="226" on="1"/>
        <pt x="142" y="1588" on="1"/>
        <pt x="842" y="1588" on="1"/>
        <pt x="842" y="226" on="1"/>
      </contour>
      <contour>
        <pt x="284" y="368" on="1"/>
        <pt x="700" y="368" on="1"/>
        <pt x="700" y="1447" on="1"/>
        <pt x="284" y="1447" on="1"/>
      </contour>
    </TTGlyph>
    <TTGlyph name="afii57455" xMin="142" yMin="226" xMax="842" yMax="1588">
      <contour>
        <pt x="142" y="226" on="1"/>
        <pt x="142" y="1588" on="1"/>
        <pt x="842" y="1588" on="1"/>
        <pt x="842" y="226" on="1"/>
      </contour>
      <contour>
        <pt x="284" y="368" on="1"/>
        <pt x="700" y="368" on="1"/>
        <pt x="700" y="1447" on="1"/>
        <pt x="284" y="1447" on="1"/>
      </contour>
    </TTGlyph>
    <TTGlyph name="afii57456" xMin="142" yMin="226" xMax="842" yMax="1588">
      <contour>
        <pt x="142" y="226" on="1"/>
        <pt x="142" y="1588" on="1"/>
        <pt x="842" y="1588" on="1"/>
        <pt x="842" y="226" on="1"/>
      </contour>
      <contour>
        <pt x="284" y="368" on="1"/>
        <pt x="700" y="368" on="1"/>
        <pt x="700" y="1447" on="1"/>
        <pt x="284" y="1447" on="1"/>
      </contour>
    </TTGlyph>
    <TTGlyph name="afii57457" xMin="142" yMin="226" xMax="842" yMax="1588">
      <contour>
        <pt x="142" y="226" on="1"/>
        <pt x="142" y="1588" on="1"/>
        <pt x="842" y="1588" on="1"/>
        <pt x="842" y="226" on="1"/>
      </contour>
      <contour>
        <pt x="284" y="368" on="1"/>
        <pt x="700" y="368" on="1"/>
        <pt x="700" y="1447" on="1"/>
        <pt x="284" y="1447" on="1"/>
      </contour>
    </TTGlyph>
    <TTGlyph name="afii57458" xMin="142" yMin="226" xMax="842" yMax="1588">
      <contour>
        <pt x="142" y="226" on="1"/>
        <pt x="142" y="1588" on="1"/>
        <pt x="842" y="1588" on="1"/>
        <pt x="842" y="226" on="1"/>
      </contour>
      <contour>
        <pt x="284" y="368" on="1"/>
        <pt x="700" y="368" on="1"/>
        <pt x="700" y="1447" on="1"/>
        <pt x="284" y="1447" on="1"/>
      </contour>
    </TTGlyph>
    <TTGlyph name="afii57505" xMin="142" yMin="226" xMax="842" yMax="1588">
      <contour>
        <pt x="142" y="226" on="1"/>
        <pt x="142" y="1588" on="1"/>
        <pt x="842" y="1588" on="1"/>
        <pt x="842" y="226" on="1"/>
      </contour>
      <contour>
        <pt x="284" y="368" on="1"/>
        <pt x="700" y="368" on="1"/>
        <pt x="700" y="1447" on="1"/>
        <pt x="284" y="1447" on="1"/>
      </contour>
    </TTGlyph>
    <TTGlyph name="afii57506" xMin="142" yMin="226" xMax="842" yMax="1588">
      <contour>
        <pt x="142" y="226" on="1"/>
        <pt x="142" y="1588" on="1"/>
        <pt x="842" y="1588" on="1"/>
        <pt x="842" y="226" on="1"/>
      </contour>
      <contour>
        <pt x="284" y="368" on="1"/>
        <pt x="700" y="368" on="1"/>
        <pt x="700" y="1447" on="1"/>
        <pt x="284" y="1447" on="1"/>
      </contour>
    </TTGlyph>
    <TTGlyph name="afii57507" xMin="142" yMin="226" xMax="842" yMax="1588">
      <contour>
        <pt x="142" y="226" on="1"/>
        <pt x="142" y="1588" on="1"/>
        <pt x="842" y="1588" on="1"/>
        <pt x="842" y="226" on="1"/>
      </contour>
      <contour>
        <pt x="284" y="368" on="1"/>
        <pt x="700" y="368" on="1"/>
        <pt x="700" y="1447" on="1"/>
        <pt x="284" y="1447" on="1"/>
      </contour>
    </TTGlyph>
    <TTGlyph name="afii57508" xMin="142" yMin="226" xMax="842" yMax="1588">
      <contour>
        <pt x="142" y="226" on="1"/>
        <pt x="142" y="1588" on="1"/>
        <pt x="842" y="1588" on="1"/>
        <pt x="842" y="226" on="1"/>
      </contour>
      <contour>
        <pt x="284" y="368" on="1"/>
        <pt x="700" y="368" on="1"/>
        <pt x="700" y="1447" on="1"/>
        <pt x="284" y="1447" on="1"/>
      </contour>
    </TTGlyph>
    <TTGlyph name="afii57509" xMin="142" yMin="226" xMax="842" yMax="1588">
      <contour>
        <pt x="142" y="226" on="1"/>
        <pt x="142" y="1588" on="1"/>
        <pt x="842" y="1588" on="1"/>
        <pt x="842" y="226" on="1"/>
      </contour>
      <contour>
        <pt x="284" y="368" on="1"/>
        <pt x="700" y="368" on="1"/>
        <pt x="700" y="1447" on="1"/>
        <pt x="284" y="1447" on="1"/>
      </contour>
    </TTGlyph>
    <TTGlyph name="afii57511" xMin="142" yMin="226" xMax="842" yMax="1588">
      <contour>
        <pt x="142" y="226" on="1"/>
        <pt x="142" y="1588" on="1"/>
        <pt x="842" y="1588" on="1"/>
        <pt x="842" y="226" on="1"/>
      </contour>
      <contour>
        <pt x="284" y="368" on="1"/>
        <pt x="700" y="368" on="1"/>
        <pt x="700" y="1447" on="1"/>
        <pt x="284" y="1447" on="1"/>
      </contour>
    </TTGlyph>
    <TTGlyph name="afii57512" xMin="142" yMin="226" xMax="842" yMax="1588">
      <contour>
        <pt x="142" y="226" on="1"/>
        <pt x="142" y="1588" on="1"/>
        <pt x="842" y="1588" on="1"/>
        <pt x="842" y="226" on="1"/>
      </contour>
      <contour>
        <pt x="284" y="368" on="1"/>
        <pt x="700" y="368" on="1"/>
        <pt x="700" y="1447" on="1"/>
        <pt x="284" y="1447" on="1"/>
      </contour>
    </TTGlyph>
    <TTGlyph name="afii57513" xMin="142" yMin="226" xMax="842" yMax="1588">
      <contour>
        <pt x="142" y="226" on="1"/>
        <pt x="142" y="1588" on="1"/>
        <pt x="842" y="1588" on="1"/>
        <pt x="842" y="226" on="1"/>
      </contour>
      <contour>
        <pt x="284" y="368" on="1"/>
        <pt x="700" y="368" on="1"/>
        <pt x="700" y="1447" on="1"/>
        <pt x="284" y="1447" on="1"/>
      </contour>
    </TTGlyph>
    <TTGlyph name="afii57514" xMin="142" yMin="226" xMax="842" yMax="1588">
      <contour>
        <pt x="142" y="226" on="1"/>
        <pt x="142" y="1588" on="1"/>
        <pt x="842" y="1588" on="1"/>
        <pt x="842" y="226" on="1"/>
      </contour>
      <contour>
        <pt x="284" y="368" on="1"/>
        <pt x="700" y="368" on="1"/>
        <pt x="700" y="1447" on="1"/>
        <pt x="284" y="1447" on="1"/>
      </contour>
    </TTGlyph>
    <TTGlyph name="afii57519" xMin="142" yMin="226" xMax="842" yMax="1588">
      <contour>
        <pt x="142" y="226" on="1"/>
        <pt x="142" y="1588" on="1"/>
        <pt x="842" y="1588" on="1"/>
        <pt x="842" y="226" on="1"/>
      </contour>
      <contour>
        <pt x="284" y="368" on="1"/>
        <pt x="700" y="368" on="1"/>
        <pt x="700" y="1447" on="1"/>
        <pt x="284" y="1447" on="1"/>
      </contour>
    </TTGlyph>
    <TTGlyph name="afii57534" xMin="142" yMin="226" xMax="842" yMax="1588">
      <contour>
        <pt x="142" y="226" on="1"/>
        <pt x="142" y="1588" on="1"/>
        <pt x="842" y="1588" on="1"/>
        <pt x="842" y="226" on="1"/>
      </contour>
      <contour>
        <pt x="284" y="368" on="1"/>
        <pt x="700" y="368" on="1"/>
        <pt x="700" y="1447" on="1"/>
        <pt x="284" y="1447" on="1"/>
      </contour>
    </TTGlyph>
    <TTGlyph name="afii63167" xMin="142" yMin="226" xMax="842" yMax="1588">
      <contour>
        <pt x="142" y="226" on="1"/>
        <pt x="142" y="1588" on="1"/>
        <pt x="842" y="1588" on="1"/>
        <pt x="842" y="226" on="1"/>
      </contour>
      <contour>
        <pt x="284" y="368" on="1"/>
        <pt x="700" y="368" on="1"/>
        <pt x="700" y="1447" on="1"/>
        <pt x="284" y="1447" on="1"/>
      </contour>
    </TTGlyph>
    <TTGlyph name="alefmaksurainitial" xMin="142" yMin="226" xMax="842" yMax="1588">
      <contour>
        <pt x="142" y="226" on="1"/>
        <pt x="142" y="1588" on="1"/>
        <pt x="842" y="1588" on="1"/>
        <pt x="842" y="226" on="1"/>
      </contour>
      <contour>
        <pt x="284" y="368" on="1"/>
        <pt x="700" y="368" on="1"/>
        <pt x="700" y="1447" on="1"/>
        <pt x="284" y="1447" on="1"/>
      </contour>
    </TTGlyph>
    <TTGlyph name="alefwaslafinalarabic" xMin="142" yMin="226" xMax="842" yMax="1588">
      <contour>
        <pt x="142" y="226" on="1"/>
        <pt x="142" y="1588" on="1"/>
        <pt x="842" y="1588" on="1"/>
        <pt x="842" y="226" on="1"/>
      </contour>
      <contour>
        <pt x="284" y="368" on="1"/>
        <pt x="700" y="368" on="1"/>
        <pt x="700" y="1447" on="1"/>
        <pt x="284" y="1447" on="1"/>
      </contour>
    </TTGlyph>
    <TTGlyph name="ampersand" xMin="142" yMin="226" xMax="842" yMax="1588">
      <contour>
        <pt x="142" y="226" on="1"/>
        <pt x="142" y="1588" on="1"/>
        <pt x="842" y="1588" on="1"/>
        <pt x="842" y="226" on="1"/>
      </contour>
      <contour>
        <pt x="284" y="368" on="1"/>
        <pt x="700" y="368" on="1"/>
        <pt x="700" y="1447" on="1"/>
        <pt x="284" y="1447" on="1"/>
      </contour>
    </TTGlyph>
    <TTGlyph name="asterisk" xMin="142" yMin="226" xMax="842" yMax="1588">
      <contour>
        <pt x="142" y="226" on="1"/>
        <pt x="142" y="1588" on="1"/>
        <pt x="842" y="1588" on="1"/>
        <pt x="842" y="226" on="1"/>
      </contour>
      <contour>
        <pt x="284" y="368" on="1"/>
        <pt x="700" y="368" on="1"/>
        <pt x="700" y="1447" on="1"/>
        <pt x="284" y="1447" on="1"/>
      </contour>
    </TTGlyph>
    <TTGlyph name="behmeemisolatedarabic" xMin="142" yMin="226" xMax="842" yMax="1588">
      <contour>
        <pt x="142" y="226" on="1"/>
        <pt x="142" y="1588" on="1"/>
        <pt x="842" y="1588" on="1"/>
        <pt x="842" y="226" on="1"/>
      </contour>
      <contour>
        <pt x="284" y="368" on="1"/>
        <pt x="700" y="368" on="1"/>
        <pt x="700" y="1447" on="1"/>
        <pt x="284" y="1447" on="1"/>
      </contour>
    </TTGlyph>
    <TTGlyph name="behnoonfinalarabic" xMin="142" yMin="226" xMax="842" yMax="1588">
      <contour>
        <pt x="142" y="226" on="1"/>
        <pt x="142" y="1588" on="1"/>
        <pt x="842" y="1588" on="1"/>
        <pt x="842" y="226" on="1"/>
      </contour>
      <contour>
        <pt x="284" y="368" on="1"/>
        <pt x="700" y="368" on="1"/>
        <pt x="700" y="1447" on="1"/>
        <pt x="284" y="1447" on="1"/>
      </contour>
    </TTGlyph>
    <TTGlyph name="colon" xMin="142" yMin="226" xMax="842" yMax="1588">
      <contour>
        <pt x="142" y="226" on="1"/>
        <pt x="142" y="1588" on="1"/>
        <pt x="842" y="1588" on="1"/>
        <pt x="842" y="226" on="1"/>
      </contour>
      <contour>
        <pt x="284" y="368" on="1"/>
        <pt x="700" y="368" on="1"/>
        <pt x="700" y="1447" on="1"/>
        <pt x="284" y="1447" on="1"/>
      </contour>
    </TTGlyph>
    <TTGlyph name="dagger" xMin="142" yMin="226" xMax="842" yMax="1588">
      <contour>
        <pt x="142" y="226" on="1"/>
        <pt x="142" y="1588" on="1"/>
        <pt x="842" y="1588" on="1"/>
        <pt x="842" y="226" on="1"/>
      </contour>
      <contour>
        <pt x="284" y="368" on="1"/>
        <pt x="700" y="368" on="1"/>
        <pt x="700" y="1447" on="1"/>
        <pt x="284" y="1447" on="1"/>
      </contour>
    </TTGlyph>
    <TTGlyph name="dalringfinal" xMin="142" yMin="226" xMax="842" yMax="1588">
      <contour>
        <pt x="142" y="226" on="1"/>
        <pt x="142" y="1588" on="1"/>
        <pt x="842" y="1588" on="1"/>
        <pt x="842" y="226" on="1"/>
      </contour>
      <contour>
        <pt x="284" y="368" on="1"/>
        <pt x="700" y="368" on="1"/>
        <pt x="700" y="1447" on="1"/>
        <pt x="284" y="1447" on="1"/>
      </contour>
    </TTGlyph>
    <TTGlyph name="ddalfinalarabic" xMin="142" yMin="226" xMax="842" yMax="1588">
      <contour>
        <pt x="142" y="226" on="1"/>
        <pt x="142" y="1588" on="1"/>
        <pt x="842" y="1588" on="1"/>
        <pt x="842" y="226" on="1"/>
      </contour>
      <contour>
        <pt x="284" y="368" on="1"/>
        <pt x="700" y="368" on="1"/>
        <pt x="700" y="1447" on="1"/>
        <pt x="284" y="1447" on="1"/>
      </contour>
    </TTGlyph>
    <TTGlyph name="divide" xMin="142" yMin="226" xMax="842" yMax="1588">
      <contour>
        <pt x="142" y="226" on="1"/>
        <pt x="142" y="1588" on="1"/>
        <pt x="842" y="1588" on="1"/>
        <pt x="842" y="226" on="1"/>
      </contour>
      <contour>
        <pt x="284" y="368" on="1"/>
        <pt x="700" y="368" on="1"/>
        <pt x="700" y="1447" on="1"/>
        <pt x="284" y="1447" on="1"/>
      </contour>
    </TTGlyph>
    <TTGlyph name="dollar" xMin="142" yMin="226" xMax="842" yMax="1588">
      <contour>
        <pt x="142" y="226" on="1"/>
        <pt x="142" y="1588" on="1"/>
        <pt x="842" y="1588" on="1"/>
        <pt x="842" y="226" on="1"/>
      </contour>
      <contour>
        <pt x="284" y="368" on="1"/>
        <pt x="700" y="368" on="1"/>
        <pt x="700" y="1447" on="1"/>
        <pt x="284" y="1447" on="1"/>
      </contour>
    </TTGlyph>
    <TTGlyph name="dotlessyehfinalarabic" xMin="142" yMin="226" xMax="842" yMax="1588">
      <contour>
        <pt x="142" y="226" on="1"/>
        <pt x="142" y="1588" on="1"/>
        <pt x="842" y="1588" on="1"/>
        <pt x="842" y="226" on="1"/>
      </contour>
      <contour>
        <pt x="284" y="368" on="1"/>
        <pt x="700" y="368" on="1"/>
        <pt x="700" y="1447" on="1"/>
        <pt x="284" y="1447" on="1"/>
      </contour>
    </TTGlyph>
    <TTGlyph name="dotlessyehinitialarabic" xMin="142" yMin="226" xMax="842" yMax="1588">
      <contour>
        <pt x="142" y="226" on="1"/>
        <pt x="142" y="1588" on="1"/>
        <pt x="842" y="1588" on="1"/>
        <pt x="842" y="226" on="1"/>
      </contour>
      <contour>
        <pt x="284" y="368" on="1"/>
        <pt x="700" y="368" on="1"/>
        <pt x="700" y="1447" on="1"/>
        <pt x="284" y="1447" on="1"/>
      </contour>
    </TTGlyph>
    <TTGlyph name="dotlessyehmedialarabic" xMin="142" yMin="226" xMax="842" yMax="1588">
      <contour>
        <pt x="142" y="226" on="1"/>
        <pt x="142" y="1588" on="1"/>
        <pt x="842" y="1588" on="1"/>
        <pt x="842" y="226" on="1"/>
      </contour>
      <contour>
        <pt x="284" y="368" on="1"/>
        <pt x="700" y="368" on="1"/>
        <pt x="700" y="1447" on="1"/>
        <pt x="284" y="1447" on="1"/>
      </contour>
    </TTGlyph>
    <TTGlyph name="elefmaksuramedial" xMin="142" yMin="226" xMax="842" yMax="1588">
      <contour>
        <pt x="142" y="226" on="1"/>
        <pt x="142" y="1588" on="1"/>
        <pt x="842" y="1588" on="1"/>
        <pt x="842" y="226" on="1"/>
      </contour>
      <contour>
        <pt x="284" y="368" on="1"/>
        <pt x="700" y="368" on="1"/>
        <pt x="700" y="1447" on="1"/>
        <pt x="284" y="1447" on="1"/>
      </contour>
    </TTGlyph>
    <TTGlyph name="ellipsis" xMin="142" yMin="226" xMax="842" yMax="1588">
      <contour>
        <pt x="142" y="226" on="1"/>
        <pt x="142" y="1588" on="1"/>
        <pt x="842" y="1588" on="1"/>
        <pt x="842" y="226" on="1"/>
      </contour>
      <contour>
        <pt x="284" y="368" on="1"/>
        <pt x="700" y="368" on="1"/>
        <pt x="700" y="1447" on="1"/>
        <pt x="284" y="1447" on="1"/>
      </contour>
    </TTGlyph>
    <TTGlyph name="emdash" xMin="226" yMin="-937" xMax="2274" yMax="1488">
      <contour>
        <pt x="2146" y="1397" on="1"/>
        <pt x="2146" y="1346" on="0"/>
        <pt x="2056" y="1267" on="1"/>
        <pt x="2006" y="1228" on="0"/>
        <pt x="1957" y="1189" on="1"/>
        <pt x="1841" y="1068" on="0"/>
        <pt x="1816" y="1068" on="1"/>
        <pt x="1812" y="1068" on="0"/>
        <pt x="1809" y="1069" on="1"/>
        <pt x="1800" y="1082" on="0"/>
        <pt x="1800" y="1104" on="1"/>
        <pt x="1800" y="1167" on="0"/>
        <pt x="2119" y="1427" on="1"/>
        <pt x="2146" y="1427" on="0"/>
      </contour>
      <contour>
        <pt x="1761" y="1430" on="1"/>
        <pt x="1661" y="1315" on="0"/>
        <pt x="1397" y="1110" on="1"/>
        <pt x="1391" y="1114" on="0"/>
        <pt x="1378" y="1125" on="0"/>
        <pt x="1378" y="1140" on="1"/>
        <pt x="1378" y="1185" on="0"/>
        <pt x="1542" y="1330" on="1"/>
        <pt x="1634" y="1409" on="0"/>
        <pt x="1727" y="1488" on="1"/>
        <pt x="1761" y="1488" on="1"/>
      </contour>
      <contour>
        <pt x="1438" y="786" on="1"/>
        <pt x="1438" y="740" on="0"/>
        <pt x="1354" y="671" on="1"/>
        <pt x="1277" y="608" on="0"/>
        <pt x="1250" y="608" on="1"/>
        <pt x="1239" y="608" on="0"/>
        <pt x="1224" y="619" on="0"/>
        <pt x="1221" y="619" on="1"/>
        <pt x="1221" y="667" on="1"/>
        <pt x="1247" y="686" on="0"/>
        <pt x="1303" y="741" on="1"/>
        <pt x="1298" y="751" on="0"/>
        <pt x="1277" y="751" on="1"/>
        <pt x="1254" y="751" on="0"/>
        <pt x="1238" y="736" on="1"/>
        <pt x="1216" y="714" on="0"/>
        <pt x="1194" y="690" on="1"/>
        <pt x="1187" y="695" on="0"/>
        <pt x="1175" y="705" on="0"/>
        <pt x="1175" y="721" on="1"/>
        <pt x="1175" y="734" on="0"/>
        <pt x="1240" y="843" on="0"/>
        <pt x="1253" y="850" on="1"/>
        <pt x="1281" y="864" on="0"/>
        <pt x="1311" y="864" on="1"/>
        <pt x="1320" y="864" on="0"/>
        <pt x="1367" y="846" on="1"/>
        <pt x="1422" y="826" on="0"/>
        <pt x="1438" y="821" on="1"/>
      </contour>
      <contour>
        <pt x="2274" y="342" on="1"/>
        <pt x="2274" y="226" on="0"/>
        <pt x="2137" y="113" on="1"/>
        <pt x="2036" y="29" on="0"/>
        <pt x="1963" y="7" on="1"/>
        <pt x="1920" y="-6" on="0"/>
        <pt x="1837" y="-6" on="1"/>
        <pt x="1711" y="-6" on="0"/>
        <pt x="1645" y="127" on="1"/>
        <pt x="1624" y="109" on="0"/>
        <pt x="1555" y="28" on="1"/>
        <pt x="1527" y="-6" on="0"/>
        <pt x="1469" y="-6" on="1"/>
        <pt x="1420" y="-6" on="0"/>
        <pt x="1403" y="13" on="1"/>
        <pt x="1389" y="30" on="0"/>
        <pt x="1350" y="127" on="1"/>
        <pt x="1275" y="97" on="0"/>
        <pt x="1135" y="21" on="1"/>
        <pt x="1071" y="-25" on="0"/>
        <pt x="1056" y="-144" on="1"/>
        <pt x="1054" y="-159" on="0"/>
        <pt x="1054" y="-177" on="1"/>
        <pt x="1054" y="-204" on="0"/>
        <pt x="1061" y="-278" on="1"/>
        <pt x="1068" y="-346" on="0"/>
        <pt x="1067" y="-380" on="1"/>
        <pt x="1064" y="-426" on="0"/>
        <pt x="1025" y="-488" on="1"/>
        <pt x="993" y="-534" on="0"/>
        <pt x="961" y="-579" on="1"/>
        <pt x="899" y="-498" on="0"/>
        <pt x="886" y="-277" on="1"/>
        <pt x="880" y="-183" on="0"/>
        <pt x="883" y="-154" on="1"/>
        <pt x="894" y="-110" on="0"/>
        <pt x="904" y="-40" on="1"/>
        <pt x="904" y="-13" on="1"/>
        <pt x="899" y="-6" on="0"/>
        <pt x="885" y="-6" on="1"/>
        <pt x="879" y="-6" on="0"/>
        <pt x="800" y="-17" on="1"/>
        <pt x="714" y="-27" on="0"/>
        <pt x="676" y="-30" on="1"/>
        <pt x="673" y="-31" on="0"/>
        <pt x="664" y="-44" on="1"/>
        <pt x="664" y="-70" on="0"/>
        <pt x="661" y="-124" on="1"/>
        <pt x="658" y="-141" on="0"/>
        <pt x="634" y="-191" on="1"/>
        <pt x="606" y="-252" on="0"/>
        <pt x="584" y="-252" on="1"/>
        <pt x="574" y="-252" on="0"/>
        <pt x="483" y="-147" on="0"/>
        <pt x="471" y="-105" on="0"/>
        <pt x="461" y="-63" on="1"/>
        <pt x="455" y="-14" on="0"/>
        <pt x="467" y="49" on="1"/>
        <pt x="458" y="66" on="0"/>
        <pt x="426" y="66" on="1"/>
        <pt x="378" y="66" on="0"/>
        <pt x="338" y="29" on="1"/>
        <pt x="294" y="-8" on="0"/>
        <pt x="294" y="-57" on="1"/>
        <pt x="294" y="-54" on="0"/>
        <pt x="361" y="-644" on="0"/>
        <pt x="361" y="-728" on="1"/>
        <pt x="361" y="-829" on="0"/>
        <pt x="338" y="-925" on="1"/>
        <pt x="333" y="-926" on="0"/>
        <pt x="320" y="-937" on="1"/>
        <pt x="300" y="-887" on="0"/>
        <pt x="291" y="-740" on="1"/>
        <pt x="280" y="-542" on="0"/>
        <pt x="276" y="-513" on="1"/>
        <pt x="226" y="-130" on="0"/>
        <pt x="226" y="-113" on="1"/>
        <pt x="226" y="20" on="0"/>
        <pt x="369" y="238" on="0"/>
        <pt x="455" y="242" on="1"/>
        <pt x="466" y="242" on="0"/>
        <pt x="511" y="270" on="0"/>
        <pt x="520" y="270" on="1"/>
        <pt x="529" y="270" on="0"/>
        <pt x="566" y="229" on="1"/>
        <pt x="608" y="180" on="0"/>
        <pt x="624" y="170" on="1"/>
        <pt x="682" y="127" on="0"/>
        <pt x="761" y="127" on="1"/>
        <pt x="828" y="127" on="1"/>
        <pt x="917" y="127" on="0"/>
        <pt x="973" y="179" on="1"/>
        <pt x="993" y="198" on="0"/>
        <pt x="1027" y="253" on="1"/>
        <pt x="1062" y="312" on="0"/>
        <pt x="1080" y="331" on="1"/>
        <pt x="1114" y="331" on="1"/>
        <pt x="1122" y="329" on="0"/>
        <pt x="1122" y="306" on="1"/>
        <pt x="1122" y="261" on="0"/>
        <pt x="1055" y="139" on="1"/>
        <pt x="1017" y="73" on="0"/>
        <pt x="980" y="7" on="1"/>
        <pt x="972" y="-18" on="0"/>
        <pt x="971" y="-52" on="1"/>
        <pt x="971" y="-79" on="1"/>
        <pt x="997" y="-69" on="0"/>
        <pt x="1024" y="-8" on="1"/>
        <pt x="1057" y="72" on="0"/>
        <pt x="1146" y="172" on="0"/>
        <pt x="1217" y="215" on="1"/>
        <pt x="1290" y="260" on="0"/>
        <pt x="1333" y="260" on="1"/>
        <pt x="1368" y="260" on="0"/>
        <pt x="1449" y="157" on="0"/>
        <pt x="1495" y="157" on="1"/>
        <pt x="1586" y="157" on="0"/>
        <pt x="1611" y="270" on="1"/>
        <pt x="1536" y="956" on="1"/>
        <pt x="1539" y="1020" on="0"/>
        <pt x="1542" y="1035" on="1"/>
        <pt x="1550" y="1077" on="0"/>
        <pt x="1578" y="1110" on="1"/>
        <pt x="1590" y="1097" on="1"/>
        <pt x="1606" y="1042" on="0"/>
        <pt x="1608" y="1013" on="1"/>
        <pt x="1627" y="821" on="0"/>
        <pt x="1645" y="628" on="1"/>
        <pt x="1670" y="403" on="0"/>
        <pt x="1719" y="247" on="1"/>
        <pt x="1736" y="228" on="0"/>
        <pt x="1767" y="188" on="1"/>
        <pt x="1801" y="188" on="1"/>
        <pt x="1806" y="205" on="0"/>
        <pt x="1800" y="231" on="1"/>
        <pt x="1792" y="262" on="0"/>
        <pt x="1792" y="270" on="1"/>
        <pt x="1792" y="302" on="0"/>
        <pt x="1817" y="369" on="1"/>
        <pt x="1913" y="628" on="0"/>
        <pt x="2030" y="628" on="1"/>
        <pt x="2075" y="628" on="0"/>
        <pt x="2117" y="583" on="1"/>
        <pt x="2164" y="532" on="0"/>
        <pt x="2184" y="446" on="1"/>
        <pt x="2181" y="446" on="0"/>
        <pt x="2164" y="434" on="0"/>
        <pt x="2153" y="434" on="1"/>
        <pt x="2152" y="434" on="0"/>
        <pt x="2089" y="496" on="0"/>
        <pt x="2052" y="496" on="1"/>
        <pt x="2010" y="496" on="0"/>
        <pt x="1953" y="460" on="1"/>
        <pt x="1890" y="419" on="0"/>
        <pt x="1890" y="373" on="1"/>
        <pt x="1890" y="322" on="0"/>
        <pt x="1989" y="178" on="0"/>
        <pt x="2022" y="178" on="1"/>
        <pt x="2048" y="178" on="0"/>
        <pt x="2153" y="272" on="1"/>
        <pt x="2209" y="322" on="0"/>
        <pt x="2264" y="373" on="1"/>
        <pt x="2274" y="358" on="0"/>
      </contour>
      <contour>
        <pt x="655" y="940" on="1"/>
        <pt x="655" y="852" on="0"/>
        <pt x="434" y="751" on="1"/>
        <pt x="393" y="763" on="1"/>
        <pt x="393" y="810" on="1"/>
        <pt x="431" y="836" on="0"/>
        <pt x="490" y="885" on="1"/>
        <pt x="475" y="905" on="0"/>
        <pt x="437" y="905" on="1"/>
        <pt x="426" y="905" on="0"/>
        <pt x="393" y="877" on="1"/>
        <pt x="348" y="840" on="0"/>
        <pt x="340" y="834" on="1"/>
        <pt x="340" y="868" on="1"/>
        <pt x="339" y="908" on="0"/>
        <pt x="399" y="966" on="1"/>
        <pt x="452" y="1017" on="0"/>
        <pt x="475" y="1017" on="1"/>
        <pt x="528" y="1017" on="0"/>
        <pt x="655" y="975" on="1"/>
      </contour>
      <contour>
        <pt x="1483" y="-421" on="1"/>
        <pt x="1483" y="-449" on="0"/>
        <pt x="1435" y="-518" on="0"/>
        <pt x="1412" y="-518" on="1"/>
        <pt x="1403" y="-518" on="0"/>
        <pt x="1357" y="-487" on="0"/>
        <pt x="1348" y="-487" on="1"/>
        <pt x="1339" y="-487" on="0"/>
        <pt x="1282" y="-539" on="0"/>
        <pt x="1273" y="-539" on="1"/>
        <pt x="1248" y="-539" on="0"/>
        <pt x="1222" y="-501" on="1"/>
        <pt x="1197" y="-466" on="0"/>
        <pt x="1197" y="-446" on="1"/>
        <pt x="1197" y="-418" on="0"/>
        <pt x="1234" y="-378" on="1"/>
        <pt x="1266" y="-344" on="0"/>
        <pt x="1273" y="-344" on="1"/>
        <pt x="1281" y="-344" on="0"/>
        <pt x="1334" y="-385" on="0"/>
        <pt x="1344" y="-385" on="1"/>
        <pt x="1354" y="-385" on="0"/>
        <pt x="1399" y="-334" on="0"/>
        <pt x="1408" y="-334" on="1"/>
        <pt x="1432" y="-334" on="0"/>
        <pt x="1483" y="-396" on="0"/>
      </contour>
      <contour>
        <pt x="1235" y="-610" on="1"/>
        <pt x="1235" y="-626" on="0"/>
        <pt x="1204" y="-679" on="0"/>
        <pt x="1187" y="-689" on="1"/>
        <pt x="899" y="-845" on="0"/>
        <pt x="899" y="-845" on="1"/>
        <pt x="861" y="-845" on="1"/>
        <pt x="851" y="-832" on="0"/>
        <pt x="851" y="-815" on="1"/>
        <pt x="851" y="-759" on="0"/>
        <pt x="1050" y="-669" on="1"/>
        <pt x="1107" y="-634" on="0"/>
        <pt x="1217" y="-579" on="1"/>
        <pt x="1223" y="-584" on="0"/>
        <pt x="1235" y="-594" on="0"/>
      </contour>
    </TTGlyph>
    <TTGlyph name="endash" xMin="226" yMin="-937" xMax="1250" yMax="1488">
      <contour>
        <pt x="1186" y="1397" on="1"/>
        <pt x="1186" y="1346" on="0"/>
        <pt x="1141" y="1267" on="1"/>
        <pt x="1116" y="1228" on="0"/>
        <pt x="1092" y="1189" on="1"/>
        <pt x="1033" y="1068" on="0"/>
        <pt x="1021" y="1068" on="1"/>
        <pt x="1019" y="1068" on="0"/>
        <pt x="1018" y="1069" on="1"/>
        <pt x="1013" y="1082" on="0"/>
        <pt x="1013" y="1104" on="1"/>
        <pt x="1013" y="1167" on="0"/>
        <pt x="1172" y="1427" on="1"/>
        <pt x="1186" y="1427" on="0"/>
      </contour>
      <contour>
        <pt x="994" y="1430" on="1"/>
        <pt x="944" y="1315" on="0"/>
        <pt x="811" y="1110" on="1"/>
        <pt x="808" y="1114" on="0"/>
        <pt x="802" y="1125" on="0"/>
        <pt x="802" y="1140" on="1"/>
        <pt x="802" y="1185" on="0"/>
        <pt x="884" y="1330" on="1"/>
        <pt x="930" y="1409" on="0"/>
        <pt x="976" y="1488" on="1"/>
        <pt x="994" y="1488" on="1"/>
      </contour>
      <contour>
        <pt x="832" y="786" on="1"/>
        <pt x="832" y="740" on="0"/>
        <pt x="790" y="671" on="1"/>
        <pt x="751" y="608" on="0"/>
        <pt x="738" y="608" on="1"/>
        <pt x="733" y="608" on="0"/>
        <pt x="725" y="619" on="0"/>
        <pt x="723" y="619" on="1"/>
        <pt x="723" y="667" on="1"/>
        <pt x="737" y="686" on="0"/>
        <pt x="765" y="741" on="1"/>
        <pt x="762" y="751" on="0"/>
        <pt x="751" y="751" on="1"/>
        <pt x="740" y="751" on="0"/>
        <pt x="732" y="736" on="1"/>
        <pt x="721" y="714" on="0"/>
        <pt x="710" y="690" on="1"/>
        <pt x="707" y="695" on="0"/>
        <pt x="700" y="705" on="0"/>
        <pt x="700" y="721" on="1"/>
        <pt x="700" y="734" on="0"/>
        <pt x="733" y="843" on="0"/>
        <pt x="739" y="850" on="1"/>
        <pt x="753" y="864" on="0"/>
        <pt x="768" y="864" on="1"/>
        <pt x="773" y="864" on="0"/>
        <pt x="797" y="846" on="1"/>
        <pt x="824" y="826" on="0"/>
        <pt x="832" y="821" on="1"/>
      </contour>
      <contour>
        <pt x="1250" y="342" on="1"/>
        <pt x="1250" y="226" on="0"/>
        <pt x="1182" y="113" on="1"/>
        <pt x="1131" y="29" on="0"/>
        <pt x="1094" y="7" on="1"/>
        <pt x="1073" y="-6" on="0"/>
        <pt x="1032" y="-6" on="1"/>
        <pt x="968" y="-6" on="0"/>
        <pt x="935" y="127" on="1"/>
        <pt x="925" y="109" on="0"/>
        <pt x="890" y="28" on="1"/>
        <pt x="876" y="-6" on="0"/>
        <pt x="847" y="-6" on="1"/>
        <pt x="823" y="-6" on="0"/>
        <pt x="815" y="13" on="1"/>
        <pt x="808" y="30" on="0"/>
        <pt x="788" y="127" on="1"/>
        <pt x="751" y="97" on="0"/>
        <pt x="680" y="21" on="1"/>
        <pt x="648" y="-25" on="0"/>
        <pt x="641" y="-144" on="1"/>
        <pt x="640" y="-159" on="0"/>
        <pt x="640" y="-177" on="1"/>
        <pt x="640" y="-204" on="0"/>
        <pt x="644" y="-278" on="1"/>
        <pt x="647" y="-346" on="0"/>
        <pt x="647" y="-380" on="1"/>
        <pt x="645" y="-426" on="0"/>
        <pt x="626" y="-488" on="1"/>
        <pt x="609" y="-534" on="0"/>
        <pt x="593" y="-579" on="1"/>
        <pt x="562" y="-498" on="0"/>
        <pt x="556" y="-277" on="1"/>
        <pt x="553" y="-183" on="0"/>
        <pt x="555" y="-154" on="1"/>
        <pt x="560" y="-110" on="0"/>
        <pt x="565" y="-40" on="1"/>
        <pt x="565" y="-13" on="1"/>
        <pt x="562" y="-6" on="0"/>
        <pt x="555" y="-6" on="1"/>
        <pt x="553" y="-6" on="0"/>
        <pt x="513" y="-17" on="1"/>
        <pt x="470" y="-27" on="0"/>
        <pt x="451" y="-30" on="1"/>
        <pt x="450" y="-31" on="0"/>
        <pt x="445" y="-44" on="1"/>
        <pt x="445" y="-70" on="0"/>
        <pt x="443" y="-124" on="1"/>
        <pt x="442" y="-141" on="0"/>
        <pt x="430" y="-191" on="1"/>
        <pt x="416" y="-252" on="0"/>
        <pt x="405" y="-252" on="1"/>
        <pt x="400" y="-252" on="0"/>
        <pt x="355" y="-147" on="0"/>
        <pt x="348" y="-105" on="0"/>
        <pt x="344" y="-63" on="1"/>
        <pt x="341" y="-14" on="0"/>
        <pt x="347" y="49" on="1"/>
        <pt x="342" y="66" on="0"/>
        <pt x="326" y="66" on="1"/>
        <pt x="302" y="66" on="0"/>
        <pt x="282" y="29" on="1"/>
        <pt x="260" y="-8" on="0"/>
        <pt x="260" y="-57" on="1"/>
        <pt x="260" y="-54" on="0"/>
        <pt x="294" y="-644" on="0"/>
        <pt x="294" y="-728" on="1"/>
        <pt x="294" y="-829" on="0"/>
        <pt x="282" y="-925" on="1"/>
        <pt x="279" y="-926" on="0"/>
        <pt x="273" y="-937" on="1"/>
        <pt x="263" y="-887" on="0"/>
        <pt x="259" y="-740" on="1"/>
        <pt x="253" y="-542" on="0"/>
        <pt x="251" y="-513" on="1"/>
        <pt x="226" y="-130" on="0"/>
        <pt x="226" y="-113" on="1"/>
        <pt x="226" y="20" on="0"/>
        <pt x="297" y="238" on="0"/>
        <pt x="341" y="242" on="1"/>
        <pt x="346" y="242" on="0"/>
        <pt x="368" y="270" on="0"/>
        <pt x="373" y="270" on="1"/>
        <pt x="377" y="270" on="0"/>
        <pt x="396" y="229" on="1"/>
        <pt x="417" y="180" on="0"/>
        <pt x="425" y="170" on="1"/>
        <pt x="454" y="127" on="0"/>
        <pt x="493" y="127" on="1"/>
        <pt x="527" y="127" on="1"/>
        <pt x="572" y="127" on="0"/>
        <pt x="600" y="179" on="1"/>
        <pt x="609" y="198" on="0"/>
        <pt x="626" y="253" on="1"/>
        <pt x="644" y="312" on="0"/>
        <pt x="653" y="331" on="1"/>
        <pt x="670" y="331" on="1"/>
        <pt x="674" y="329" on="0"/>
        <pt x="674" y="306" on="1"/>
        <pt x="674" y="261" on="0"/>
        <pt x="640" y="139" on="1"/>
        <pt x="622" y="73" on="0"/>
        <pt x="603" y="7" on="1"/>
        <pt x="599" y="-18" on="0"/>
        <pt x="598" y="-52" on="1"/>
        <pt x="598" y="-79" on="1"/>
        <pt x="612" y="-69" on="0"/>
        <pt x="625" y="-8" on="1"/>
        <pt x="641" y="72" on="0"/>
        <pt x="686" y="172" on="0"/>
        <pt x="721" y="215" on="1"/>
        <pt x="758" y="260" on="0"/>
        <pt x="780" y="260" on="1"/>
        <pt x="797" y="260" on="0"/>
        <pt x="837" y="157" on="0"/>
        <pt x="860" y="157" on="1"/>
        <pt x="906" y="157" on="0"/>
        <pt x="919" y="270" on="1"/>
        <pt x="881" y="956" on="1"/>
        <pt x="883" y="1020" on="0"/>
        <pt x="884" y="1035" on="1"/>
        <pt x="888" y="1077" on="0"/>
        <pt x="902" y="1110" on="1"/>
        <pt x="908" y="1097" on="1"/>
        <pt x="916" y="1042" on="0"/>
        <pt x="917" y="1013" on="1"/>
        <pt x="926" y="821" on="0"/>
        <pt x="935" y="628" on="1"/>
        <pt x="948" y="403" on="0"/>
        <pt x="972" y="247" on="1"/>
        <pt x="981" y="228" on="0"/>
        <pt x="997" y="188" on="1"/>
        <pt x="1014" y="188" on="1"/>
        <pt x="1016" y="205" on="0"/>
        <pt x="1013" y="231" on="1"/>
        <pt x="1009" y="262" on="0"/>
        <pt x="1009" y="270" on="1"/>
        <pt x="1009" y="302" on="0"/>
        <pt x="1022" y="369" on="1"/>
        <pt x="1069" y="628" on="0"/>
        <pt x="1128" y="628" on="1"/>
        <pt x="1150" y="628" on="0"/>
        <pt x="1171" y="583" on="1"/>
        <pt x="1195" y="532" on="0"/>
        <pt x="1205" y="446" on="1"/>
        <pt x="1203" y="446" on="0"/>
        <pt x="1195" y="434" on="0"/>
        <pt x="1190" y="434" on="1"/>
        <pt x="1189" y="434" on="0"/>
        <pt x="1158" y="496" on="0"/>
        <pt x="1139" y="496" on="1"/>
        <pt x="1118" y="496" on="0"/>
        <pt x="1090" y="460" on="1"/>
        <pt x="1058" y="419" on="0"/>
        <pt x="1058" y="373" on="1"/>
        <pt x="1058" y="322" on="0"/>
        <pt x="1108" y="178" on="0"/>
        <pt x="1124" y="178" on="1"/>
        <pt x="1137" y="178" on="0"/>
        <pt x="1190" y="272" on="1"/>
        <pt x="1217" y="322" on="0"/>
        <pt x="1245" y="373" on="1"/>
        <pt x="1250" y="358" on="0"/>
      </contour>
      <contour>
        <pt x="440" y="940" on="1"/>
        <pt x="441" y="852" on="0"/>
        <pt x="330" y="751" on="1"/>
        <pt x="309" y="763" on="1"/>
        <pt x="309" y="810" on="1"/>
        <pt x="329" y="836" on="0"/>
        <pt x="358" y="885" on="1"/>
        <pt x="351" y="905" on="0"/>
        <pt x="332" y="905" on="1"/>
        <pt x="326" y="905" on="0"/>
        <pt x="309" y="877" on="1"/>
        <pt x="287" y="840" on="0"/>
        <pt x="283" y="834" on="1"/>
        <pt x="283" y="868" on="1"/>
        <pt x="283" y="908" on="0"/>
        <pt x="312" y="966" on="1"/>
        <pt x="339" y="1017" on="0"/>
        <pt x="350" y="1017" on="1"/>
        <pt x="377" y="1017" on="0"/>
        <pt x="440" y="975" on="1"/>
      </contour>
      <contour>
        <pt x="855" y="-421" on="1"/>
        <pt x="855" y="-449" on="0"/>
        <pt x="830" y="-518" on="0"/>
        <pt x="819" y="-518" on="1"/>
        <pt x="814" y="-518" on="0"/>
        <pt x="791" y="-487" on="0"/>
        <pt x="787" y="-487" on="1"/>
        <pt x="782" y="-487" on="0"/>
        <pt x="754" y="-539" on="0"/>
        <pt x="750" y="-539" on="1"/>
        <pt x="737" y="-539" on="0"/>
        <pt x="724" y="-501" on="1"/>
        <pt x="712" y="-466" on="0"/>
        <pt x="712" y="-446" on="1"/>
        <pt x="712" y="-418" on="0"/>
        <pt x="730" y="-378" on="1"/>
        <pt x="746" y="-344" on="0"/>
        <pt x="750" y="-344" on="1"/>
        <pt x="753" y="-344" on="0"/>
        <pt x="780" y="-385" on="0"/>
        <pt x="785" y="-385" on="1"/>
        <pt x="790" y="-385" on="0"/>
        <pt x="812" y="-334" on="0"/>
        <pt x="817" y="-334" on="1"/>
        <pt x="829" y="-334" on="0"/>
        <pt x="855" y="-396" on="0"/>
      </contour>
      <contour>
        <pt x="730" y="-610" on="1"/>
        <pt x="730" y="-626" on="0"/>
        <pt x="715" y="-679" on="0"/>
        <pt x="707" y="-689" on="1"/>
        <pt x="562" y="-845" on="0"/>
        <pt x="562" y="-845" on="1"/>
        <pt x="543" y="-845" on="1"/>
        <pt x="539" y="-832" on="0"/>
        <pt x="539" y="-815" on="1"/>
        <pt x="539" y="-759" on="0"/>
        <pt x="638" y="-669" on="1"/>
        <pt x="666" y="-634" on="0"/>
        <pt x="722" y="-579" on="1"/>
        <pt x="725" y="-584" on="0"/>
        <pt x="730" y="-594" on="0"/>
      </contour>
    </TTGlyph>
    <TTGlyph name="equal" xMin="142" yMin="226" xMax="842" yMax="1588">
      <contour>
        <pt x="142" y="226" on="1"/>
        <pt x="142" y="1588" on="1"/>
        <pt x="842" y="1588" on="1"/>
        <pt x="842" y="226" on="1"/>
      </contour>
      <contour>
        <pt x="284" y="368" on="1"/>
        <pt x="700" y="368" on="1"/>
        <pt x="700" y="1447" on="1"/>
        <pt x="284" y="1447" on="1"/>
      </contour>
    </TTGlyph>
    <TTGlyph name="exclam" xMin="142" yMin="226" xMax="842" yMax="1588">
      <contour>
        <pt x="142" y="226" on="1"/>
        <pt x="142" y="1588" on="1"/>
        <pt x="842" y="1588" on="1"/>
        <pt x="842" y="226" on="1"/>
      </contour>
      <contour>
        <pt x="284" y="368" on="1"/>
        <pt x="700" y="368" on="1"/>
        <pt x="700" y="1447" on="1"/>
        <pt x="284" y="1447" on="1"/>
      </contour>
    </TTGlyph>
    <TTGlyph name="figuredash" xMin="226" yMin="-937" xMax="3011" yMax="1488">
      <contour>
        <pt x="2837" y="1397" on="1"/>
        <pt x="2837" y="1346" on="0"/>
        <pt x="2715" y="1267" on="1"/>
        <pt x="2647" y="1228" on="0"/>
        <pt x="2580" y="1189" on="1"/>
        <pt x="2422" y="1068" on="0"/>
        <pt x="2388" y="1068" on="1"/>
        <pt x="2383" y="1068" on="0"/>
        <pt x="2379" y="1069" on="1"/>
        <pt x="2367" y="1082" on="0"/>
        <pt x="2367" y="1104" on="1"/>
        <pt x="2367" y="1167" on="0"/>
        <pt x="2800" y="1427" on="1"/>
        <pt x="2837" y="1427" on="0"/>
      </contour>
      <contour>
        <pt x="2314" y="1430" on="1"/>
        <pt x="2178" y="1315" on="0"/>
        <pt x="1818" y="1110" on="1"/>
        <pt x="1810" y="1114" on="0"/>
        <pt x="1793" y="1125" on="0"/>
        <pt x="1793" y="1140" on="1"/>
        <pt x="1793" y="1185" on="0"/>
        <pt x="2015" y="1330" on="1"/>
        <pt x="2141" y="1409" on="0"/>
        <pt x="2267" y="1488" on="1"/>
        <pt x="2314" y="1488" on="1"/>
      </contour>
      <contour>
        <pt x="1874" y="786" on="1"/>
        <pt x="1874" y="740" on="0"/>
        <pt x="1760" y="671" on="1"/>
        <pt x="1655" y="608" on="0"/>
        <pt x="1619" y="608" on="1"/>
        <pt x="1604" y="608" on="0"/>
        <pt x="1583" y="619" on="0"/>
        <pt x="1579" y="619" on="1"/>
        <pt x="1579" y="667" on="1"/>
        <pt x="1615" y="686" on="0"/>
        <pt x="1691" y="741" on="1"/>
        <pt x="1684" y="751" on="0"/>
        <pt x="1655" y="751" on="1"/>
        <pt x="1624" y="751" on="0"/>
        <pt x="1602" y="736" on="1"/>
        <pt x="1572" y="714" on="0"/>
        <pt x="1542" y="690" on="1"/>
        <pt x="1533" y="695" on="0"/>
        <pt x="1516" y="705" on="0"/>
        <pt x="1516" y="721" on="1"/>
        <pt x="1516" y="734" on="0"/>
        <pt x="1605" y="843" on="0"/>
        <pt x="1622" y="850" on="1"/>
        <pt x="1660" y="864" on="0"/>
        <pt x="1701" y="864" on="1"/>
        <pt x="1714" y="864" on="0"/>
        <pt x="1778" y="846" on="1"/>
        <pt x="1853" y="826" on="0"/>
        <pt x="1874" y="821" on="1"/>
      </contour>
      <contour>
        <pt x="3011" y="342" on="1"/>
        <pt x="3011" y="226" on="0"/>
        <pt x="2825" y="113" on="1"/>
        <pt x="2688" y="29" on="0"/>
        <pt x="2588" y="7" on="1"/>
        <pt x="2529" y="-6" on="0"/>
        <pt x="2417" y="-6" on="1"/>
        <pt x="2245" y="-6" on="0"/>
        <pt x="2155" y="127" on="1"/>
        <pt x="2127" y="109" on="0"/>
        <pt x="2033" y="28" on="1"/>
        <pt x="1995" y="-6" on="0"/>
        <pt x="1916" y="-6" on="1"/>
        <pt x="1850" y="-6" on="0"/>
        <pt x="1827" y="13" on="1"/>
        <pt x="1808" y="30" on="0"/>
        <pt x="1755" y="127" on="1"/>
        <pt x="1653" y="97" on="0"/>
        <pt x="1462" y="21" on="1"/>
        <pt x="1375" y="-25" on="0"/>
        <pt x="1355" y="-144" on="1"/>
        <pt x="1352" y="-159" on="0"/>
        <pt x="1352" y="-177" on="1"/>
        <pt x="1352" y="-204" on="0"/>
        <pt x="1362" y="-278" on="1"/>
        <pt x="1371" y="-346" on="0"/>
        <pt x="1370" y="-380" on="1"/>
        <pt x="1366" y="-426" on="0"/>
        <pt x="1313" y="-488" on="1"/>
        <pt x="1269" y="-534" on="0"/>
        <pt x="1225" y="-579" on="1"/>
        <pt x="1141" y="-498" on="0"/>
        <pt x="1124" y="-277" on="1"/>
        <pt x="1116" y="-183" on="0"/>
        <pt x="1120" y="-154" on="1"/>
        <pt x="1134" y="-110" on="0"/>
        <pt x="1148" y="-40" on="1"/>
        <pt x="1148" y="-13" on="1"/>
        <pt x="1141" y="-6" on="0"/>
        <pt x="1122" y="-6" on="1"/>
        <pt x="1114" y="-6" on="0"/>
        <pt x="1006" y="-17" on="1"/>
        <pt x="890" y="-27" on="0"/>
        <pt x="838" y="-30" on="1"/>
        <pt x="834" y="-31" on="0"/>
        <pt x="822" y="-44" on="1"/>
        <pt x="822" y="-70" on="0"/>
        <pt x="817" y="-124" on="1"/>
        <pt x="814" y="-141" on="0"/>
        <pt x="781" y="-191" on="1"/>
        <pt x="743" y="-252" on="0"/>
        <pt x="713" y="-252" on="1"/>
        <pt x="699" y="-252" on="0"/>
        <pt x="576" y="-147" on="0"/>
        <pt x="559" y="-105" on="0"/>
        <pt x="546" y="-63" on="1"/>
        <pt x="538" y="-14" on="0"/>
        <pt x="554" y="49" on="1"/>
        <pt x="541" y="66" on="0"/>
        <pt x="498" y="66" on="1"/>
        <pt x="433" y="66" on="0"/>
        <pt x="378" y="29" on="1"/>
        <pt x="319" y="-8" on="0"/>
        <pt x="319" y="-57" on="1"/>
        <pt x="319" y="-54" on="0"/>
        <pt x="410" y="-644" on="0"/>
        <pt x="410" y="-728" on="1"/>
        <pt x="410" y="-829" on="0"/>
        <pt x="378" y="-925" on="1"/>
        <pt x="371" y="-926" on="0"/>
        <pt x="354" y="-937" on="1"/>
        <pt x="327" y="-887" on="0"/>
        <pt x="315" y="-740" on="1"/>
        <pt x="299" y="-542" on="0"/>
        <pt x="294" y="-513" on="1"/>
        <pt x="226" y="-130" on="0"/>
        <pt x="226" y="-113" on="1"/>
        <pt x="226" y="20" on="0"/>
        <pt x="420" y="238" on="0"/>
        <pt x="538" y="242" on="1"/>
        <pt x="553" y="242" on="0"/>
        <pt x="613" y="270" on="0"/>
        <pt x="626" y="270" on="1"/>
        <pt x="638" y="270" on="0"/>
        <pt x="688" y="229" on="1"/>
        <pt x="746" y="180" on="0"/>
        <pt x="767" y="170" on="1"/>
        <pt x="846" y="127" on="0"/>
        <pt x="953" y="127" on="1"/>
        <pt x="1045" y="127" on="1"/>
        <pt x="1166" y="127" on="0"/>
        <pt x="1242" y="179" on="1"/>
        <pt x="1269" y="198" on="0"/>
        <pt x="1315" y="253" on="1"/>
        <pt x="1363" y="312" on="0"/>
        <pt x="1387" y="331" on="1"/>
        <pt x="1433" y="331" on="1"/>
        <pt x="1445" y="329" on="0"/>
        <pt x="1445" y="306" on="1"/>
        <pt x="1445" y="261" on="0"/>
        <pt x="1353" y="139" on="1"/>
        <pt x="1302" y="73" on="0"/>
        <pt x="1252" y="7" on="1"/>
        <pt x="1240" y="-18" on="0"/>
        <pt x="1239" y="-52" on="1"/>
        <pt x="1239" y="-79" on="1"/>
        <pt x="1275" y="-69" on="0"/>
        <pt x="1311" y="-8" on="1"/>
        <pt x="1356" y="72" on="0"/>
        <pt x="1477" y="172" on="0"/>
        <pt x="1573" y="215" on="1"/>
        <pt x="1673" y="260" on="0"/>
        <pt x="1732" y="260" on="1"/>
        <pt x="1779" y="260" on="0"/>
        <pt x="1889" y="157" on="0"/>
        <pt x="1951" y="157" on="1"/>
        <pt x="2076" y="157" on="0"/>
        <pt x="2110" y="270" on="1"/>
        <pt x="2008" y="956" on="1"/>
        <pt x="2012" y="1020" on="0"/>
        <pt x="2016" y="1035" on="1"/>
        <pt x="2027" y="1077" on="0"/>
        <pt x="2064" y="1110" on="1"/>
        <pt x="2081" y="1097" on="1"/>
        <pt x="2102" y="1042" on="0"/>
        <pt x="2106" y="1013" on="1"/>
        <pt x="2131" y="821" on="0"/>
        <pt x="2155" y="628" on="1"/>
        <pt x="2189" y="403" on="0"/>
        <pt x="2256" y="247" on="1"/>
        <pt x="2279" y="228" on="0"/>
        <pt x="2322" y="188" on="1"/>
        <pt x="2368" y="188" on="1"/>
        <pt x="2375" y="205" on="0"/>
        <pt x="2366" y="231" on="1"/>
        <pt x="2356" y="262" on="0"/>
        <pt x="2356" y="270" on="1"/>
        <pt x="2356" y="302" on="0"/>
        <pt x="2390" y="369" on="1"/>
        <pt x="2520" y="628" on="0"/>
        <pt x="2679" y="628" on="1"/>
        <pt x="2740" y="628" on="0"/>
        <pt x="2797" y="583" on="1"/>
        <pt x="2861" y="532" on="0"/>
        <pt x="2888" y="446" on="1"/>
        <pt x="2884" y="446" on="0"/>
        <pt x="2862" y="434" on="0"/>
        <pt x="2847" y="434" on="1"/>
        <pt x="2845" y="434" on="0"/>
        <pt x="2760" y="496" on="0"/>
        <pt x="2709" y="496" on="1"/>
        <pt x="2652" y="496" on="0"/>
        <pt x="2575" y="460" on="1"/>
        <pt x="2489" y="419" on="0"/>
        <pt x="2489" y="373" on="1"/>
        <pt x="2489" y="322" on="0"/>
        <pt x="2624" y="178" on="0"/>
        <pt x="2668" y="178" on="1"/>
        <pt x="2703" y="178" on="0"/>
        <pt x="2847" y="272" on="1"/>
        <pt x="2922" y="322" on="0"/>
        <pt x="2997" y="373" on="1"/>
        <pt x="3011" y="358" on="0"/>
      </contour>
      <contour>
        <pt x="809" y="940" on="1"/>
        <pt x="810" y="852" on="0"/>
        <pt x="509" y="751" on="1"/>
        <pt x="453" y="763" on="1"/>
        <pt x="453" y="810" on="1"/>
        <pt x="505" y="836" on="0"/>
        <pt x="585" y="885" on="1"/>
        <pt x="565" y="905" on="0"/>
        <pt x="513" y="905" on="1"/>
        <pt x="498" y="905" on="0"/>
        <pt x="453" y="877" on="1"/>
        <pt x="392" y="840" on="0"/>
        <pt x="381" y="834" on="1"/>
        <pt x="381" y="868" on="1"/>
        <pt x="380" y="908" on="0"/>
        <pt x="461" y="966" on="1"/>
        <pt x="534" y="1017" on="0"/>
        <pt x="564" y="1017" on="1"/>
        <pt x="636" y="1017" on="0"/>
        <pt x="809" y="975" on="1"/>
      </contour>
      <contour>
        <pt x="1936" y="-421" on="1"/>
        <pt x="1936" y="-449" on="0"/>
        <pt x="1870" y="-518" on="0"/>
        <pt x="1839" y="-518" on="1"/>
        <pt x="1826" y="-518" on="0"/>
        <pt x="1764" y="-487" on="0"/>
        <pt x="1752" y="-487" on="1"/>
        <pt x="1739" y="-487" on="0"/>
        <pt x="1662" y="-539" on="0"/>
        <pt x="1650" y="-539" on="1"/>
        <pt x="1616" y="-539" on="0"/>
        <pt x="1580" y="-501" on="1"/>
        <pt x="1547" y="-466" on="0"/>
        <pt x="1547" y="-446" on="1"/>
        <pt x="1547" y="-418" on="0"/>
        <pt x="1597" y="-378" on="1"/>
        <pt x="1640" y="-344" on="0"/>
        <pt x="1650" y="-344" on="1"/>
        <pt x="1660" y="-344" on="0"/>
        <pt x="1733" y="-385" on="0"/>
        <pt x="1746" y="-385" on="1"/>
        <pt x="1760" y="-385" on="0"/>
        <pt x="1821" y="-334" on="0"/>
        <pt x="1834" y="-334" on="1"/>
        <pt x="1866" y="-334" on="0"/>
        <pt x="1936" y="-396" on="0"/>
      </contour>
      <contour>
        <pt x="1598" y="-610" on="1"/>
        <pt x="1598" y="-626" on="0"/>
        <pt x="1556" y="-679" on="0"/>
        <pt x="1533" y="-689" on="1"/>
        <pt x="1141" y="-845" on="0"/>
        <pt x="1141" y="-845" on="1"/>
        <pt x="1089" y="-845" on="1"/>
        <pt x="1076" y="-832" on="0"/>
        <pt x="1076" y="-815" on="1"/>
        <pt x="1076" y="-759" on="0"/>
        <pt x="1346" y="-669" on="1"/>
        <pt x="1424" y="-634" on="0"/>
        <pt x="1574" y="-579" on="1"/>
        <pt x="1582" y="-584" on="0"/>
        <pt x="1598" y="-594" on="0"/>
      </contour>
    </TTGlyph>
    <TTGlyph name="gaffinalarabic" xMin="142" yMin="226" xMax="842" yMax="1588">
      <contour>
        <pt x="142" y="226" on="1"/>
        <pt x="142" y="1588" on="1"/>
        <pt x="842" y="1588" on="1"/>
        <pt x="842" y="226" on="1"/>
      </contour>
      <contour>
        <pt x="284" y="368" on="1"/>
        <pt x="700" y="368" on="1"/>
        <pt x="700" y="1447" on="1"/>
        <pt x="284" y="1447" on="1"/>
      </contour>
    </TTGlyph>
    <TTGlyph name="gafinitialarabic" xMin="142" yMin="226" xMax="842" yMax="1588">
      <contour>
        <pt x="142" y="226" on="1"/>
        <pt x="142" y="1588" on="1"/>
        <pt x="842" y="1588" on="1"/>
        <pt x="842" y="226" on="1"/>
      </contour>
      <contour>
        <pt x="284" y="368" on="1"/>
        <pt x="700" y="368" on="1"/>
        <pt x="700" y="1447" on="1"/>
        <pt x="284" y="1447" on="1"/>
      </contour>
    </TTGlyph>
    <TTGlyph name="gafmedialarabic" xMin="142" yMin="226" xMax="842" yMax="1588">
      <contour>
        <pt x="142" y="226" on="1"/>
        <pt x="142" y="1588" on="1"/>
        <pt x="842" y="1588" on="1"/>
        <pt x="842" y="226" on="1"/>
      </contour>
      <contour>
        <pt x="284" y="368" on="1"/>
        <pt x="700" y="368" on="1"/>
        <pt x="700" y="1447" on="1"/>
        <pt x="284" y="1447" on="1"/>
      </contour>
    </TTGlyph>
    <TTGlyph name="glyph41" xMin="142" yMin="226" xMax="842" yMax="1588">
      <contour>
        <pt x="142" y="226" on="1"/>
        <pt x="142" y="1588" on="1"/>
        <pt x="842" y="1588" on="1"/>
        <pt x="842" y="226" on="1"/>
      </contour>
      <contour>
        <pt x="284" y="368" on="1"/>
        <pt x="700" y="368" on="1"/>
        <pt x="700" y="1447" on="1"/>
        <pt x="284" y="1447" on="1"/>
      </contour>
    </TTGlyph>
    <TTGlyph name="glyph42" xMin="142" yMin="226" xMax="842" yMax="1588">
      <contour>
        <pt x="142" y="226" on="1"/>
        <pt x="142" y="1588" on="1"/>
        <pt x="842" y="1588" on="1"/>
        <pt x="842" y="226" on="1"/>
      </contour>
      <contour>
        <pt x="284" y="368" on="1"/>
        <pt x="700" y="368" on="1"/>
        <pt x="700" y="1447" on="1"/>
        <pt x="284" y="1447" on="1"/>
      </contour>
    </TTGlyph>
    <TTGlyph name="glyph43" xMin="142" yMin="226" xMax="842" yMax="1588">
      <contour>
        <pt x="142" y="226" on="1"/>
        <pt x="142" y="1588" on="1"/>
        <pt x="842" y="1588" on="1"/>
        <pt x="842" y="226" on="1"/>
      </contour>
      <contour>
        <pt x="284" y="368" on="1"/>
        <pt x="700" y="368" on="1"/>
        <pt x="700" y="1447" on="1"/>
        <pt x="284" y="1447" on="1"/>
      </contour>
    </TTGlyph>
    <TTGlyph name="glyph44" xMin="142" yMin="226" xMax="842" yMax="1588">
      <contour>
        <pt x="142" y="226" on="1"/>
        <pt x="142" y="1588" on="1"/>
        <pt x="842" y="1588" on="1"/>
        <pt x="842" y="226" on="1"/>
      </contour>
      <contour>
        <pt x="284" y="368" on="1"/>
        <pt x="700" y="368" on="1"/>
        <pt x="700" y="1447" on="1"/>
        <pt x="284" y="1447" on="1"/>
      </contour>
    </TTGlyph>
    <TTGlyph name="glyph45" xMin="142" yMin="226" xMax="842" yMax="1588">
      <contour>
        <pt x="142" y="226" on="1"/>
        <pt x="142" y="1588" on="1"/>
        <pt x="842" y="1588" on="1"/>
        <pt x="842" y="226" on="1"/>
      </contour>
      <contour>
        <pt x="284" y="368" on="1"/>
        <pt x="700" y="368" on="1"/>
        <pt x="700" y="1447" on="1"/>
        <pt x="284" y="1447" on="1"/>
      </contour>
    </TTGlyph>
    <TTGlyph name="glyph46" xMin="142" yMin="226" xMax="842" yMax="1588">
      <contour>
        <pt x="142" y="226" on="1"/>
        <pt x="142" y="1588" on="1"/>
        <pt x="842" y="1588" on="1"/>
        <pt x="842" y="226" on="1"/>
      </contour>
      <contour>
        <pt x="284" y="368" on="1"/>
        <pt x="700" y="368" on="1"/>
        <pt x="700" y="1447" on="1"/>
        <pt x="284" y="1447" on="1"/>
      </contour>
    </TTGlyph>
    <TTGlyph name="glyph47" xMin="142" yMin="226" xMax="842" yMax="1588">
      <contour>
        <pt x="142" y="226" on="1"/>
        <pt x="142" y="1588" on="1"/>
        <pt x="842" y="1588" on="1"/>
        <pt x="842" y="226" on="1"/>
      </contour>
      <contour>
        <pt x="284" y="368" on="1"/>
        <pt x="700" y="368" on="1"/>
        <pt x="700" y="1447" on="1"/>
        <pt x="284" y="1447" on="1"/>
      </contour>
    </TTGlyph>
    <TTGlyph name="glyph48" xMin="142" yMin="226" xMax="842" yMax="1588">
      <contour>
        <pt x="142" y="226" on="1"/>
        <pt x="142" y="1588" on="1"/>
        <pt x="842" y="1588" on="1"/>
        <pt x="842" y="226" on="1"/>
      </contour>
      <contour>
        <pt x="284" y="368" on="1"/>
        <pt x="700" y="368" on="1"/>
        <pt x="700" y="1447" on="1"/>
        <pt x="284" y="1447" on="1"/>
      </contour>
    </TTGlyph>
    <TTGlyph name="glyph50" xMin="142" yMin="226" xMax="842" yMax="1588">
      <contour>
        <pt x="142" y="226" on="1"/>
        <pt x="142" y="1588" on="1"/>
        <pt x="842" y="1588" on="1"/>
        <pt x="842" y="226" on="1"/>
      </contour>
      <contour>
        <pt x="284" y="368" on="1"/>
        <pt x="700" y="368" on="1"/>
        <pt x="700" y="1447" on="1"/>
        <pt x="284" y="1447" on="1"/>
      </contour>
    </TTGlyph>
    <TTGlyph name="glyph51" xMin="142" yMin="226" xMax="842" yMax="1588">
      <contour>
        <pt x="142" y="226" on="1"/>
        <pt x="142" y="1588" on="1"/>
        <pt x="842" y="1588" on="1"/>
        <pt x="842" y="226" on="1"/>
      </contour>
      <contour>
        <pt x="284" y="368" on="1"/>
        <pt x="700" y="368" on="1"/>
        <pt x="700" y="1447" on="1"/>
        <pt x="284" y="1447" on="1"/>
      </contour>
    </TTGlyph>
    <TTGlyph name="greater" xMin="142" yMin="226" xMax="842" yMax="1588">
      <contour>
        <pt x="142" y="226" on="1"/>
        <pt x="142" y="1588" on="1"/>
        <pt x="842" y="1588" on="1"/>
        <pt x="842" y="226" on="1"/>
      </contour>
      <contour>
        <pt x="284" y="368" on="1"/>
        <pt x="700" y="368" on="1"/>
        <pt x="700" y="1447" on="1"/>
        <pt x="284" y="1447" on="1"/>
      </contour>
    </TTGlyph>
    <TTGlyph name="hahhamzabovefinal" xMin="142" yMin="226" xMax="842" yMax="1588">
      <contour>
        <pt x="142" y="226" on="1"/>
        <pt x="142" y="1588" on="1"/>
        <pt x="842" y="1588" on="1"/>
        <pt x="842" y="226" on="1"/>
      </contour>
      <contour>
        <pt x="284" y="368" on="1"/>
        <pt x="700" y="368" on="1"/>
        <pt x="700" y="1447" on="1"/>
        <pt x="284" y="1447" on="1"/>
      </contour>
    </TTGlyph>
    <TTGlyph name="hahhamzaboveinitial" xMin="142" yMin="226" xMax="842" yMax="1588">
      <contour>
        <pt x="142" y="226" on="1"/>
        <pt x="142" y="1588" on="1"/>
        <pt x="842" y="1588" on="1"/>
        <pt x="842" y="226" on="1"/>
      </contour>
      <contour>
        <pt x="284" y="368" on="1"/>
        <pt x="700" y="368" on="1"/>
        <pt x="700" y="1447" on="1"/>
        <pt x="284" y="1447" on="1"/>
      </contour>
    </TTGlyph>
    <TTGlyph name="hahhamzabovemedial" xMin="142" yMin="226" xMax="842" yMax="1588">
      <contour>
        <pt x="142" y="226" on="1"/>
        <pt x="142" y="1588" on="1"/>
        <pt x="842" y="1588" on="1"/>
        <pt x="842" y="226" on="1"/>
      </contour>
      <contour>
        <pt x="284" y="368" on="1"/>
        <pt x="700" y="368" on="1"/>
        <pt x="700" y="1447" on="1"/>
        <pt x="284" y="1447" on="1"/>
      </contour>
    </TTGlyph>
    <TTGlyph name="hahthreedotsabovefinal" xMin="142" yMin="226" xMax="842" yMax="1588">
      <contour>
        <pt x="142" y="226" on="1"/>
        <pt x="142" y="1588" on="1"/>
        <pt x="842" y="1588" on="1"/>
        <pt x="842" y="226" on="1"/>
      </contour>
      <contour>
        <pt x="284" y="368" on="1"/>
        <pt x="700" y="368" on="1"/>
        <pt x="700" y="1447" on="1"/>
        <pt x="284" y="1447" on="1"/>
      </contour>
    </TTGlyph>
    <TTGlyph name="hahthreedotsaboveinitial" xMin="142" yMin="226" xMax="842" yMax="1588">
      <contour>
        <pt x="142" y="226" on="1"/>
        <pt x="142" y="1588" on="1"/>
        <pt x="842" y="1588" on="1"/>
        <pt x="842" y="226" on="1"/>
      </contour>
      <contour>
        <pt x="284" y="368" on="1"/>
        <pt x="700" y="368" on="1"/>
        <pt x="700" y="1447" on="1"/>
        <pt x="284" y="1447" on="1"/>
      </contour>
    </TTGlyph>
    <TTGlyph name="hahthreedotsabovemedial" xMin="142" yMin="226" xMax="842" yMax="1588">
      <contour>
        <pt x="142" y="226" on="1"/>
        <pt x="142" y="1588" on="1"/>
        <pt x="842" y="1588" on="1"/>
        <pt x="842" y="226" on="1"/>
      </contour>
      <contour>
        <pt x="284" y="368" on="1"/>
        <pt x="700" y="368" on="1"/>
        <pt x="700" y="1447" on="1"/>
        <pt x="284" y="1447" on="1"/>
      </contour>
    </TTGlyph>
    <TTGlyph name="hehdoachashmeefinalarabic" xMin="142" yMin="226" xMax="842" yMax="1588">
      <contour>
        <pt x="142" y="226" on="1"/>
        <pt x="142" y="1588" on="1"/>
        <pt x="842" y="1588" on="1"/>
        <pt x="842" y="226" on="1"/>
      </contour>
      <contour>
        <pt x="284" y="368" on="1"/>
        <pt x="700" y="368" on="1"/>
        <pt x="700" y="1447" on="1"/>
        <pt x="284" y="1447" on="1"/>
      </contour>
    </TTGlyph>
    <TTGlyph name="hehdoachashmeeinitialarabic" xMin="142" yMin="226" xMax="842" yMax="1588">
      <contour>
        <pt x="142" y="226" on="1"/>
        <pt x="142" y="1588" on="1"/>
        <pt x="842" y="1588" on="1"/>
        <pt x="842" y="226" on="1"/>
      </contour>
      <contour>
        <pt x="284" y="368" on="1"/>
        <pt x="700" y="368" on="1"/>
        <pt x="700" y="1447" on="1"/>
        <pt x="284" y="1447" on="1"/>
      </contour>
    </TTGlyph>
    <TTGlyph name="hehdoachashmeemedialarabic" xMin="142" yMin="226" xMax="842" yMax="1588">
      <contour>
        <pt x="142" y="226" on="1"/>
        <pt x="142" y="1588" on="1"/>
        <pt x="842" y="1588" on="1"/>
        <pt x="842" y="226" on="1"/>
      </contour>
      <contour>
        <pt x="284" y="368" on="1"/>
        <pt x="700" y="368" on="1"/>
        <pt x="700" y="1447" on="1"/>
        <pt x="284" y="1447" on="1"/>
      </contour>
    </TTGlyph>
    <TTGlyph name="hehfinalaltonearabic" xMin="142" yMin="226" xMax="842" yMax="1588">
      <contour>
        <pt x="142" y="226" on="1"/>
        <pt x="142" y="1588" on="1"/>
        <pt x="842" y="1588" on="1"/>
        <pt x="842" y="226" on="1"/>
      </contour>
      <contour>
        <pt x="284" y="368" on="1"/>
        <pt x="700" y="368" on="1"/>
        <pt x="700" y="1447" on="1"/>
        <pt x="284" y="1447" on="1"/>
      </contour>
    </TTGlyph>
    <TTGlyph name="hehhamzaabovefinalarabic" xMin="142" yMin="226" xMax="842" yMax="1588">
      <contour>
        <pt x="142" y="226" on="1"/>
        <pt x="142" y="1588" on="1"/>
        <pt x="842" y="1588" on="1"/>
        <pt x="842" y="226" on="1"/>
      </contour>
      <contour>
        <pt x="284" y="368" on="1"/>
        <pt x="700" y="368" on="1"/>
        <pt x="700" y="1447" on="1"/>
        <pt x="284" y="1447" on="1"/>
      </contour>
    </TTGlyph>
    <TTGlyph name="hehinitialaltonearabic" xMin="142" yMin="226" xMax="842" yMax="1588">
      <contour>
        <pt x="142" y="226" on="1"/>
        <pt x="142" y="1588" on="1"/>
        <pt x="842" y="1588" on="1"/>
        <pt x="842" y="226" on="1"/>
      </contour>
      <contour>
        <pt x="284" y="368" on="1"/>
        <pt x="700" y="368" on="1"/>
        <pt x="700" y="1447" on="1"/>
        <pt x="284" y="1447" on="1"/>
      </contour>
    </TTGlyph>
    <TTGlyph name="hehmedialaltonearabic" xMin="142" yMin="226" xMax="842" yMax="1588">
      <contour>
        <pt x="142" y="226" on="1"/>
        <pt x="142" y="1588" on="1"/>
        <pt x="842" y="1588" on="1"/>
        <pt x="842" y="226" on="1"/>
      </contour>
      <contour>
        <pt x="284" y="368" on="1"/>
        <pt x="700" y="368" on="1"/>
        <pt x="700" y="1447" on="1"/>
        <pt x="284" y="1447" on="1"/>
      </contour>
    </TTGlyph>
    <TTGlyph name="hyphen" xMin="226" yMin="-937" xMax="3011" yMax="1488">
      <contour>
        <pt x="2837" y="1397" on="1"/>
        <pt x="2837" y="1346" on="0"/>
        <pt x="2715" y="1267" on="1"/>
        <pt x="2647" y="1228" on="0"/>
        <pt x="2580" y="1189" on="1"/>
        <pt x="2422" y="1068" on="0"/>
        <pt x="2388" y="1068" on="1"/>
        <pt x="2383" y="1068" on="0"/>
        <pt x="2379" y="1069" on="1"/>
        <pt x="2367" y="1082" on="0"/>
        <pt x="2367" y="1104" on="1"/>
        <pt x="2367" y="1167" on="0"/>
        <pt x="2800" y="1427" on="1"/>
        <pt x="2837" y="1427" on="0"/>
      </contour>
      <contour>
        <pt x="2314" y="1430" on="1"/>
        <pt x="2178" y="1315" on="0"/>
        <pt x="1818" y="1110" on="1"/>
        <pt x="1810" y="1114" on="0"/>
        <pt x="1793" y="1125" on="0"/>
        <pt x="1793" y="1140" on="1"/>
        <pt x="1793" y="1185" on="0"/>
        <pt x="2015" y="1330" on="1"/>
        <pt x="2141" y="1409" on="0"/>
        <pt x="2267" y="1488" on="1"/>
        <pt x="2314" y="1488" on="1"/>
      </contour>
      <contour>
        <pt x="1874" y="786" on="1"/>
        <pt x="1874" y="740" on="0"/>
        <pt x="1760" y="671" on="1"/>
        <pt x="1655" y="608" on="0"/>
        <pt x="1619" y="608" on="1"/>
        <pt x="1604" y="608" on="0"/>
        <pt x="1583" y="619" on="0"/>
        <pt x="1579" y="619" on="1"/>
        <pt x="1579" y="667" on="1"/>
        <pt x="1615" y="686" on="0"/>
        <pt x="1691" y="741" on="1"/>
        <pt x="1684" y="751" on="0"/>
        <pt x="1655" y="751" on="1"/>
        <pt x="1624" y="751" on="0"/>
        <pt x="1602" y="736" on="1"/>
        <pt x="1572" y="714" on="0"/>
        <pt x="1542" y="690" on="1"/>
        <pt x="1533" y="695" on="0"/>
        <pt x="1516" y="705" on="0"/>
        <pt x="1516" y="721" on="1"/>
        <pt x="1516" y="734" on="0"/>
        <pt x="1605" y="843" on="0"/>
        <pt x="1622" y="850" on="1"/>
        <pt x="1660" y="864" on="0"/>
        <pt x="1701" y="864" on="1"/>
        <pt x="1714" y="864" on="0"/>
        <pt x="1778" y="846" on="1"/>
        <pt x="1853" y="826" on="0"/>
        <pt x="1874" y="821" on="1"/>
      </contour>
      <contour>
        <pt x="3011" y="342" on="1"/>
        <pt x="3011" y="226" on="0"/>
        <pt x="2825" y="113" on="1"/>
        <pt x="2688" y="29" on="0"/>
        <pt x="2588" y="7" on="1"/>
        <pt x="2529" y="-6" on="0"/>
        <pt x="2417" y="-6" on="1"/>
        <pt x="2245" y="-6" on="0"/>
        <pt x="2155" y="127" on="1"/>
        <pt x="2127" y="109" on="0"/>
        <pt x="2033" y="28" on="1"/>
        <pt x="1995" y="-6" on="0"/>
        <pt x="1916" y="-6" on="1"/>
        <pt x="1850" y="-6" on="0"/>
        <pt x="1827" y="13" on="1"/>
        <pt x="1808" y="30" on="0"/>
        <pt x="1755" y="127" on="1"/>
        <pt x="1653" y="97" on="0"/>
        <pt x="1462" y="21" on="1"/>
        <pt x="1375" y="-25" on="0"/>
        <pt x="1355" y="-144" on="1"/>
        <pt x="1352" y="-159" on="0"/>
        <pt x="1352" y="-177" on="1"/>
        <pt x="1352" y="-204" on="0"/>
        <pt x="1362" y="-278" on="1"/>
        <pt x="1371" y="-346" on="0"/>
        <pt x="1370" y="-380" on="1"/>
        <pt x="1366" y="-426" on="0"/>
        <pt x="1313" y="-488" on="1"/>
        <pt x="1269" y="-534" on="0"/>
        <pt x="1225" y="-579" on="1"/>
        <pt x="1141" y="-498" on="0"/>
        <pt x="1124" y="-277" on="1"/>
        <pt x="1116" y="-183" on="0"/>
        <pt x="1120" y="-154" on="1"/>
        <pt x="1134" y="-110" on="0"/>
        <pt x="1148" y="-40" on="1"/>
        <pt x="1148" y="-13" on="1"/>
        <pt x="1141" y="-6" on="0"/>
        <pt x="1122" y="-6" on="1"/>
        <pt x="1114" y="-6" on="0"/>
        <pt x="1006" y="-17" on="1"/>
        <pt x="890" y="-27" on="0"/>
        <pt x="838" y="-30" on="1"/>
        <pt x="834" y="-31" on="0"/>
        <pt x="822" y="-44" on="1"/>
        <pt x="822" y="-70" on="0"/>
        <pt x="817" y="-124" on="1"/>
        <pt x="814" y="-141" on="0"/>
        <pt x="781" y="-191" on="1"/>
        <pt x="743" y="-252" on="0"/>
        <pt x="713" y="-252" on="1"/>
        <pt x="699" y="-252" on="0"/>
        <pt x="576" y="-147" on="0"/>
        <pt x="559" y="-105" on="0"/>
        <pt x="546" y="-63" on="1"/>
        <pt x="538" y="-14" on="0"/>
        <pt x="554" y="49" on="1"/>
        <pt x="541" y="66" on="0"/>
        <pt x="498" y="66" on="1"/>
        <pt x="433" y="66" on="0"/>
        <pt x="378" y="29" on="1"/>
        <pt x="319" y="-8" on="0"/>
        <pt x="319" y="-57" on="1"/>
        <pt x="319" y="-54" on="0"/>
        <pt x="410" y="-644" on="0"/>
        <pt x="410" y="-728" on="1"/>
        <pt x="410" y="-829" on="0"/>
        <pt x="378" y="-925" on="1"/>
        <pt x="371" y="-926" on="0"/>
        <pt x="354" y="-937" on="1"/>
        <pt x="327" y="-887" on="0"/>
        <pt x="315" y="-740" on="1"/>
        <pt x="299" y="-542" on="0"/>
        <pt x="294" y="-513" on="1"/>
        <pt x="226" y="-130" on="0"/>
        <pt x="226" y="-113" on="1"/>
        <pt x="226" y="20" on="0"/>
        <pt x="420" y="238" on="0"/>
        <pt x="538" y="242" on="1"/>
        <pt x="553" y="242" on="0"/>
        <pt x="613" y="270" on="0"/>
        <pt x="626" y="270" on="1"/>
        <pt x="638" y="270" on="0"/>
        <pt x="688" y="229" on="1"/>
        <pt x="746" y="180" on="0"/>
        <pt x="767" y="170" on="1"/>
        <pt x="846" y="127" on="0"/>
        <pt x="953" y="127" on="1"/>
        <pt x="1045" y="127" on="1"/>
        <pt x="1166" y="127" on="0"/>
        <pt x="1242" y="179" on="1"/>
        <pt x="1269" y="198" on="0"/>
        <pt x="1315" y="253" on="1"/>
        <pt x="1363" y="312" on="0"/>
        <pt x="1387" y="331" on="1"/>
        <pt x="1433" y="331" on="1"/>
        <pt x="1445" y="329" on="0"/>
        <pt x="1445" y="306" on="1"/>
        <pt x="1445" y="261" on="0"/>
        <pt x="1353" y="139" on="1"/>
        <pt x="1302" y="73" on="0"/>
        <pt x="1252" y="7" on="1"/>
        <pt x="1240" y="-18" on="0"/>
        <pt x="1239" y="-52" on="1"/>
        <pt x="1239" y="-79" on="1"/>
        <pt x="1275" y="-69" on="0"/>
        <pt x="1311" y="-8" on="1"/>
        <pt x="1356" y="72" on="0"/>
        <pt x="1477" y="172" on="0"/>
        <pt x="1573" y="215" on="1"/>
        <pt x="1673" y="260" on="0"/>
        <pt x="1732" y="260" on="1"/>
        <pt x="1779" y="260" on="0"/>
        <pt x="1889" y="157" on="0"/>
        <pt x="1951" y="157" on="1"/>
        <pt x="2076" y="157" on="0"/>
        <pt x="2110" y="270" on="1"/>
        <pt x="2008" y="956" on="1"/>
        <pt x="2012" y="1020" on="0"/>
        <pt x="2016" y="1035" on="1"/>
        <pt x="2027" y="1077" on="0"/>
        <pt x="2064" y="1110" on="1"/>
        <pt x="2081" y="1097" on="1"/>
        <pt x="2102" y="1042" on="0"/>
        <pt x="2106" y="1013" on="1"/>
        <pt x="2131" y="821" on="0"/>
        <pt x="2155" y="628" on="1"/>
        <pt x="2189" y="403" on="0"/>
        <pt x="2256" y="247" on="1"/>
        <pt x="2279" y="228" on="0"/>
        <pt x="2322" y="188" on="1"/>
        <pt x="2368" y="188" on="1"/>
        <pt x="2375" y="205" on="0"/>
        <pt x="2366" y="231" on="1"/>
        <pt x="2356" y="262" on="0"/>
        <pt x="2356" y="270" on="1"/>
        <pt x="2356" y="302" on="0"/>
        <pt x="2390" y="369" on="1"/>
        <pt x="2520" y="628" on="0"/>
        <pt x="2679" y="628" on="1"/>
        <pt x="2740" y="628" on="0"/>
        <pt x="2797" y="583" on="1"/>
        <pt x="2861" y="532" on="0"/>
        <pt x="2888" y="446" on="1"/>
        <pt x="2884" y="446" on="0"/>
        <pt x="2862" y="434" on="0"/>
        <pt x="2847" y="434" on="1"/>
        <pt x="2845" y="434" on="0"/>
        <pt x="2760" y="496" on="0"/>
        <pt x="2709" y="496" on="1"/>
        <pt x="2652" y="496" on="0"/>
        <pt x="2575" y="460" on="1"/>
        <pt x="2489" y="419" on="0"/>
        <pt x="2489" y="373" on="1"/>
        <pt x="2489" y="322" on="0"/>
        <pt x="2624" y="178" on="0"/>
        <pt x="2668" y="178" on="1"/>
        <pt x="2703" y="178" on="0"/>
        <pt x="2847" y="272" on="1"/>
        <pt x="2922" y="322" on="0"/>
        <pt x="2997" y="373" on="1"/>
        <pt x="3011" y="358" on="0"/>
      </contour>
      <contour>
        <pt x="809" y="940" on="1"/>
        <pt x="810" y="852" on="0"/>
        <pt x="509" y="751" on="1"/>
        <pt x="453" y="763" on="1"/>
        <pt x="453" y="810" on="1"/>
        <pt x="505" y="836" on="0"/>
        <pt x="585" y="885" on="1"/>
        <pt x="565" y="905" on="0"/>
        <pt x="513" y="905" on="1"/>
        <pt x="498" y="905" on="0"/>
        <pt x="453" y="877" on="1"/>
        <pt x="392" y="840" on="0"/>
        <pt x="381" y="834" on="1"/>
        <pt x="381" y="868" on="1"/>
        <pt x="380" y="908" on="0"/>
        <pt x="461" y="966" on="1"/>
        <pt x="534" y="1017" on="0"/>
        <pt x="564" y="1017" on="1"/>
        <pt x="636" y="1017" on="0"/>
        <pt x="809" y="975" on="1"/>
      </contour>
      <contour>
        <pt x="1936" y="-421" on="1"/>
        <pt x="1936" y="-449" on="0"/>
        <pt x="1870" y="-518" on="0"/>
        <pt x="1839" y="-518" on="1"/>
        <pt x="1826" y="-518" on="0"/>
        <pt x="1764" y="-487" on="0"/>
        <pt x="1752" y="-487" on="1"/>
        <pt x="1739" y="-487" on="0"/>
        <pt x="1662" y="-539" on="0"/>
        <pt x="1650" y="-539" on="1"/>
        <pt x="1616" y="-539" on="0"/>
        <pt x="1580" y="-501" on="1"/>
        <pt x="1547" y="-466" on="0"/>
        <pt x="1547" y="-446" on="1"/>
        <pt x="1547" y="-418" on="0"/>
        <pt x="1597" y="-378" on="1"/>
        <pt x="1640" y="-344" on="0"/>
        <pt x="1650" y="-344" on="1"/>
        <pt x="1660" y="-344" on="0"/>
        <pt x="1733" y="-385" on="0"/>
        <pt x="1746" y="-385" on="1"/>
        <pt x="1760" y="-385" on="0"/>
        <pt x="1821" y="-334" on="0"/>
        <pt x="1834" y="-334" on="1"/>
        <pt x="1866" y="-334" on="0"/>
        <pt x="1936" y="-396" on="0"/>
      </contour>
      <contour>
        <pt x="1598" y="-610" on="1"/>
        <pt x="1598" y="-626" on="0"/>
        <pt x="1556" y="-679" on="0"/>
        <pt x="1533" y="-689" on="1"/>
        <pt x="1141" y="-845" on="0"/>
        <pt x="1141" y="-845" on="1"/>
        <pt x="1089" y="-845" on="1"/>
        <pt x="1076" y="-832" on="0"/>
        <pt x="1076" y="-815" on="1"/>
        <pt x="1076" y="-759" on="0"/>
        <pt x="1346" y="-669" on="1"/>
        <pt x="1424" y="-634" on="0"/>
        <pt x="1574" y="-579" on="1"/>
        <pt x="1582" y="-584" on="0"/>
        <pt x="1598" y="-594" on="0"/>
      </contour>
    </TTGlyph>
    <TTGlyph name="irghizufinal" xMin="142" yMin="226" xMax="842" yMax="1588">
      <contour>
        <pt x="142" y="226" on="1"/>
        <pt x="142" y="1588" on="1"/>
        <pt x="842" y="1588" on="1"/>
        <pt x="842" y="226" on="1"/>
      </contour>
      <contour>
        <pt x="284" y="368" on="1"/>
        <pt x="700" y="368" on="1"/>
        <pt x="700" y="1447" on="1"/>
        <pt x="284" y="1447" on="1"/>
      </contour>
    </TTGlyph>
    <TTGlyph name="jehfinalarabic" xMin="142" yMin="226" xMax="842" yMax="1588">
      <contour>
        <pt x="142" y="226" on="1"/>
        <pt x="142" y="1588" on="1"/>
        <pt x="842" y="1588" on="1"/>
        <pt x="842" y="226" on="1"/>
      </contour>
      <contour>
        <pt x="284" y="368" on="1"/>
        <pt x="700" y="368" on="1"/>
        <pt x="700" y="1447" on="1"/>
        <pt x="284" y="1447" on="1"/>
      </contour>
    </TTGlyph>
    <TTGlyph name="kafringfinal" xMin="142" yMin="226" xMax="842" yMax="1588">
      <contour>
        <pt x="142" y="226" on="1"/>
        <pt x="142" y="1588" on="1"/>
        <pt x="842" y="1588" on="1"/>
        <pt x="842" y="226" on="1"/>
      </contour>
      <contour>
        <pt x="284" y="368" on="1"/>
        <pt x="700" y="368" on="1"/>
        <pt x="700" y="1447" on="1"/>
        <pt x="284" y="1447" on="1"/>
      </contour>
    </TTGlyph>
    <TTGlyph name="kafringinitial" xMin="142" yMin="226" xMax="842" yMax="1588">
      <contour>
        <pt x="142" y="226" on="1"/>
        <pt x="142" y="1588" on="1"/>
        <pt x="842" y="1588" on="1"/>
        <pt x="842" y="226" on="1"/>
      </contour>
      <contour>
        <pt x="284" y="368" on="1"/>
        <pt x="700" y="368" on="1"/>
        <pt x="700" y="1447" on="1"/>
        <pt x="284" y="1447" on="1"/>
      </contour>
    </TTGlyph>
    <TTGlyph name="kafringmedial" xMin="142" yMin="226" xMax="842" yMax="1588">
      <contour>
        <pt x="142" y="226" on="1"/>
        <pt x="142" y="1588" on="1"/>
        <pt x="842" y="1588" on="1"/>
        <pt x="842" y="226" on="1"/>
      </contour>
      <contour>
        <pt x="284" y="368" on="1"/>
        <pt x="700" y="368" on="1"/>
        <pt x="700" y="1447" on="1"/>
        <pt x="284" y="1447" on="1"/>
      </contour>
    </TTGlyph>
    <TTGlyph name="kashidaautoarabic" xMin="142" yMin="226" xMax="842" yMax="1588">
      <contour>
        <pt x="142" y="226" on="1"/>
        <pt x="142" y="1588" on="1"/>
        <pt x="842" y="1588" on="1"/>
        <pt x="842" y="226" on="1"/>
      </contour>
      <contour>
        <pt x="284" y="368" on="1"/>
        <pt x="700" y="368" on="1"/>
        <pt x="700" y="1447" on="1"/>
        <pt x="284" y="1447" on="1"/>
      </contour>
    </TTGlyph>
    <TTGlyph name="kashidaautonosidebearingarabic" xMin="142" yMin="226" xMax="842" yMax="1588">
      <contour>
        <pt x="142" y="226" on="1"/>
        <pt x="142" y="1588" on="1"/>
        <pt x="842" y="1588" on="1"/>
        <pt x="842" y="226" on="1"/>
      </contour>
      <contour>
        <pt x="284" y="368" on="1"/>
        <pt x="700" y="368" on="1"/>
        <pt x="700" y="1447" on="1"/>
        <pt x="284" y="1447" on="1"/>
      </contour>
    </TTGlyph>
    <TTGlyph name="kehehfinalarabic" xMin="142" yMin="226" xMax="842" yMax="1588">
      <contour>
        <pt x="142" y="226" on="1"/>
        <pt x="142" y="1588" on="1"/>
        <pt x="842" y="1588" on="1"/>
        <pt x="842" y="226" on="1"/>
      </contour>
      <contour>
        <pt x="284" y="368" on="1"/>
        <pt x="700" y="368" on="1"/>
        <pt x="700" y="1447" on="1"/>
        <pt x="284" y="1447" on="1"/>
      </contour>
    </TTGlyph>
    <TTGlyph name="kehehinitialarabic" xMin="142" yMin="226" xMax="842" yMax="1588">
      <contour>
        <pt x="142" y="226" on="1"/>
        <pt x="142" y="1588" on="1"/>
        <pt x="842" y="1588" on="1"/>
        <pt x="842" y="226" on="1"/>
      </contour>
      <contour>
        <pt x="284" y="368" on="1"/>
        <pt x="700" y="368" on="1"/>
        <pt x="700" y="1447" on="1"/>
        <pt x="284" y="1447" on="1"/>
      </contour>
    </TTGlyph>
    <TTGlyph name="kehehmedialarabic" xMin="142" yMin="226" xMax="842" yMax="1588">
      <contour>
        <pt x="142" y="226" on="1"/>
        <pt x="142" y="1588" on="1"/>
        <pt x="842" y="1588" on="1"/>
        <pt x="842" y="226" on="1"/>
      </contour>
      <contour>
        <pt x="284" y="368" on="1"/>
        <pt x="700" y="368" on="1"/>
        <pt x="700" y="1447" on="1"/>
        <pt x="284" y="1447" on="1"/>
      </contour>
    </TTGlyph>
    <TTGlyph name="kirghizyifinal" xMin="142" yMin="226" xMax="842" yMax="1588">
      <contour>
        <pt x="142" y="226" on="1"/>
        <pt x="142" y="1588" on="1"/>
        <pt x="842" y="1588" on="1"/>
        <pt x="842" y="226" on="1"/>
      </contour>
      <contour>
        <pt x="284" y="368" on="1"/>
        <pt x="700" y="368" on="1"/>
        <pt x="700" y="1447" on="1"/>
        <pt x="284" y="1447" on="1"/>
      </contour>
    </TTGlyph>
    <TTGlyph name="lammeemjeeminitialarabic" xMin="142" yMin="226" xMax="842" yMax="1588">
      <contour>
        <pt x="142" y="226" on="1"/>
        <pt x="142" y="1588" on="1"/>
        <pt x="842" y="1588" on="1"/>
        <pt x="842" y="226" on="1"/>
      </contour>
      <contour>
        <pt x="284" y="368" on="1"/>
        <pt x="700" y="368" on="1"/>
        <pt x="700" y="1447" on="1"/>
        <pt x="284" y="1447" on="1"/>
      </contour>
    </TTGlyph>
    <TTGlyph name="lammeemkhahinitialarabic" xMin="142" yMin="226" xMax="842" yMax="1588">
      <contour>
        <pt x="142" y="226" on="1"/>
        <pt x="142" y="1588" on="1"/>
        <pt x="842" y="1588" on="1"/>
        <pt x="842" y="226" on="1"/>
      </contour>
      <contour>
        <pt x="284" y="368" on="1"/>
        <pt x="700" y="368" on="1"/>
        <pt x="700" y="1447" on="1"/>
        <pt x="284" y="1447" on="1"/>
      </contour>
    </TTGlyph>
    <TTGlyph name="lamthreedotsabovefinal" xMin="142" yMin="226" xMax="842" yMax="1588">
      <contour>
        <pt x="142" y="226" on="1"/>
        <pt x="142" y="1588" on="1"/>
        <pt x="842" y="1588" on="1"/>
        <pt x="842" y="226" on="1"/>
      </contour>
      <contour>
        <pt x="284" y="368" on="1"/>
        <pt x="700" y="368" on="1"/>
        <pt x="700" y="1447" on="1"/>
        <pt x="284" y="1447" on="1"/>
      </contour>
    </TTGlyph>
    <TTGlyph name="lamthreedotsaboveinitial" xMin="142" yMin="226" xMax="842" yMax="1588">
      <contour>
        <pt x="142" y="226" on="1"/>
        <pt x="142" y="1588" on="1"/>
        <pt x="842" y="1588" on="1"/>
        <pt x="842" y="226" on="1"/>
      </contour>
      <contour>
        <pt x="284" y="368" on="1"/>
        <pt x="700" y="368" on="1"/>
        <pt x="700" y="1447" on="1"/>
        <pt x="284" y="1447" on="1"/>
      </contour>
    </TTGlyph>
    <TTGlyph name="lamthreedotsabovemedial" xMin="142" yMin="226" xMax="842" yMax="1588">
      <contour>
        <pt x="142" y="226" on="1"/>
        <pt x="142" y="1588" on="1"/>
        <pt x="842" y="1588" on="1"/>
        <pt x="842" y="226" on="1"/>
      </contour>
      <contour>
        <pt x="284" y="368" on="1"/>
        <pt x="700" y="368" on="1"/>
        <pt x="700" y="1447" on="1"/>
        <pt x="284" y="1447" on="1"/>
      </contour>
    </TTGlyph>
    <TTGlyph name="less" xMin="142" yMin="226" xMax="842" yMax="1588">
      <contour>
        <pt x="142" y="226" on="1"/>
        <pt x="142" y="1588" on="1"/>
        <pt x="842" y="1588" on="1"/>
        <pt x="842" y="226" on="1"/>
      </contour>
      <contour>
        <pt x="284" y="368" on="1"/>
        <pt x="700" y="368" on="1"/>
        <pt x="700" y="1447" on="1"/>
        <pt x="284" y="1447" on="1"/>
      </contour>
    </TTGlyph>
    <TTGlyph name="meemmeemisolatedarabic" xMin="142" yMin="226" xMax="842" yMax="1588">
      <contour>
        <pt x="142" y="226" on="1"/>
        <pt x="142" y="1588" on="1"/>
        <pt x="842" y="1588" on="1"/>
        <pt x="842" y="226" on="1"/>
      </contour>
      <contour>
        <pt x="284" y="368" on="1"/>
        <pt x="700" y="368" on="1"/>
        <pt x="700" y="1447" on="1"/>
        <pt x="284" y="1447" on="1"/>
      </contour>
    </TTGlyph>
    <TTGlyph name="multiply" xMin="142" yMin="226" xMax="842" yMax="1588">
      <contour>
        <pt x="142" y="226" on="1"/>
        <pt x="142" y="1588" on="1"/>
        <pt x="842" y="1588" on="1"/>
        <pt x="842" y="226" on="1"/>
      </contour>
      <contour>
        <pt x="284" y="368" on="1"/>
        <pt x="700" y="368" on="1"/>
        <pt x="700" y="1447" on="1"/>
        <pt x="284" y="1447" on="1"/>
      </contour>
    </TTGlyph>
    <TTGlyph name="noonghunnafinalarabic" xMin="142" yMin="226" xMax="842" yMax="1588">
      <contour>
        <pt x="142" y="226" on="1"/>
        <pt x="142" y="1588" on="1"/>
        <pt x="842" y="1588" on="1"/>
        <pt x="842" y="226" on="1"/>
      </contour>
      <contour>
        <pt x="284" y="368" on="1"/>
        <pt x="700" y="368" on="1"/>
        <pt x="700" y="1447" on="1"/>
        <pt x="284" y="1447" on="1"/>
      </contour>
    </TTGlyph>
    <TTGlyph name="noonjeemisolatedarabic" xMin="142" yMin="226" xMax="842" yMax="1588">
      <contour>
        <pt x="142" y="226" on="1"/>
        <pt x="142" y="1588" on="1"/>
        <pt x="842" y="1588" on="1"/>
        <pt x="842" y="226" on="1"/>
      </contour>
      <contour>
        <pt x="284" y="368" on="1"/>
        <pt x="700" y="368" on="1"/>
        <pt x="700" y="1447" on="1"/>
        <pt x="284" y="1447" on="1"/>
      </contour>
    </TTGlyph>
    <TTGlyph name="noonmeemisolatedarabic" xMin="142" yMin="226" xMax="842" yMax="1588">
      <contour>
        <pt x="142" y="226" on="1"/>
        <pt x="142" y="1588" on="1"/>
        <pt x="842" y="1588" on="1"/>
        <pt x="842" y="226" on="1"/>
      </contour>
      <contour>
        <pt x="284" y="368" on="1"/>
        <pt x="700" y="368" on="1"/>
        <pt x="700" y="1447" on="1"/>
        <pt x="284" y="1447" on="1"/>
      </contour>
    </TTGlyph>
    <TTGlyph name="noonringfinal" xMin="142" yMin="226" xMax="842" yMax="1588">
      <contour>
        <pt x="142" y="226" on="1"/>
        <pt x="142" y="1588" on="1"/>
        <pt x="842" y="1588" on="1"/>
        <pt x="842" y="226" on="1"/>
      </contour>
      <contour>
        <pt x="284" y="368" on="1"/>
        <pt x="700" y="368" on="1"/>
        <pt x="700" y="1447" on="1"/>
        <pt x="284" y="1447" on="1"/>
      </contour>
    </TTGlyph>
    <TTGlyph name="noonringinitial" xMin="142" yMin="226" xMax="842" yMax="1588">
      <contour>
        <pt x="142" y="226" on="1"/>
        <pt x="142" y="1588" on="1"/>
        <pt x="842" y="1588" on="1"/>
        <pt x="842" y="226" on="1"/>
      </contour>
      <contour>
        <pt x="284" y="368" on="1"/>
        <pt x="700" y="368" on="1"/>
        <pt x="700" y="1447" on="1"/>
        <pt x="284" y="1447" on="1"/>
      </contour>
    </TTGlyph>
    <TTGlyph name="noonringmedial" xMin="142" yMin="226" xMax="842" yMax="1588">
      <contour>
        <pt x="142" y="226" on="1"/>
        <pt x="142" y="1588" on="1"/>
        <pt x="842" y="1588" on="1"/>
        <pt x="842" y="226" on="1"/>
      </contour>
      <contour>
        <pt x="284" y="368" on="1"/>
        <pt x="700" y="368" on="1"/>
        <pt x="700" y="1447" on="1"/>
        <pt x="284" y="1447" on="1"/>
      </contour>
    </TTGlyph>
    <TTGlyph name="numbersign" xMin="142" yMin="226" xMax="842" yMax="1588">
      <contour>
        <pt x="142" y="226" on="1"/>
        <pt x="142" y="1588" on="1"/>
        <pt x="842" y="1588" on="1"/>
        <pt x="842" y="226" on="1"/>
      </contour>
      <contour>
        <pt x="284" y="368" on="1"/>
        <pt x="700" y="368" on="1"/>
        <pt x="700" y="1447" on="1"/>
        <pt x="284" y="1447" on="1"/>
      </contour>
    </TTGlyph>
    <TTGlyph name="parenleft" xMin="142" yMin="226" xMax="842" yMax="1588">
      <contour>
        <pt x="142" y="226" on="1"/>
        <pt x="142" y="1588" on="1"/>
        <pt x="842" y="1588" on="1"/>
        <pt x="842" y="226" on="1"/>
      </contour>
      <contour>
        <pt x="284" y="368" on="1"/>
        <pt x="700" y="368" on="1"/>
        <pt x="700" y="1447" on="1"/>
        <pt x="284" y="1447" on="1"/>
      </contour>
    </TTGlyph>
    <TTGlyph name="parenright" xMin="142" yMin="226" xMax="842" yMax="1588">
      <contour>
        <pt x="142" y="226" on="1"/>
        <pt x="142" y="1588" on="1"/>
        <pt x="842" y="1588" on="1"/>
        <pt x="842" y="226" on="1"/>
      </contour>
      <contour>
        <pt x="284" y="368" on="1"/>
        <pt x="700" y="368" on="1"/>
        <pt x="700" y="1447" on="1"/>
        <pt x="284" y="1447" on="1"/>
      </contour>
    </TTGlyph>
    <TTGlyph name="pashtoefinal" xMin="142" yMin="226" xMax="842" yMax="1588">
      <contour>
        <pt x="142" y="226" on="1"/>
        <pt x="142" y="1588" on="1"/>
        <pt x="842" y="1588" on="1"/>
        <pt x="842" y="226" on="1"/>
      </contour>
      <contour>
        <pt x="284" y="368" on="1"/>
        <pt x="700" y="368" on="1"/>
        <pt x="700" y="1447" on="1"/>
        <pt x="284" y="1447" on="1"/>
      </contour>
    </TTGlyph>
    <TTGlyph name="pashtoeinitial" xMin="142" yMin="226" xMax="842" yMax="1588">
      <contour>
        <pt x="142" y="226" on="1"/>
        <pt x="142" y="1588" on="1"/>
        <pt x="842" y="1588" on="1"/>
        <pt x="842" y="226" on="1"/>
      </contour>
      <contour>
        <pt x="284" y="368" on="1"/>
        <pt x="700" y="368" on="1"/>
        <pt x="700" y="1447" on="1"/>
        <pt x="284" y="1447" on="1"/>
      </contour>
    </TTGlyph>
    <TTGlyph name="pashtoemedial" xMin="142" yMin="226" xMax="842" yMax="1588">
      <contour>
        <pt x="142" y="226" on="1"/>
        <pt x="142" y="1588" on="1"/>
        <pt x="842" y="1588" on="1"/>
        <pt x="842" y="226" on="1"/>
      </contour>
      <contour>
        <pt x="284" y="368" on="1"/>
        <pt x="700" y="368" on="1"/>
        <pt x="700" y="1447" on="1"/>
        <pt x="284" y="1447" on="1"/>
      </contour>
    </TTGlyph>
    <TTGlyph name="pehfinalarabic" xMin="142" yMin="226" xMax="842" yMax="1588">
      <contour>
        <pt x="142" y="226" on="1"/>
        <pt x="142" y="1588" on="1"/>
        <pt x="842" y="1588" on="1"/>
        <pt x="842" y="226" on="1"/>
      </contour>
      <contour>
        <pt x="284" y="368" on="1"/>
        <pt x="700" y="368" on="1"/>
        <pt x="700" y="1447" on="1"/>
        <pt x="284" y="1447" on="1"/>
      </contour>
    </TTGlyph>
    <TTGlyph name="pehinitialarabic" xMin="142" yMin="226" xMax="842" yMax="1588">
      <contour>
        <pt x="142" y="226" on="1"/>
        <pt x="142" y="1588" on="1"/>
        <pt x="842" y="1588" on="1"/>
        <pt x="842" y="226" on="1"/>
      </contour>
      <contour>
        <pt x="284" y="368" on="1"/>
        <pt x="700" y="368" on="1"/>
        <pt x="700" y="1447" on="1"/>
        <pt x="284" y="1447" on="1"/>
      </contour>
    </TTGlyph>
    <TTGlyph name="pehmedialarabic" xMin="142" yMin="226" xMax="842" yMax="1588">
      <contour>
        <pt x="142" y="226" on="1"/>
        <pt x="142" y="1588" on="1"/>
        <pt x="842" y="1588" on="1"/>
        <pt x="842" y="226" on="1"/>
      </contour>
      <contour>
        <pt x="284" y="368" on="1"/>
        <pt x="700" y="368" on="1"/>
        <pt x="700" y="1447" on="1"/>
        <pt x="284" y="1447" on="1"/>
      </contour>
    </TTGlyph>
    <TTGlyph name="percent" xMin="142" yMin="226" xMax="842" yMax="1588">
      <contour>
        <pt x="142" y="226" on="1"/>
        <pt x="142" y="1588" on="1"/>
        <pt x="842" y="1588" on="1"/>
        <pt x="842" y="226" on="1"/>
      </contour>
      <contour>
        <pt x="284" y="368" on="1"/>
        <pt x="700" y="368" on="1"/>
        <pt x="700" y="1447" on="1"/>
        <pt x="284" y="1447" on="1"/>
      </contour>
    </TTGlyph>
    <TTGlyph name="period" xMin="142" yMin="226" xMax="842" yMax="1588">
      <contour>
        <pt x="142" y="226" on="1"/>
        <pt x="142" y="1588" on="1"/>
        <pt x="842" y="1588" on="1"/>
        <pt x="842" y="226" on="1"/>
      </contour>
      <contour>
        <pt x="284" y="368" on="1"/>
        <pt x="700" y="368" on="1"/>
        <pt x="700" y="1447" on="1"/>
        <pt x="284" y="1447" on="1"/>
      </contour>
    </TTGlyph>
    <TTGlyph name="plus" xMin="142" yMin="226" xMax="842" yMax="1588">
      <contour>
        <pt x="142" y="226" on="1"/>
        <pt x="142" y="1588" on="1"/>
        <pt x="842" y="1588" on="1"/>
        <pt x="842" y="226" on="1"/>
      </contour>
      <contour>
        <pt x="284" y="368" on="1"/>
        <pt x="700" y="368" on="1"/>
        <pt x="700" y="1447" on="1"/>
        <pt x="284" y="1447" on="1"/>
      </contour>
    </TTGlyph>
    <TTGlyph name="quotedbl" xMin="142" yMin="226" xMax="842" yMax="1588">
      <contour>
        <pt x="142" y="226" on="1"/>
        <pt x="142" y="1588" on="1"/>
        <pt x="842" y="1588" on="1"/>
        <pt x="842" y="226" on="1"/>
      </contour>
      <contour>
        <pt x="284" y="368" on="1"/>
        <pt x="700" y="368" on="1"/>
        <pt x="700" y="1447" on="1"/>
        <pt x="284" y="1447" on="1"/>
      </contour>
    </TTGlyph>
    <TTGlyph name="quotesingle" xMin="142" yMin="226" xMax="842" yMax="1588">
      <contour>
        <pt x="142" y="226" on="1"/>
        <pt x="142" y="1588" on="1"/>
        <pt x="842" y="1588" on="1"/>
        <pt x="842" y="226" on="1"/>
      </contour>
      <contour>
        <pt x="284" y="368" on="1"/>
        <pt x="700" y="368" on="1"/>
        <pt x="700" y="1447" on="1"/>
        <pt x="284" y="1447" on="1"/>
      </contour>
    </TTGlyph>
    <TTGlyph name="rehdotbelowdotabovefinal" xMin="142" yMin="226" xMax="842" yMax="1588">
      <contour>
        <pt x="142" y="226" on="1"/>
        <pt x="142" y="1588" on="1"/>
        <pt x="842" y="1588" on="1"/>
        <pt x="842" y="226" on="1"/>
      </contour>
      <contour>
        <pt x="284" y="368" on="1"/>
        <pt x="700" y="368" on="1"/>
        <pt x="700" y="1447" on="1"/>
        <pt x="284" y="1447" on="1"/>
      </contour>
    </TTGlyph>
    <TTGlyph name="rehringfinal" xMin="142" yMin="226" xMax="842" yMax="1588">
      <contour>
        <pt x="142" y="226" on="1"/>
        <pt x="142" y="1588" on="1"/>
        <pt x="842" y="1588" on="1"/>
        <pt x="842" y="226" on="1"/>
      </contour>
      <contour>
        <pt x="284" y="368" on="1"/>
        <pt x="700" y="368" on="1"/>
        <pt x="700" y="1447" on="1"/>
        <pt x="284" y="1447" on="1"/>
      </contour>
    </TTGlyph>
    <TTGlyph name="rrehfinalarabic" xMin="142" yMin="226" xMax="842" yMax="1588">
      <contour>
        <pt x="142" y="226" on="1"/>
        <pt x="142" y="1588" on="1"/>
        <pt x="842" y="1588" on="1"/>
        <pt x="842" y="226" on="1"/>
      </contour>
      <contour>
        <pt x="284" y="368" on="1"/>
        <pt x="700" y="368" on="1"/>
        <pt x="700" y="1447" on="1"/>
        <pt x="284" y="1447" on="1"/>
      </contour>
    </TTGlyph>
    <TTGlyph name="seendotbelowdotabovefinal" xMin="142" yMin="226" xMax="842" yMax="1588">
      <contour>
        <pt x="142" y="226" on="1"/>
        <pt x="142" y="1588" on="1"/>
        <pt x="842" y="1588" on="1"/>
        <pt x="842" y="226" on="1"/>
      </contour>
      <contour>
        <pt x="284" y="368" on="1"/>
        <pt x="700" y="368" on="1"/>
        <pt x="700" y="1447" on="1"/>
        <pt x="284" y="1447" on="1"/>
      </contour>
    </TTGlyph>
    <TTGlyph name="seendotbelowdotaboveinitial" xMin="142" yMin="226" xMax="842" yMax="1588">
      <contour>
        <pt x="142" y="226" on="1"/>
        <pt x="142" y="1588" on="1"/>
        <pt x="842" y="1588" on="1"/>
        <pt x="842" y="226" on="1"/>
      </contour>
      <contour>
        <pt x="284" y="368" on="1"/>
        <pt x="700" y="368" on="1"/>
        <pt x="700" y="1447" on="1"/>
        <pt x="284" y="1447" on="1"/>
      </contour>
    </TTGlyph>
    <TTGlyph name="seendotbelowdotabovemedial" xMin="142" yMin="226" xMax="842" yMax="1588">
      <contour>
        <pt x="142" y="226" on="1"/>
        <pt x="142" y="1588" on="1"/>
        <pt x="842" y="1588" on="1"/>
        <pt x="842" y="226" on="1"/>
      </contour>
      <contour>
        <pt x="284" y="368" on="1"/>
        <pt x="700" y="368" on="1"/>
        <pt x="700" y="1447" on="1"/>
        <pt x="284" y="1447" on="1"/>
      </contour>
    </TTGlyph>
    <TTGlyph name="shaddadammaarabic" xMin="142" yMin="226" xMax="842" yMax="1588">
      <contour>
        <pt x="142" y="226" on="1"/>
        <pt x="142" y="1588" on="1"/>
        <pt x="842" y="1588" on="1"/>
        <pt x="842" y="226" on="1"/>
      </contour>
      <contour>
        <pt x="284" y="368" on="1"/>
        <pt x="700" y="368" on="1"/>
        <pt x="700" y="1447" on="1"/>
        <pt x="284" y="1447" on="1"/>
      </contour>
    </TTGlyph>
    <TTGlyph name="shaddadammatanarabic" xMin="142" yMin="226" xMax="842" yMax="1588">
      <contour>
        <pt x="142" y="226" on="1"/>
        <pt x="142" y="1588" on="1"/>
        <pt x="842" y="1588" on="1"/>
        <pt x="842" y="226" on="1"/>
      </contour>
      <contour>
        <pt x="284" y="368" on="1"/>
        <pt x="700" y="368" on="1"/>
        <pt x="700" y="1447" on="1"/>
        <pt x="284" y="1447" on="1"/>
      </contour>
    </TTGlyph>
    <TTGlyph name="shaddafathaarabic" xMin="142" yMin="226" xMax="842" yMax="1588">
      <contour>
        <pt x="142" y="226" on="1"/>
        <pt x="142" y="1588" on="1"/>
        <pt x="842" y="1588" on="1"/>
        <pt x="842" y="226" on="1"/>
      </contour>
      <contour>
        <pt x="284" y="368" on="1"/>
        <pt x="700" y="368" on="1"/>
        <pt x="700" y="1447" on="1"/>
        <pt x="284" y="1447" on="1"/>
      </contour>
    </TTGlyph>
    <TTGlyph name="shaddakasraarabic" xMin="142" yMin="226" xMax="842" yMax="1588">
      <contour>
        <pt x="142" y="226" on="1"/>
        <pt x="142" y="1588" on="1"/>
        <pt x="842" y="1588" on="1"/>
        <pt x="842" y="226" on="1"/>
      </contour>
      <contour>
        <pt x="284" y="368" on="1"/>
        <pt x="700" y="368" on="1"/>
        <pt x="700" y="1447" on="1"/>
        <pt x="284" y="1447" on="1"/>
      </contour>
    </TTGlyph>
    <TTGlyph name="shaddakasratanarabic" xMin="142" yMin="226" xMax="842" yMax="1588">
      <contour>
        <pt x="142" y="226" on="1"/>
        <pt x="142" y="1588" on="1"/>
        <pt x="842" y="1588" on="1"/>
        <pt x="842" y="226" on="1"/>
      </contour>
      <contour>
        <pt x="284" y="368" on="1"/>
        <pt x="700" y="368" on="1"/>
        <pt x="700" y="1447" on="1"/>
        <pt x="284" y="1447" on="1"/>
      </contour>
    </TTGlyph>
    <TTGlyph name="slash" xMin="142" yMin="226" xMax="842" yMax="1588">
      <contour>
        <pt x="142" y="226" on="1"/>
        <pt x="142" y="1588" on="1"/>
        <pt x="842" y="1588" on="1"/>
        <pt x="842" y="226" on="1"/>
      </contour>
      <contour>
        <pt x="284" y="368" on="1"/>
        <pt x="700" y="368" on="1"/>
        <pt x="700" y="1447" on="1"/>
        <pt x="284" y="1447" on="1"/>
      </contour>
    </TTGlyph>
    <TTGlyph name="space" xMin="142" yMin="226" xMax="842" yMax="1588">
      <contour>
        <pt x="142" y="226" on="1"/>
        <pt x="142" y="1588" on="1"/>
        <pt x="842" y="1588" on="1"/>
        <pt x="842" y="226" on="1"/>
      </contour>
      <contour>
        <pt x="284" y="368" on="1"/>
        <pt x="700" y="368" on="1"/>
        <pt x="700" y="1447" on="1"/>
        <pt x="284" y="1447" on="1"/>
      </contour>
    </TTGlyph>
    <TTGlyph name="tchehfinalarabic" xMin="142" yMin="226" xMax="842" yMax="1588">
      <contour>
        <pt x="142" y="226" on="1"/>
        <pt x="142" y="1588" on="1"/>
        <pt x="842" y="1588" on="1"/>
        <pt x="842" y="226" on="1"/>
      </contour>
      <contour>
        <pt x="284" y="368" on="1"/>
        <pt x="700" y="368" on="1"/>
        <pt x="700" y="1447" on="1"/>
        <pt x="284" y="1447" on="1"/>
      </contour>
    </TTGlyph>
    <TTGlyph name="tchehinitialarabic" xMin="142" yMin="226" xMax="842" yMax="1588">
      <contour>
        <pt x="142" y="226" on="1"/>
        <pt x="142" y="1588" on="1"/>
        <pt x="842" y="1588" on="1"/>
        <pt x="842" y="226" on="1"/>
      </contour>
      <contour>
        <pt x="284" y="368" on="1"/>
        <pt x="700" y="368" on="1"/>
        <pt x="700" y="1447" on="1"/>
        <pt x="284" y="1447" on="1"/>
      </contour>
    </TTGlyph>
    <TTGlyph name="tchehmedialarabic" xMin="142" yMin="226" xMax="842" yMax="1588">
      <contour>
        <pt x="142" y="226" on="1"/>
        <pt x="142" y="1588" on="1"/>
        <pt x="842" y="1588" on="1"/>
        <pt x="842" y="226" on="1"/>
      </contour>
      <contour>
        <pt x="284" y="368" on="1"/>
        <pt x="700" y="368" on="1"/>
        <pt x="700" y="1447" on="1"/>
        <pt x="284" y="1447" on="1"/>
      </contour>
    </TTGlyph>
    <TTGlyph name="tehhahisolatedarabic" xMin="142" yMin="226" xMax="842" yMax="1588">
      <contour>
        <pt x="142" y="226" on="1"/>
        <pt x="142" y="1588" on="1"/>
        <pt x="842" y="1588" on="1"/>
        <pt x="842" y="226" on="1"/>
      </contour>
      <contour>
        <pt x="284" y="368" on="1"/>
        <pt x="700" y="368" on="1"/>
        <pt x="700" y="1447" on="1"/>
        <pt x="284" y="1447" on="1"/>
      </contour>
    </TTGlyph>
    <TTGlyph name="tehjeemisolatedarabic" xMin="142" yMin="226" xMax="842" yMax="1588">
      <contour>
        <pt x="142" y="226" on="1"/>
        <pt x="142" y="1588" on="1"/>
        <pt x="842" y="1588" on="1"/>
        <pt x="842" y="226" on="1"/>
      </contour>
      <contour>
        <pt x="284" y="368" on="1"/>
        <pt x="700" y="368" on="1"/>
        <pt x="700" y="1447" on="1"/>
        <pt x="284" y="1447" on="1"/>
      </contour>
    </TTGlyph>
    <TTGlyph name="tehmeemisolatedarabic" xMin="142" yMin="226" xMax="842" yMax="1588">
      <contour>
        <pt x="142" y="226" on="1"/>
        <pt x="142" y="1588" on="1"/>
        <pt x="842" y="1588" on="1"/>
        <pt x="842" y="226" on="1"/>
      </contour>
      <contour>
        <pt x="284" y="368" on="1"/>
        <pt x="700" y="368" on="1"/>
        <pt x="700" y="1447" on="1"/>
        <pt x="284" y="1447" on="1"/>
      </contour>
    </TTGlyph>
    <TTGlyph name="tehnoonfinalarabic" xMin="142" yMin="226" xMax="842" yMax="1588">
      <contour>
        <pt x="142" y="226" on="1"/>
        <pt x="142" y="1588" on="1"/>
        <pt x="842" y="1588" on="1"/>
        <pt x="842" y="226" on="1"/>
      </contour>
      <contour>
        <pt x="284" y="368" on="1"/>
        <pt x="700" y="368" on="1"/>
        <pt x="700" y="1447" on="1"/>
        <pt x="284" y="1447" on="1"/>
      </contour>
    </TTGlyph>
    <TTGlyph name="tehringfinal" xMin="142" yMin="226" xMax="842" yMax="1588">
      <contour>
        <pt x="142" y="226" on="1"/>
        <pt x="142" y="1588" on="1"/>
        <pt x="842" y="1588" on="1"/>
        <pt x="842" y="226" on="1"/>
      </contour>
      <contour>
        <pt x="284" y="368" on="1"/>
        <pt x="700" y="368" on="1"/>
        <pt x="700" y="1447" on="1"/>
        <pt x="284" y="1447" on="1"/>
      </contour>
    </TTGlyph>
    <TTGlyph name="tehringinitial" xMin="142" yMin="226" xMax="842" yMax="1588">
      <contour>
        <pt x="142" y="226" on="1"/>
        <pt x="142" y="1588" on="1"/>
        <pt x="842" y="1588" on="1"/>
        <pt x="842" y="226" on="1"/>
      </contour>
      <contour>
        <pt x="284" y="368" on="1"/>
        <pt x="700" y="368" on="1"/>
        <pt x="700" y="1447" on="1"/>
        <pt x="284" y="1447" on="1"/>
      </contour>
    </TTGlyph>
    <TTGlyph name="tehringmedial" xMin="142" yMin="226" xMax="842" yMax="1588">
      <contour>
        <pt x="142" y="226" on="1"/>
        <pt x="142" y="1588" on="1"/>
        <pt x="842" y="1588" on="1"/>
        <pt x="842" y="226" on="1"/>
      </contour>
      <contour>
        <pt x="284" y="368" on="1"/>
        <pt x="700" y="368" on="1"/>
        <pt x="700" y="1447" on="1"/>
        <pt x="284" y="1447" on="1"/>
      </contour>
    </TTGlyph>
    <TTGlyph name="ttehfinalarabic" xMin="142" yMin="226" xMax="842" yMax="1588">
      <contour>
        <pt x="142" y="226" on="1"/>
        <pt x="142" y="1588" on="1"/>
        <pt x="842" y="1588" on="1"/>
        <pt x="842" y="226" on="1"/>
      </contour>
      <contour>
        <pt x="284" y="368" on="1"/>
        <pt x="700" y="368" on="1"/>
        <pt x="700" y="1447" on="1"/>
        <pt x="284" y="1447" on="1"/>
      </contour>
    </TTGlyph>
    <TTGlyph name="ttehinitialarabic" xMin="142" yMin="226" xMax="842" yMax="1588">
      <contour>
        <pt x="142" y="226" on="1"/>
        <pt x="142" y="1588" on="1"/>
        <pt x="842" y="1588" on="1"/>
        <pt x="842" y="226" on="1"/>
      </contour>
      <contour>
        <pt x="284" y="368" on="1"/>
        <pt x="700" y="368" on="1"/>
        <pt x="700" y="1447" on="1"/>
        <pt x="284" y="1447" on="1"/>
      </contour>
    </TTGlyph>
    <TTGlyph name="ttehmedialarabic" xMin="142" yMin="226" xMax="842" yMax="1588">
      <contour>
        <pt x="142" y="226" on="1"/>
        <pt x="142" y="1588" on="1"/>
        <pt x="842" y="1588" on="1"/>
        <pt x="842" y="226" on="1"/>
      </contour>
      <contour>
        <pt x="284" y="368" on="1"/>
        <pt x="700" y="368" on="1"/>
        <pt x="700" y="1447" on="1"/>
        <pt x="284" y="1447" on="1"/>
      </contour>
    </TTGlyph>
    <TTGlyph name="uni000D" xMin="142" yMin="226" xMax="842" yMax="1588">
      <contour>
        <pt x="142" y="226" on="1"/>
        <pt x="142" y="1588" on="1"/>
        <pt x="842" y="1588" on="1"/>
        <pt x="842" y="226" on="1"/>
      </contour>
      <contour>
        <pt x="284" y="368" on="1"/>
        <pt x="700" y="368" on="1"/>
        <pt x="700" y="1447" on="1"/>
        <pt x="284" y="1447" on="1"/>
      </contour>
    </TTGlyph>
    <TTGlyph name="uni00A0" xMin="142" yMin="226" xMax="842" yMax="1588">
      <contour>
        <pt x="142" y="226" on="1"/>
        <pt x="142" y="1588" on="1"/>
        <pt x="842" y="1588" on="1"/>
        <pt x="842" y="226" on="1"/>
      </contour>
      <contour>
        <pt x="284" y="368" on="1"/>
        <pt x="700" y="368" on="1"/>
        <pt x="700" y="1447" on="1"/>
        <pt x="284" y="1447" on="1"/>
      </contour>
    </TTGlyph>
    <TTGlyph name="uni00AD" xMin="142" yMin="226" xMax="842" yMax="1588">
      <contour>
        <pt x="142" y="226" on="1"/>
        <pt x="142" y="1588" on="1"/>
        <pt x="842" y="1588" on="1"/>
        <pt x="842" y="226" on="1"/>
      </contour>
      <contour>
        <pt x="284" y="368" on="1"/>
        <pt x="700" y="368" on="1"/>
        <pt x="700" y="1447" on="1"/>
        <pt x="284" y="1447" on="1"/>
      </contour>
    </TTGlyph>
    <TTGlyph name="uni0653" xMin="142" yMin="226" xMax="842" yMax="1588">
      <contour>
        <pt x="142" y="226" on="1"/>
        <pt x="142" y="1588" on="1"/>
        <pt x="842" y="1588" on="1"/>
        <pt x="842" y="226" on="1"/>
      </contour>
      <contour>
        <pt x="284" y="368" on="1"/>
        <pt x="700" y="368" on="1"/>
        <pt x="700" y="1447" on="1"/>
        <pt x="284" y="1447" on="1"/>
      </contour>
    </TTGlyph>
    <TTGlyph name="uni0654" xMin="142" yMin="226" xMax="842" yMax="1588">
      <contour>
        <pt x="142" y="226" on="1"/>
        <pt x="142" y="1588" on="1"/>
        <pt x="842" y="1588" on="1"/>
        <pt x="842" y="226" on="1"/>
      </contour>
      <contour>
        <pt x="284" y="368" on="1"/>
        <pt x="700" y="368" on="1"/>
        <pt x="700" y="1447" on="1"/>
        <pt x="284" y="1447" on="1"/>
      </contour>
    </TTGlyph>
    <TTGlyph name="uni0655" xMin="142" yMin="226" xMax="842" yMax="1588">
      <contour>
        <pt x="142" y="226" on="1"/>
        <pt x="142" y="1588" on="1"/>
        <pt x="842" y="1588" on="1"/>
        <pt x="842" y="226" on="1"/>
      </contour>
      <contour>
        <pt x="284" y="368" on="1"/>
        <pt x="700" y="368" on="1"/>
        <pt x="700" y="1447" on="1"/>
        <pt x="284" y="1447" on="1"/>
      </contour>
    </TTGlyph>
    <TTGlyph name="uni066B" xMin="142" yMin="226" xMax="842" yMax="1588">
      <contour>
        <pt x="142" y="226" on="1"/>
        <pt x="142" y="1588" on="1"/>
        <pt x="842" y="1588" on="1"/>
        <pt x="842" y="226" on="1"/>
      </contour>
      <contour>
        <pt x="284" y="368" on="1"/>
        <pt x="700" y="368" on="1"/>
        <pt x="700" y="1447" on="1"/>
        <pt x="284" y="1447" on="1"/>
      </contour>
    </TTGlyph>
    <TTGlyph name="uni066C" xMin="142" yMin="226" xMax="842" yMax="1588">
      <contour>
        <pt x="142" y="226" on="1"/>
        <pt x="142" y="1588" on="1"/>
        <pt x="842" y="1588" on="1"/>
        <pt x="842" y="226" on="1"/>
      </contour>
      <contour>
        <pt x="284" y="368" on="1"/>
        <pt x="700" y="368" on="1"/>
        <pt x="700" y="1447" on="1"/>
        <pt x="284" y="1447" on="1"/>
      </contour>
    </TTGlyph>
    <TTGlyph name="uni0671" xMin="142" yMin="226" xMax="842" yMax="1588">
      <contour>
        <pt x="142" y="226" on="1"/>
        <pt x="142" y="1588" on="1"/>
        <pt x="842" y="1588" on="1"/>
        <pt x="842" y="226" on="1"/>
      </contour>
      <contour>
        <pt x="284" y="368" on="1"/>
        <pt x="700" y="368" on="1"/>
        <pt x="700" y="1447" on="1"/>
        <pt x="284" y="1447" on="1"/>
      </contour>
    </TTGlyph>
    <TTGlyph name="uni067C" xMin="142" yMin="226" xMax="842" yMax="1588">
      <contour>
        <pt x="142" y="226" on="1"/>
        <pt x="142" y="1588" on="1"/>
        <pt x="842" y="1588" on="1"/>
        <pt x="842" y="226" on="1"/>
      </contour>
      <contour>
        <pt x="284" y="368" on="1"/>
        <pt x="700" y="368" on="1"/>
        <pt x="700" y="1447" on="1"/>
        <pt x="284" y="1447" on="1"/>
      </contour>
    </TTGlyph>
    <TTGlyph name="uni0681" xMin="142" yMin="226" xMax="842" yMax="1588">
      <contour>
        <pt x="142" y="226" on="1"/>
        <pt x="142" y="1588" on="1"/>
        <pt x="842" y="1588" on="1"/>
        <pt x="842" y="226" on="1"/>
      </contour>
      <contour>
        <pt x="284" y="368" on="1"/>
        <pt x="700" y="368" on="1"/>
        <pt x="700" y="1447" on="1"/>
        <pt x="284" y="1447" on="1"/>
      </contour>
    </TTGlyph>
    <TTGlyph name="uni0685" xMin="142" yMin="226" xMax="842" yMax="1588">
      <contour>
        <pt x="142" y="226" on="1"/>
        <pt x="142" y="1588" on="1"/>
        <pt x="842" y="1588" on="1"/>
        <pt x="842" y="226" on="1"/>
      </contour>
      <contour>
        <pt x="284" y="368" on="1"/>
        <pt x="700" y="368" on="1"/>
        <pt x="700" y="1447" on="1"/>
        <pt x="284" y="1447" on="1"/>
      </contour>
    </TTGlyph>
    <TTGlyph name="uni0689" xMin="142" yMin="226" xMax="842" yMax="1588">
      <contour>
        <pt x="142" y="226" on="1"/>
        <pt x="142" y="1588" on="1"/>
        <pt x="842" y="1588" on="1"/>
        <pt x="842" y="226" on="1"/>
      </contour>
      <contour>
        <pt x="284" y="368" on="1"/>
        <pt x="700" y="368" on="1"/>
        <pt x="700" y="1447" on="1"/>
        <pt x="284" y="1447" on="1"/>
      </contour>
    </TTGlyph>
    <TTGlyph name="uni0693" xMin="142" yMin="226" xMax="842" yMax="1588">
      <contour>
        <pt x="142" y="226" on="1"/>
        <pt x="142" y="1588" on="1"/>
        <pt x="842" y="1588" on="1"/>
        <pt x="842" y="226" on="1"/>
      </contour>
      <contour>
        <pt x="284" y="368" on="1"/>
        <pt x="700" y="368" on="1"/>
        <pt x="700" y="1447" on="1"/>
        <pt x="284" y="1447" on="1"/>
      </contour>
    </TTGlyph>
    <TTGlyph name="uni0696" xMin="142" yMin="226" xMax="842" yMax="1588">
      <contour>
        <pt x="142" y="226" on="1"/>
        <pt x="142" y="1588" on="1"/>
        <pt x="842" y="1588" on="1"/>
        <pt x="842" y="226" on="1"/>
      </contour>
      <contour>
        <pt x="284" y="368" on="1"/>
        <pt x="700" y="368" on="1"/>
        <pt x="700" y="1447" on="1"/>
        <pt x="284" y="1447" on="1"/>
      </contour>
    </TTGlyph>
    <TTGlyph name="uni069A" xMin="142" yMin="226" xMax="842" yMax="1588">
      <contour>
        <pt x="142" y="226" on="1"/>
        <pt x="142" y="1588" on="1"/>
        <pt x="842" y="1588" on="1"/>
        <pt x="842" y="226" on="1"/>
      </contour>
      <contour>
        <pt x="284" y="368" on="1"/>
        <pt x="700" y="368" on="1"/>
        <pt x="700" y="1447" on="1"/>
        <pt x="284" y="1447" on="1"/>
      </contour>
    </TTGlyph>
    <TTGlyph name="uni06A9" xMin="142" yMin="226" xMax="842" yMax="1588">
      <contour>
        <pt x="142" y="226" on="1"/>
        <pt x="142" y="1588" on="1"/>
        <pt x="842" y="1588" on="1"/>
        <pt x="842" y="226" on="1"/>
      </contour>
      <contour>
        <pt x="284" y="368" on="1"/>
        <pt x="700" y="368" on="1"/>
        <pt x="700" y="1447" on="1"/>
        <pt x="284" y="1447" on="1"/>
      </contour>
    </TTGlyph>
    <TTGlyph name="uni06AB" xMin="142" yMin="226" xMax="842" yMax="1588">
      <contour>
        <pt x="142" y="226" on="1"/>
        <pt x="142" y="1588" on="1"/>
        <pt x="842" y="1588" on="1"/>
        <pt x="842" y="226" on="1"/>
      </contour>
      <contour>
        <pt x="284" y="368" on="1"/>
        <pt x="700" y="368" on="1"/>
        <pt x="700" y="1447" on="1"/>
        <pt x="284" y="1447" on="1"/>
      </contour>
    </TTGlyph>
    <TTGlyph name="uni06B7" xMin="142" yMin="226" xMax="842" yMax="1588">
      <contour>
        <pt x="142" y="226" on="1"/>
        <pt x="142" y="1588" on="1"/>
        <pt x="842" y="1588" on="1"/>
        <pt x="842" y="226" on="1"/>
      </contour>
      <contour>
        <pt x="284" y="368" on="1"/>
        <pt x="700" y="368" on="1"/>
        <pt x="700" y="1447" on="1"/>
        <pt x="284" y="1447" on="1"/>
      </contour>
    </TTGlyph>
    <TTGlyph name="uni06BC" xMin="142" yMin="226" xMax="842" yMax="1588">
      <contour>
        <pt x="142" y="226" on="1"/>
        <pt x="142" y="1588" on="1"/>
        <pt x="842" y="1588" on="1"/>
        <pt x="842" y="226" on="1"/>
      </contour>
      <contour>
        <pt x="284" y="368" on="1"/>
        <pt x="700" y="368" on="1"/>
        <pt x="700" y="1447" on="1"/>
        <pt x="284" y="1447" on="1"/>
      </contour>
    </TTGlyph>
    <TTGlyph name="uni06BE" xMin="142" yMin="226" xMax="842" yMax="1588">
      <contour>
        <pt x="142" y="226" on="1"/>
        <pt x="142" y="1588" on="1"/>
        <pt x="842" y="1588" on="1"/>
        <pt x="842" y="226" on="1"/>
      </contour>
      <contour>
        <pt x="284" y="368" on="1"/>
        <pt x="700" y="368" on="1"/>
        <pt x="700" y="1447" on="1"/>
        <pt x="284" y="1447" on="1"/>
      </contour>
    </TTGlyph>
    <TTGlyph name="uni06C2" xMin="142" yMin="226" xMax="842" yMax="1588">
      <contour>
        <pt x="142" y="226" on="1"/>
        <pt x="142" y="1588" on="1"/>
        <pt x="842" y="1588" on="1"/>
        <pt x="842" y="226" on="1"/>
      </contour>
      <contour>
        <pt x="284" y="368" on="1"/>
        <pt x="700" y="368" on="1"/>
        <pt x="700" y="1447" on="1"/>
        <pt x="284" y="1447" on="1"/>
      </contour>
    </TTGlyph>
    <TTGlyph name="uni06C7" xMin="142" yMin="226" xMax="842" yMax="1588">
      <contour>
        <pt x="142" y="226" on="1"/>
        <pt x="142" y="1588" on="1"/>
        <pt x="842" y="1588" on="1"/>
        <pt x="842" y="226" on="1"/>
      </contour>
      <contour>
        <pt x="284" y="368" on="1"/>
        <pt x="700" y="368" on="1"/>
        <pt x="700" y="1447" on="1"/>
        <pt x="284" y="1447" on="1"/>
      </contour>
    </TTGlyph>
    <TTGlyph name="uni06C9" xMin="142" yMin="226" xMax="842" yMax="1588">
      <contour>
        <pt x="142" y="226" on="1"/>
        <pt x="142" y="1588" on="1"/>
        <pt x="842" y="1588" on="1"/>
        <pt x="842" y="226" on="1"/>
      </contour>
      <contour>
        <pt x="284" y="368" on="1"/>
        <pt x="700" y="368" on="1"/>
        <pt x="700" y="1447" on="1"/>
        <pt x="284" y="1447" on="1"/>
      </contour>
    </TTGlyph>
    <TTGlyph name="uni06CC" xMin="142" yMin="226" xMax="842" yMax="1588">
      <contour>
        <pt x="142" y="226" on="1"/>
        <pt x="142" y="1588" on="1"/>
        <pt x="842" y="1588" on="1"/>
        <pt x="842" y="226" on="1"/>
      </contour>
      <contour>
        <pt x="284" y="368" on="1"/>
        <pt x="700" y="368" on="1"/>
        <pt x="700" y="1447" on="1"/>
        <pt x="284" y="1447" on="1"/>
      </contour>
    </TTGlyph>
    <TTGlyph name="uni06CD" xMin="142" yMin="226" xMax="842" yMax="1588">
      <contour>
        <pt x="142" y="226" on="1"/>
        <pt x="142" y="1588" on="1"/>
        <pt x="842" y="1588" on="1"/>
        <pt x="842" y="226" on="1"/>
      </contour>
      <contour>
        <pt x="284" y="368" on="1"/>
        <pt x="700" y="368" on="1"/>
        <pt x="700" y="1447" on="1"/>
        <pt x="284" y="1447" on="1"/>
      </contour>
    </TTGlyph>
    <TTGlyph name="uni06D0" xMin="142" yMin="226" xMax="842" yMax="1588">
      <contour>
        <pt x="142" y="226" on="1"/>
        <pt x="142" y="1588" on="1"/>
        <pt x="842" y="1588" on="1"/>
        <pt x="842" y="226" on="1"/>
      </contour>
      <contour>
        <pt x="284" y="368" on="1"/>
        <pt x="700" y="368" on="1"/>
        <pt x="700" y="1447" on="1"/>
        <pt x="284" y="1447" on="1"/>
      </contour>
    </TTGlyph>
    <TTGlyph name="uni06D1" xMin="142" yMin="226" xMax="842" yMax="1588">
      <contour>
        <pt x="142" y="226" on="1"/>
        <pt x="142" y="1588" on="1"/>
        <pt x="842" y="1588" on="1"/>
        <pt x="842" y="226" on="1"/>
      </contour>
      <contour>
        <pt x="284" y="368" on="1"/>
        <pt x="700" y="368" on="1"/>
        <pt x="700" y="1447" on="1"/>
        <pt x="284" y="1447" on="1"/>
      </contour>
    </TTGlyph>
    <TTGlyph name="uni06D3" xMin="142" yMin="226" xMax="842" yMax="1588">
      <contour>
        <pt x="142" y="226" on="1"/>
        <pt x="142" y="1588" on="1"/>
        <pt x="842" y="1588" on="1"/>
        <pt x="842" y="226" on="1"/>
      </contour>
      <contour>
        <pt x="284" y="368" on="1"/>
        <pt x="700" y="368" on="1"/>
        <pt x="700" y="1447" on="1"/>
        <pt x="284" y="1447" on="1"/>
      </contour>
    </TTGlyph>
    <TTGlyph name="uni06D4" xMin="142" yMin="226" xMax="842" yMax="1588">
      <contour>
        <pt x="142" y="226" on="1"/>
        <pt x="142" y="1588" on="1"/>
        <pt x="842" y="1588" on="1"/>
        <pt x="842" y="226" on="1"/>
      </contour>
      <contour>
        <pt x="284" y="368" on="1"/>
        <pt x="700" y="368" on="1"/>
        <pt x="700" y="1447" on="1"/>
        <pt x="284" y="1447" on="1"/>
      </contour>
    </TTGlyph>
    <TTGlyph name="uni06F0" xMin="142" yMin="226" xMax="842" yMax="1588">
      <contour>
        <pt x="142" y="226" on="1"/>
        <pt x="142" y="1588" on="1"/>
        <pt x="842" y="1588" on="1"/>
        <pt x="842" y="226" on="1"/>
      </contour>
      <contour>
        <pt x="284" y="368" on="1"/>
        <pt x="700" y="368" on="1"/>
        <pt x="700" y="1447" on="1"/>
        <pt x="284" y="1447" on="1"/>
      </contour>
    </TTGlyph>
    <TTGlyph name="uni06F1" xMin="142" yMin="226" xMax="842" yMax="1588">
      <contour>
        <pt x="142" y="226" on="1"/>
        <pt x="142" y="1588" on="1"/>
        <pt x="842" y="1588" on="1"/>
        <pt x="842" y="226" on="1"/>
      </contour>
      <contour>
        <pt x="284" y="368" on="1"/>
        <pt x="700" y="368" on="1"/>
        <pt x="700" y="1447" on="1"/>
        <pt x="284" y="1447" on="1"/>
      </contour>
    </TTGlyph>
    <TTGlyph name="uni06F2" xMin="142" yMin="226" xMax="842" yMax="1588">
      <contour>
        <pt x="142" y="226" on="1"/>
        <pt x="142" y="1588" on="1"/>
        <pt x="842" y="1588" on="1"/>
        <pt x="842" y="226" on="1"/>
      </contour>
      <contour>
        <pt x="284" y="368" on="1"/>
        <pt x="700" y="368" on="1"/>
        <pt x="700" y="1447" on="1"/>
        <pt x="284" y="1447" on="1"/>
      </contour>
    </TTGlyph>
    <TTGlyph name="uni06F3" xMin="142" yMin="226" xMax="842" yMax="1588">
      <contour>
        <pt x="142" y="226" on="1"/>
        <pt x="142" y="1588" on="1"/>
        <pt x="842" y="1588" on="1"/>
        <pt x="842" y="226" on="1"/>
      </contour>
      <contour>
        <pt x="284" y="368" on="1"/>
        <pt x="700" y="368" on="1"/>
        <pt x="700" y="1447" on="1"/>
        <pt x="284" y="1447" on="1"/>
      </contour>
    </TTGlyph>
    <TTGlyph name="uni06F4" xMin="142" yMin="226" xMax="842" yMax="1588">
      <contour>
        <pt x="142" y="226" on="1"/>
        <pt x="142" y="1588" on="1"/>
        <pt x="842" y="1588" on="1"/>
        <pt x="842" y="226" on="1"/>
      </contour>
      <contour>
        <pt x="284" y="368" on="1"/>
        <pt x="700" y="368" on="1"/>
        <pt x="700" y="1447" on="1"/>
        <pt x="284" y="1447" on="1"/>
      </contour>
    </TTGlyph>
    <TTGlyph name="uni06F5" xMin="142" yMin="226" xMax="842" yMax="1588">
      <contour>
        <pt x="142" y="226" on="1"/>
        <pt x="142" y="1588" on="1"/>
        <pt x="842" y="1588" on="1"/>
        <pt x="842" y="226" on="1"/>
      </contour>
      <contour>
        <pt x="284" y="368" on="1"/>
        <pt x="700" y="368" on="1"/>
        <pt x="700" y="1447" on="1"/>
        <pt x="284" y="1447" on="1"/>
      </contour>
    </TTGlyph>
    <TTGlyph name="uni06F6" xMin="142" yMin="226" xMax="842" yMax="1588">
      <contour>
        <pt x="142" y="226" on="1"/>
        <pt x="142" y="1588" on="1"/>
        <pt x="842" y="1588" on="1"/>
        <pt x="842" y="226" on="1"/>
      </contour>
      <contour>
        <pt x="284" y="368" on="1"/>
        <pt x="700" y="368" on="1"/>
        <pt x="700" y="1447" on="1"/>
        <pt x="284" y="1447" on="1"/>
      </contour>
    </TTGlyph>
    <TTGlyph name="uni06F7" xMin="142" yMin="226" xMax="842" yMax="1588">
      <contour>
        <pt x="142" y="226" on="1"/>
        <pt x="142" y="1588" on="1"/>
        <pt x="842" y="1588" on="1"/>
        <pt x="842" y="226" on="1"/>
      </contour>
      <contour>
        <pt x="284" y="368" on="1"/>
        <pt x="700" y="368" on="1"/>
        <pt x="700" y="1447" on="1"/>
        <pt x="284" y="1447" on="1"/>
      </contour>
    </TTGlyph>
    <TTGlyph name="uni06F8" xMin="142" yMin="226" xMax="842" yMax="1588">
      <contour>
        <pt x="142" y="226" on="1"/>
        <pt x="142" y="1588" on="1"/>
        <pt x="842" y="1588" on="1"/>
        <pt x="842" y="226" on="1"/>
      </contour>
      <contour>
        <pt x="284" y="368" on="1"/>
        <pt x="700" y="368" on="1"/>
        <pt x="700" y="1447" on="1"/>
        <pt x="284" y="1447" on="1"/>
      </contour>
    </TTGlyph>
    <TTGlyph name="uni06F9" xMin="142" yMin="226" xMax="842" yMax="1588">
      <contour>
        <pt x="142" y="226" on="1"/>
        <pt x="142" y="1588" on="1"/>
        <pt x="842" y="1588" on="1"/>
        <pt x="842" y="226" on="1"/>
      </contour>
      <contour>
        <pt x="284" y="368" on="1"/>
        <pt x="700" y="368" on="1"/>
        <pt x="700" y="1447" on="1"/>
        <pt x="284" y="1447" on="1"/>
      </contour>
    </TTGlyph>
    <TTGlyph name="uni2010" xMin="226" yMin="-937" xMax="3011" yMax="1488">
      <contour>
        <pt x="2837" y="1397" on="1"/>
        <pt x="2837" y="1346" on="0"/>
        <pt x="2715" y="1267" on="1"/>
        <pt x="2647" y="1228" on="0"/>
        <pt x="2580" y="1189" on="1"/>
        <pt x="2422" y="1068" on="0"/>
        <pt x="2388" y="1068" on="1"/>
        <pt x="2383" y="1068" on="0"/>
        <pt x="2379" y="1069" on="1"/>
        <pt x="2367" y="1082" on="0"/>
        <pt x="2367" y="1104" on="1"/>
        <pt x="2367" y="1167" on="0"/>
        <pt x="2800" y="1427" on="1"/>
        <pt x="2837" y="1427" on="0"/>
      </contour>
      <contour>
        <pt x="2314" y="1430" on="1"/>
        <pt x="2178" y="1315" on="0"/>
        <pt x="1818" y="1110" on="1"/>
        <pt x="1810" y="1114" on="0"/>
        <pt x="1793" y="1125" on="0"/>
        <pt x="1793" y="1140" on="1"/>
        <pt x="1793" y="1185" on="0"/>
        <pt x="2015" y="1330" on="1"/>
        <pt x="2141" y="1409" on="0"/>
        <pt x="2267" y="1488" on="1"/>
        <pt x="2314" y="1488" on="1"/>
      </contour>
      <contour>
        <pt x="1874" y="786" on="1"/>
        <pt x="1874" y="740" on="0"/>
        <pt x="1760" y="671" on="1"/>
        <pt x="1655" y="608" on="0"/>
        <pt x="1619" y="608" on="1"/>
        <pt x="1604" y="608" on="0"/>
        <pt x="1583" y="619" on="0"/>
        <pt x="1579" y="619" on="1"/>
        <pt x="1579" y="667" on="1"/>
        <pt x="1615" y="686" on="0"/>
        <pt x="1691" y="741" on="1"/>
        <pt x="1684" y="751" on="0"/>
        <pt x="1655" y="751" on="1"/>
        <pt x="1624" y="751" on="0"/>
        <pt x="1602" y="736" on="1"/>
        <pt x="1572" y="714" on="0"/>
        <pt x="1542" y="690" on="1"/>
        <pt x="1533" y="695" on="0"/>
        <pt x="1516" y="705" on="0"/>
        <pt x="1516" y="721" on="1"/>
        <pt x="1516" y="734" on="0"/>
        <pt x="1605" y="843" on="0"/>
        <pt x="1622" y="850" on="1"/>
        <pt x="1660" y="864" on="0"/>
        <pt x="1701" y="864" on="1"/>
        <pt x="1714" y="864" on="0"/>
        <pt x="1778" y="846" on="1"/>
        <pt x="1853" y="826" on="0"/>
        <pt x="1874" y="821" on="1"/>
      </contour>
      <contour>
        <pt x="3011" y="342" on="1"/>
        <pt x="3011" y="226" on="0"/>
        <pt x="2825" y="113" on="1"/>
        <pt x="2688" y="29" on="0"/>
        <pt x="2588" y="7" on="1"/>
        <pt x="2529" y="-6" on="0"/>
        <pt x="2417" y="-6" on="1"/>
        <pt x="2245" y="-6" on="0"/>
        <pt x="2155" y="127" on="1"/>
        <pt x="2127" y="109" on="0"/>
        <pt x="2033" y="28" on="1"/>
        <pt x="1995" y="-6" on="0"/>
        <pt x="1916" y="-6" on="1"/>
        <pt x="1850" y="-6" on="0"/>
        <pt x="1827" y="13" on="1"/>
        <pt x="1808" y="30" on="0"/>
        <pt x="1755" y="127" on="1"/>
        <pt x="1653" y="97" on="0"/>
        <pt x="1462" y="21" on="1"/>
        <pt x="1375" y="-25" on="0"/>
        <pt x="1355" y="-144" on="1"/>
        <pt x="1352" y="-159" on="0"/>
        <pt x="1352" y="-177" on="1"/>
        <pt x="1352" y="-204" on="0"/>
        <pt x="1362" y="-278" on="1"/>
        <pt x="1371" y="-346" on="0"/>
        <pt x="1370" y="-380" on="1"/>
        <pt x="1366" y="-426" on="0"/>
        <pt x="1313" y="-488" on="1"/>
        <pt x="1269" y="-534" on="0"/>
        <pt x="1225" y="-579" on="1"/>
        <pt x="1141" y="-498" on="0"/>
        <pt x="1124" y="-277" on="1"/>
        <pt x="1116" y="-183" on="0"/>
        <pt x="1120" y="-154" on="1"/>
        <pt x="1134" y="-110" on="0"/>
        <pt x="1148" y="-40" on="1"/>
        <pt x="1148" y="-13" on="1"/>
        <pt x="1141" y="-6" on="0"/>
        <pt x="1122" y="-6" on="1"/>
        <pt x="1114" y="-6" on="0"/>
        <pt x="1006" y="-17" on="1"/>
        <pt x="890" y="-27" on="0"/>
        <pt x="838" y="-30" on="1"/>
        <pt x="834" y="-31" on="0"/>
        <pt x="822" y="-44" on="1"/>
        <pt x="822" y="-70" on="0"/>
        <pt x="817" y="-124" on="1"/>
        <pt x="814" y="-141" on="0"/>
        <pt x="781" y="-191" on="1"/>
        <pt x="743" y="-252" on="0"/>
        <pt x="713" y="-252" on="1"/>
        <pt x="699" y="-252" on="0"/>
        <pt x="576" y="-147" on="0"/>
        <pt x="559" y="-105" on="0"/>
        <pt x="546" y="-63" on="1"/>
        <pt x="538" y="-14" on="0"/>
        <pt x="554" y="49" on="1"/>
        <pt x="541" y="66" on="0"/>
        <pt x="498" y="66" on="1"/>
        <pt x="433" y="66" on="0"/>
        <pt x="378" y="29" on="1"/>
        <pt x="319" y="-8" on="0"/>
        <pt x="319" y="-57" on="1"/>
        <pt x="319" y="-54" on="0"/>
        <pt x="410" y="-644" on="0"/>
        <pt x="410" y="-728" on="1"/>
        <pt x="410" y="-829" on="0"/>
        <pt x="378" y="-925" on="1"/>
        <pt x="371" y="-926" on="0"/>
        <pt x="354" y="-937" on="1"/>
        <pt x="327" y="-887" on="0"/>
        <pt x="315" y="-740" on="1"/>
        <pt x="299" y="-542" on="0"/>
        <pt x="294" y="-513" on="1"/>
        <pt x="226" y="-130" on="0"/>
        <pt x="226" y="-113" on="1"/>
        <pt x="226" y="20" on="0"/>
        <pt x="420" y="238" on="0"/>
        <pt x="538" y="242" on="1"/>
        <pt x="553" y="242" on="0"/>
        <pt x="613" y="270" on="0"/>
        <pt x="626" y="270" on="1"/>
        <pt x="638" y="270" on="0"/>
        <pt x="688" y="229" on="1"/>
        <pt x="746" y="180" on="0"/>
        <pt x="767" y="170" on="1"/>
        <pt x="846" y="127" on="0"/>
        <pt x="953" y="127" on="1"/>
        <pt x="1045" y="127" on="1"/>
        <pt x="1166" y="127" on="0"/>
        <pt x="1242" y="179" on="1"/>
        <pt x="1269" y="198" on="0"/>
        <pt x="1315" y="253" on="1"/>
        <pt x="1363" y="312" on="0"/>
        <pt x="1387" y="331" on="1"/>
        <pt x="1433" y="331" on="1"/>
        <pt x="1445" y="329" on="0"/>
        <pt x="1445" y="306" on="1"/>
        <pt x="1445" y="261" on="0"/>
        <pt x="1353" y="139" on="1"/>
        <pt x="1302" y="73" on="0"/>
        <pt x="1252" y="7" on="1"/>
        <pt x="1240" y="-18" on="0"/>
        <pt x="1239" y="-52" on="1"/>
        <pt x="1239" y="-79" on="1"/>
        <pt x="1275" y="-69" on="0"/>
        <pt x="1311" y="-8" on="1"/>
        <pt x="1356" y="72" on="0"/>
        <pt x="1477" y="172" on="0"/>
        <pt x="1573" y="215" on="1"/>
        <pt x="1673" y="260" on="0"/>
        <pt x="1732" y="260" on="1"/>
        <pt x="1779" y="260" on="0"/>
        <pt x="1889" y="157" on="0"/>
        <pt x="1951" y="157" on="1"/>
        <pt x="2076" y="157" on="0"/>
        <pt x="2110" y="270" on="1"/>
        <pt x="2008" y="956" on="1"/>
        <pt x="2012" y="1020" on="0"/>
        <pt x="2016" y="1035" on="1"/>
        <pt x="2027" y="1077" on="0"/>
        <pt x="2064" y="1110" on="1"/>
        <pt x="2081" y="1097" on="1"/>
        <pt x="2102" y="1042" on="0"/>
        <pt x="2106" y="1013" on="1"/>
        <pt x="2131" y="821" on="0"/>
        <pt x="2155" y="628" on="1"/>
        <pt x="2189" y="403" on="0"/>
        <pt x="2256" y="247" on="1"/>
        <pt x="2279" y="228" on="0"/>
        <pt x="2322" y="188" on="1"/>
        <pt x="2368" y="188" on="1"/>
        <pt x="2375" y="205" on="0"/>
        <pt x="2366" y="231" on="1"/>
        <pt x="2356" y="262" on="0"/>
        <pt x="2356" y="270" on="1"/>
        <pt x="2356" y="302" on="0"/>
        <pt x="2390" y="369" on="1"/>
        <pt x="2520" y="628" on="0"/>
        <pt x="2679" y="628" on="1"/>
        <pt x="2740" y="628" on="0"/>
        <pt x="2797" y="583" on="1"/>
        <pt x="2861" y="532" on="0"/>
        <pt x="2888" y="446" on="1"/>
        <pt x="2884" y="446" on="0"/>
        <pt x="2862" y="434" on="0"/>
        <pt x="2847" y="434" on="1"/>
        <pt x="2845" y="434" on="0"/>
        <pt x="2760" y="496" on="0"/>
        <pt x="2709" y="496" on="1"/>
        <pt x="2652" y="496" on="0"/>
        <pt x="2575" y="460" on="1"/>
        <pt x="2489" y="419" on="0"/>
        <pt x="2489" y="373" on="1"/>
        <pt x="2489" y="322" on="0"/>
        <pt x="2624" y="178" on="0"/>
        <pt x="2668" y="178" on="1"/>
        <pt x="2703" y="178" on="0"/>
        <pt x="2847" y="272" on="1"/>
        <pt x="2922" y="322" on="0"/>
        <pt x="2997" y="373" on="1"/>
        <pt x="3011" y="358" on="0"/>
      </contour>
      <contour>
        <pt x="809" y="940" on="1"/>
        <pt x="810" y="852" on="0"/>
        <pt x="509" y="751" on="1"/>
        <pt x="453" y="763" on="1"/>
        <pt x="453" y="810" on="1"/>
        <pt x="505" y="836" on="0"/>
        <pt x="585" y="885" on="1"/>
        <pt x="565" y="905" on="0"/>
        <pt x="513" y="905" on="1"/>
        <pt x="498" y="905" on="0"/>
        <pt x="453" y="877" on="1"/>
        <pt x="392" y="840" on="0"/>
        <pt x="381" y="834" on="1"/>
        <pt x="381" y="868" on="1"/>
        <pt x="380" y="908" on="0"/>
        <pt x="461" y="966" on="1"/>
        <pt x="534" y="1017" on="0"/>
        <pt x="564" y="1017" on="1"/>
        <pt x="636" y="1017" on="0"/>
        <pt x="809" y="975" on="1"/>
      </contour>
      <contour>
        <pt x="1936" y="-421" on="1"/>
        <pt x="1936" y="-449" on="0"/>
        <pt x="1870" y="-518" on="0"/>
        <pt x="1839" y="-518" on="1"/>
        <pt x="1826" y="-518" on="0"/>
        <pt x="1764" y="-487" on="0"/>
        <pt x="1752" y="-487" on="1"/>
        <pt x="1739" y="-487" on="0"/>
        <pt x="1662" y="-539" on="0"/>
        <pt x="1650" y="-539" on="1"/>
        <pt x="1616" y="-539" on="0"/>
        <pt x="1580" y="-501" on="1"/>
        <pt x="1547" y="-466" on="0"/>
        <pt x="1547" y="-446" on="1"/>
        <pt x="1547" y="-418" on="0"/>
        <pt x="1597" y="-378" on="1"/>
        <pt x="1640" y="-344" on="0"/>
        <pt x="1650" y="-344" on="1"/>
        <pt x="1660" y="-344" on="0"/>
        <pt x="1733" y="-385" on="0"/>
        <pt x="1746" y="-385" on="1"/>
        <pt x="1760" y="-385" on="0"/>
        <pt x="1821" y="-334" on="0"/>
        <pt x="1834" y="-334" on="1"/>
        <pt x="1866" y="-334" on="0"/>
        <pt x="1936" y="-396" on="0"/>
      </contour>
      <contour>
        <pt x="1598" y="-610" on="1"/>
        <pt x="1598" y="-626" on="0"/>
        <pt x="1556" y="-679" on="0"/>
        <pt x="1533" y="-689" on="1"/>
        <pt x="1141" y="-845" on="0"/>
        <pt x="1141" y="-845" on="1"/>
        <pt x="1089" y="-845" on="1"/>
        <pt x="1076" y="-832" on="0"/>
        <pt x="1076" y="-815" on="1"/>
        <pt x="1076" y="-759" on="0"/>
        <pt x="1346" y="-669" on="1"/>
        <pt x="1424" y="-634" on="0"/>
        <pt x="1574" y="-579" on="1"/>
        <pt x="1582" y="-584" on="0"/>
        <pt x="1598" y="-594" on="0"/>
      </contour>
    </TTGlyph>
    <TTGlyph name="uni2011" xMin="226" yMin="-937" xMax="3011" yMax="1488">
      <contour>
        <pt x="2837" y="1397" on="1"/>
        <pt x="2837" y="1346" on="0"/>
        <pt x="2715" y="1267" on="1"/>
        <pt x="2647" y="1228" on="0"/>
        <pt x="2580" y="1189" on="1"/>
        <pt x="2422" y="1068" on="0"/>
        <pt x="2388" y="1068" on="1"/>
        <pt x="2383" y="1068" on="0"/>
        <pt x="2379" y="1069" on="1"/>
        <pt x="2367" y="1082" on="0"/>
        <pt x="2367" y="1104" on="1"/>
        <pt x="2367" y="1167" on="0"/>
        <pt x="2800" y="1427" on="1"/>
        <pt x="2837" y="1427" on="0"/>
      </contour>
      <contour>
        <pt x="2314" y="1430" on="1"/>
        <pt x="2178" y="1315" on="0"/>
        <pt x="1818" y="1110" on="1"/>
        <pt x="1810" y="1114" on="0"/>
        <pt x="1793" y="1125" on="0"/>
        <pt x="1793" y="1140" on="1"/>
        <pt x="1793" y="1185" on="0"/>
        <pt x="2015" y="1330" on="1"/>
        <pt x="2141" y="1409" on="0"/>
        <pt x="2267" y="1488" on="1"/>
        <pt x="2314" y="1488" on="1"/>
      </contour>
      <contour>
        <pt x="1874" y="786" on="1"/>
        <pt x="1874" y="740" on="0"/>
        <pt x="1760" y="671" on="1"/>
        <pt x="1655" y="608" on="0"/>
        <pt x="1619" y="608" on="1"/>
        <pt x="1604" y="608" on="0"/>
        <pt x="1583" y="619" on="0"/>
        <pt x="1579" y="619" on="1"/>
        <pt x="1579" y="667" on="1"/>
        <pt x="1615" y="686" on="0"/>
        <pt x="1691" y="741" on="1"/>
        <pt x="1684" y="751" on="0"/>
        <pt x="1655" y="751" on="1"/>
        <pt x="1624" y="751" on="0"/>
        <pt x="1602" y="736" on="1"/>
        <pt x="1572" y="714" on="0"/>
        <pt x="1542" y="690" on="1"/>
        <pt x="1533" y="695" on="0"/>
        <pt x="1516" y="705" on="0"/>
        <pt x="1516" y="721" on="1"/>
        <pt x="1516" y="734" on="0"/>
        <pt x="1605" y="843" on="0"/>
        <pt x="1622" y="850" on="1"/>
        <pt x="1660" y="864" on="0"/>
        <pt x="1701" y="864" on="1"/>
        <pt x="1714" y="864" on="0"/>
        <pt x="1778" y="846" on="1"/>
        <pt x="1853" y="826" on="0"/>
        <pt x="1874" y="821" on="1"/>
      </contour>
      <contour>
        <pt x="3011" y="342" on="1"/>
        <pt x="3011" y="226" on="0"/>
        <pt x="2825" y="113" on="1"/>
        <pt x="2688" y="29" on="0"/>
        <pt x="2588" y="7" on="1"/>
        <pt x="2529" y="-6" on="0"/>
        <pt x="2417" y="-6" on="1"/>
        <pt x="2245" y="-6" on="0"/>
        <pt x="2155" y="127" on="1"/>
        <pt x="2127" y="109" on="0"/>
        <pt x="2033" y="28" on="1"/>
        <pt x="1995" y="-6" on="0"/>
        <pt x="1916" y="-6" on="1"/>
        <pt x="1850" y="-6" on="0"/>
        <pt x="1827" y="13" on="1"/>
        <pt x="1808" y="30" on="0"/>
        <pt x="1755" y="127" on="1"/>
        <pt x="1653" y="97" on="0"/>
        <pt x="1462" y="21" on="1"/>
        <pt x="1375" y="-25" on="0"/>
        <pt x="1355" y="-144" on="1"/>
        <pt x="1352" y="-159" on="0"/>
        <pt x="1352" y="-177" on="1"/>
        <pt x="1352" y="-204" on="0"/>
        <pt x="1362" y="-278" on="1"/>
        <pt x="1371" y="-346" on="0"/>
        <pt x="1370" y="-380" on="1"/>
        <pt x="1366" y="-426" on="0"/>
        <pt x="1313" y="-488" on="1"/>
        <pt x="1269" y="-534" on="0"/>
        <pt x="1225" y="-579" on="1"/>
        <pt x="1141" y="-498" on="0"/>
        <pt x="1124" y="-277" on="1"/>
        <pt x="1116" y="-183" on="0"/>
        <pt x="1120" y="-154" on="1"/>
        <pt x="1134" y="-110" on="0"/>
        <pt x="1148" y="-40" on="1"/>
        <pt x="1148" y="-13" on="1"/>
        <pt x="1141" y="-6" on="0"/>
        <pt x="1122" y="-6" on="1"/>
        <pt x="1114" y="-6" on="0"/>
        <pt x="1006" y="-17" on="1"/>
        <pt x="890" y="-27" on="0"/>
        <pt x="838" y="-30" on="1"/>
        <pt x="834" y="-31" on="0"/>
        <pt x="822" y="-44" on="1"/>
        <pt x="822" y="-70" on="0"/>
        <pt x="817" y="-124" on="1"/>
        <pt x="814" y="-141" on="0"/>
        <pt x="781" y="-191" on="1"/>
        <pt x="743" y="-252" on="0"/>
        <pt x="713" y="-252" on="1"/>
        <pt x="699" y="-252" on="0"/>
        <pt x="576" y="-147" on="0"/>
        <pt x="559" y="-105" on="0"/>
        <pt x="546" y="-63" on="1"/>
        <pt x="538" y="-14" on="0"/>
        <pt x="554" y="49" on="1"/>
        <pt x="541" y="66" on="0"/>
        <pt x="498" y="66" on="1"/>
        <pt x="433" y="66" on="0"/>
        <pt x="378" y="29" on="1"/>
        <pt x="319" y="-8" on="0"/>
        <pt x="319" y="-57" on="1"/>
        <pt x="319" y="-54" on="0"/>
        <pt x="410" y="-644" on="0"/>
        <pt x="410" y="-728" on="1"/>
        <pt x="410" y="-829" on="0"/>
        <pt x="378" y="-925" on="1"/>
        <pt x="371" y="-926" on="0"/>
        <pt x="354" y="-937" on="1"/>
        <pt x="327" y="-887" on="0"/>
        <pt x="315" y="-740" on="1"/>
        <pt x="299" y="-542" on="0"/>
        <pt x="294" y="-513" on="1"/>
        <pt x="226" y="-130" on="0"/>
        <pt x="226" y="-113" on="1"/>
        <pt x="226" y="20" on="0"/>
        <pt x="420" y="238" on="0"/>
        <pt x="538" y="242" on="1"/>
        <pt x="553" y="242" on="0"/>
        <pt x="613" y="270" on="0"/>
        <pt x="626" y="270" on="1"/>
        <pt x="638" y="270" on="0"/>
        <pt x="688" y="229" on="1"/>
        <pt x="746" y="180" on="0"/>
        <pt x="767" y="170" on="1"/>
        <pt x="846" y="127" on="0"/>
        <pt x="953" y="127" on="1"/>
        <pt x="1045" y="127" on="1"/>
        <pt x="1166" y="127" on="0"/>
        <pt x="1242" y="179" on="1"/>
        <pt x="1269" y="198" on="0"/>
        <pt x="1315" y="253" on="1"/>
        <pt x="1363" y="312" on="0"/>
        <pt x="1387" y="331" on="1"/>
        <pt x="1433" y="331" on="1"/>
        <pt x="1445" y="329" on="0"/>
        <pt x="1445" y="306" on="1"/>
        <pt x="1445" y="261" on="0"/>
        <pt x="1353" y="139" on="1"/>
        <pt x="1302" y="73" on="0"/>
        <pt x="1252" y="7" on="1"/>
        <pt x="1240" y="-18" on="0"/>
        <pt x="1239" y="-52" on="1"/>
        <pt x="1239" y="-79" on="1"/>
        <pt x="1275" y="-69" on="0"/>
        <pt x="1311" y="-8" on="1"/>
        <pt x="1356" y="72" on="0"/>
        <pt x="1477" y="172" on="0"/>
        <pt x="1573" y="215" on="1"/>
        <pt x="1673" y="260" on="0"/>
        <pt x="1732" y="260" on="1"/>
        <pt x="1779" y="260" on="0"/>
        <pt x="1889" y="157" on="0"/>
        <pt x="1951" y="157" on="1"/>
        <pt x="2076" y="157" on="0"/>
        <pt x="2110" y="270" on="1"/>
        <pt x="2008" y="956" on="1"/>
        <pt x="2012" y="1020" on="0"/>
        <pt x="2016" y="1035" on="1"/>
        <pt x="2027" y="1077" on="0"/>
        <pt x="2064" y="1110" on="1"/>
        <pt x="2081" y="1097" on="1"/>
        <pt x="2102" y="1042" on="0"/>
        <pt x="2106" y="1013" on="1"/>
        <pt x="2131" y="821" on="0"/>
        <pt x="2155" y="628" on="1"/>
        <pt x="2189" y="403" on="0"/>
        <pt x="2256" y="247" on="1"/>
        <pt x="2279" y="228" on="0"/>
        <pt x="2322" y="188" on="1"/>
        <pt x="2368" y="188" on="1"/>
        <pt x="2375" y="205" on="0"/>
        <pt x="2366" y="231" on="1"/>
        <pt x="2356" y="262" on="0"/>
        <pt x="2356" y="270" on="1"/>
        <pt x="2356" y="302" on="0"/>
        <pt x="2390" y="369" on="1"/>
        <pt x="2520" y="628" on="0"/>
        <pt x="2679" y="628" on="1"/>
        <pt x="2740" y="628" on="0"/>
        <pt x="2797" y="583" on="1"/>
        <pt x="2861" y="532" on="0"/>
        <pt x="2888" y="446" on="1"/>
        <pt x="2884" y="446" on="0"/>
        <pt x="2862" y="434" on="0"/>
        <pt x="2847" y="434" on="1"/>
        <pt x="2845" y="434" on="0"/>
        <pt x="2760" y="496" on="0"/>
        <pt x="2709" y="496" on="1"/>
        <pt x="2652" y="496" on="0"/>
        <pt x="2575" y="460" on="1"/>
        <pt x="2489" y="419" on="0"/>
        <pt x="2489" y="373" on="1"/>
        <pt x="2489" y="322" on="0"/>
        <pt x="2624" y="178" on="0"/>
        <pt x="2668" y="178" on="1"/>
        <pt x="2703" y="178" on="0"/>
        <pt x="2847" y="272" on="1"/>
        <pt x="2922" y="322" on="0"/>
        <pt x="2997" y="373" on="1"/>
        <pt x="3011" y="358" on="0"/>
      </contour>
      <contour>
        <pt x="809" y="940" on="1"/>
        <pt x="810" y="852" on="0"/>
        <pt x="509" y="751" on="1"/>
        <pt x="453" y="763" on="1"/>
        <pt x="453" y="810" on="1"/>
        <pt x="505" y="836" on="0"/>
        <pt x="585" y="885" on="1"/>
        <pt x="565" y="905" on="0"/>
        <pt x="513" y="905" on="1"/>
        <pt x="498" y="905" on="0"/>
        <pt x="453" y="877" on="1"/>
        <pt x="392" y="840" on="0"/>
        <pt x="381" y="834" on="1"/>
        <pt x="381" y="868" on="1"/>
        <pt x="380" y="908" on="0"/>
        <pt x="461" y="966" on="1"/>
        <pt x="534" y="1017" on="0"/>
        <pt x="564" y="1017" on="1"/>
        <pt x="636" y="1017" on="0"/>
        <pt x="809" y="975" on="1"/>
      </contour>
      <contour>
        <pt x="1936" y="-421" on="1"/>
        <pt x="1936" y="-449" on="0"/>
        <pt x="1870" y="-518" on="0"/>
        <pt x="1839" y="-518" on="1"/>
        <pt x="1826" y="-518" on="0"/>
        <pt x="1764" y="-487" on="0"/>
        <pt x="1752" y="-487" on="1"/>
        <pt x="1739" y="-487" on="0"/>
        <pt x="1662" y="-539" on="0"/>
        <pt x="1650" y="-539" on="1"/>
        <pt x="1616" y="-539" on="0"/>
        <pt x="1580" y="-501" on="1"/>
        <pt x="1547" y="-466" on="0"/>
        <pt x="1547" y="-446" on="1"/>
        <pt x="1547" y="-418" on="0"/>
        <pt x="1597" y="-378" on="1"/>
        <pt x="1640" y="-344" on="0"/>
        <pt x="1650" y="-344" on="1"/>
        <pt x="1660" y="-344" on="0"/>
        <pt x="1733" y="-385" on="0"/>
        <pt x="1746" y="-385" on="1"/>
        <pt x="1760" y="-385" on="0"/>
        <pt x="1821" y="-334" on="0"/>
        <pt x="1834" y="-334" on="1"/>
        <pt x="1866" y="-334" on="0"/>
        <pt x="1936" y="-396" on="0"/>
      </contour>
      <contour>
        <pt x="1598" y="-610" on="1"/>
        <pt x="1598" y="-626" on="0"/>
        <pt x="1556" y="-679" on="0"/>
        <pt x="1533" y="-689" on="1"/>
        <pt x="1141" y="-845" on="0"/>
        <pt x="1141" y="-845" on="1"/>
        <pt x="1089" y="-845" on="1"/>
        <pt x="1076" y="-832" on="0"/>
        <pt x="1076" y="-815" on="1"/>
        <pt x="1076" y="-759" on="0"/>
        <pt x="1346" y="-669" on="1"/>
        <pt x="1424" y="-634" on="0"/>
        <pt x="1574" y="-579" on="1"/>
        <pt x="1582" y="-584" on="0"/>
        <pt x="1598" y="-594" on="0"/>
      </contour>
    </TTGlyph>
    <TTGlyph name="uniE000" xMin="0" yMin="0" xMax="1585" yMax="1585">
      <contour>
        <pt x="0" y="1585" on="1"/>
        <pt x="1585" y="1585" on="1"/>
        <pt x="1585" y="0" on="1"/>
        <pt x="0" y="0" on="1"/>
      </contour>
    </TTGlyph>
    <TTGlyph name="uniFB51" xMin="114" yMin="-656" xMax="2039" yMax="1513">
      <contour>
        <pt x="2028" y="1221" on="1"/>
        <pt x="2028" y="1145" on="0"/>
        <pt x="1574" y="940" on="1"/>
        <pt x="1539" y="940" on="1"/>
        <pt x="1539" y="945" on="0"/>
        <pt x="1527" y="956" on="0"/>
        <pt x="1527" y="971" on="1"/>
        <pt x="1527" y="1022" on="0"/>
        <pt x="1553" y="1038" on="1"/>
        <pt x="1606" y="1070" on="0"/>
        <pt x="1981" y="1257" on="1"/>
        <pt x="2015" y="1257" on="1"/>
        <pt x="2028" y="1244" on="0"/>
      </contour>
      <contour>
        <pt x="954" y="1483" on="1"/>
        <pt x="954" y="1444" on="0"/>
        <pt x="822" y="1357" on="1"/>
        <pt x="754" y="1316" on="0"/>
        <pt x="685" y="1275" on="1"/>
        <pt x="521" y="1162" on="0"/>
        <pt x="415" y="1103" on="1"/>
        <pt x="390" y="1129" on="0"/>
        <pt x="390" y="1144" on="1"/>
        <pt x="390" y="1200" on="0"/>
        <pt x="628" y="1346" on="1"/>
        <pt x="779" y="1439" on="0"/>
        <pt x="929" y="1513" on="1"/>
        <pt x="936" y="1508" on="0"/>
        <pt x="954" y="1498" on="0"/>
      </contour>
      <contour>
        <pt x="2039" y="120" on="1"/>
        <pt x="2039" y="63" on="0"/>
        <pt x="2024" y="39" on="1"/>
        <pt x="2005" y="6" on="0"/>
        <pt x="2001" y="-18" on="1"/>
        <pt x="1980" y="-134" on="0"/>
        <pt x="1865" y="-266" on="1"/>
        <pt x="1746" y="-401" on="0"/>
        <pt x="1655" y="-401" on="1"/>
        <pt x="1571" y="-401" on="0"/>
        <pt x="1430" y="-378" on="1"/>
        <pt x="1303" y="-357" on="0"/>
        <pt x="1241" y="-338" on="1"/>
        <pt x="1241" y="-301" on="1"/>
        <pt x="1247" y="-295" on="0"/>
        <pt x="1264" y="-282" on="1"/>
        <pt x="1282" y="-278" on="0"/>
        <pt x="1339" y="-288" on="1"/>
        <pt x="1403" y="-299" on="0"/>
        <pt x="1409" y="-299" on="1"/>
        <pt x="1756" y="-299" on="0"/>
        <pt x="1947" y="55" on="1"/>
        <pt x="1939" y="90" on="1"/>
        <pt x="1882" y="49" on="0"/>
        <pt x="1844" y="49" on="1"/>
        <pt x="1778" y="49" on="0"/>
        <pt x="1734" y="115" on="1"/>
        <pt x="1701" y="165" on="0"/>
        <pt x="1701" y="202" on="1"/>
        <pt x="1701" y="261" on="0"/>
        <pt x="1739" y="362" on="1"/>
        <pt x="1783" y="479" on="0"/>
        <pt x="1829" y="479" on="1"/>
        <pt x="1928" y="479" on="0"/>
        <pt x="1992" y="323" on="1"/>
        <pt x="2039" y="206" on="0"/>
      </contour>
      <contour>
        <pt x="1476" y="-149" on="1"/>
        <pt x="1453" y="-198" on="0"/>
        <pt x="1421" y="-203" on="1"/>
        <pt x="1258" y="-233" on="0"/>
        <pt x="1134" y="-288" on="1"/>
        <pt x="1098" y="-288" on="1"/>
        <pt x="1096" y="-259" on="0"/>
        <pt x="1118" y="-202" on="0"/>
        <pt x="1118" y="-196" on="1"/>
        <pt x="1118" y="-187" on="0"/>
        <pt x="1077" y="-130" on="0"/>
        <pt x="1077" y="-114" on="1"/>
        <pt x="1077" y="-65" on="0"/>
        <pt x="1207" y="12" on="0"/>
        <pt x="1209" y="54" on="1"/>
        <pt x="1097" y="889" on="1"/>
        <pt x="1111" y="1020" on="0"/>
        <pt x="1176" y="1052" on="1"/>
        <pt x="1282" y="605" on="0"/>
        <pt x="1294" y="249" on="1"/>
        <pt x="1285" y="183" on="0"/>
        <pt x="1284" y="44" on="1"/>
        <pt x="1285" y="33" on="0"/>
        <pt x="1343" y="-22" on="0"/>
        <pt x="1343" y="-37" on="1"/>
        <pt x="1343" y="-62" on="0"/>
        <pt x="1309" y="-85" on="1"/>
        <pt x="1281" y="-104" on="0"/>
        <pt x="1266" y="-104" on="1"/>
        <pt x="1254" y="-104" on="0"/>
        <pt x="1240" y="-93" on="1"/>
        <pt x="1221" y="-77" on="0"/>
        <pt x="1215" y="-73" on="1"/>
        <pt x="1208" y="-70" on="0"/>
        <pt x="1199" y="-79" on="1"/>
        <pt x="1213" y="-106" on="0"/>
        <pt x="1246" y="-112" on="1"/>
        <pt x="1321" y="-125" on="0"/>
        <pt x="1349" y="-125" on="1"/>
        <pt x="1360" y="-125" on="0"/>
        <pt x="1400" y="-125" on="1"/>
        <pt x="1440" y="-126" on="0"/>
        <pt x="1463" y="-126" on="1"/>
        <pt x="1466" y="-135" on="0"/>
      </contour>
      <contour>
        <pt x="728" y="889" on="1"/>
        <pt x="728" y="858" on="0"/>
        <pt x="695" y="821" on="1"/>
        <pt x="665" y="786" on="0"/>
        <pt x="646" y="786" on="1"/>
        <pt x="627" y="786" on="0"/>
        <pt x="554" y="850" on="0"/>
        <pt x="554" y="868" on="1"/>
        <pt x="554" y="884" on="0"/>
        <pt x="630" y="971" on="0"/>
        <pt x="646" y="971" on="1"/>
        <pt x="675" y="971" on="0"/>
        <pt x="704" y="934" on="1"/>
        <pt x="728" y="904" on="0"/>
      </contour>
      <contour>
        <pt x="954" y="254" on="1"/>
        <pt x="954" y="166" on="0"/>
        <pt x="918" y="83" on="1"/>
        <pt x="905" y="49" on="0"/>
        <pt x="858" y="31" on="1"/>
        <pt x="714" y="-22" on="0"/>
        <pt x="655" y="-22" on="1"/>
        <pt x="571" y="-22" on="1"/>
        <pt x="452" y="-22" on="0"/>
        <pt x="452" y="49" on="1"/>
        <pt x="452" y="152" on="0"/>
        <pt x="544" y="152" on="1"/>
        <pt x="555" y="152" on="0"/>
        <pt x="605" y="141" on="0"/>
        <pt x="615" y="141" on="1"/>
        <pt x="674" y="141" on="0"/>
        <pt x="753" y="164" on="1"/>
        <pt x="851" y="193" on="0"/>
        <pt x="851" y="233" on="1"/>
        <pt x="851" y="277" on="0"/>
        <pt x="751" y="368" on="1"/>
        <pt x="685" y="428" on="0"/>
        <pt x="637" y="460" on="1"/>
        <pt x="637" y="591" on="0"/>
        <pt x="697" y="591" on="1"/>
        <pt x="760" y="591" on="0"/>
        <pt x="850" y="479" on="1"/>
        <pt x="914" y="399" on="0"/>
        <pt x="929" y="363" on="1"/>
        <pt x="954" y="304" on="0"/>
      </contour>
      <contour>
        <pt x="298" y="177" on="1"/>
        <pt x="298" y="71" on="0"/>
        <pt x="255" y="0" on="1"/>
        <pt x="218" y="0" on="1"/>
        <pt x="114" y="965" on="1"/>
        <pt x="114" y="976" on="0"/>
        <pt x="139" y="1028" on="1"/>
        <pt x="166" y="1084" on="0"/>
        <pt x="179" y="1093" on="1"/>
        <pt x="198" y="1093" on="0"/>
        <pt x="212" y="1069" on="1"/>
        <pt x="298" y="330" on="0"/>
      </contour>
      <contour>
        <pt x="1527" y="-462" on="1"/>
        <pt x="1527" y="-513" on="0"/>
        <pt x="1483" y="-531" on="1"/>
        <pt x="1396" y="-567" on="0"/>
        <pt x="1257" y="-612" on="1"/>
        <pt x="1121" y="-656" on="0"/>
        <pt x="1100" y="-656" on="1"/>
        <pt x="1059" y="-656" on="1"/>
        <pt x="1036" y="-632" on="1"/>
        <pt x="1058" y="-572" on="0"/>
        <pt x="1090" y="-559" on="1"/>
        <pt x="1177" y="-522" on="0"/>
        <pt x="1317" y="-476" on="1"/>
        <pt x="1452" y="-432" on="0"/>
        <pt x="1472" y="-432" on="1"/>
        <pt x="1514" y="-432" on="1"/>
        <pt x="1527" y="-445" on="0"/>
      </contour>
      <contour>
        <pt x="1885" y="259" on="1"/>
        <pt x="1839" y="305" on="1"/>
        <pt x="1814" y="279" on="0"/>
        <pt x="1814" y="257" on="1"/>
        <pt x="1837" y="233" on="1"/>
        <pt x="1861" y="233" on="0"/>
      </contour>
    </TTGlyph>
    <TTGlyph name="uniFB52" xMin="34" yMin="-428" xMax="2932" yMax="1466">
      <contour>
        <pt x="2594" y="1159" on="1"/>
        <pt x="2594" y="1144" on="0"/>
        <pt x="2583" y="1112" on="0"/>
        <pt x="2583" y="1109" on="1"/>
        <pt x="2579" y="1109" on="0"/>
        <pt x="2568" y="1098" on="0"/>
        <pt x="2553" y="1098" on="1"/>
        <pt x="2540" y="1098" on="0"/>
        <pt x="2478" y="1139" on="0"/>
        <pt x="2466" y="1139" on="1"/>
        <pt x="2456" y="1139" on="0"/>
        <pt x="2410" y="1090" on="1"/>
        <pt x="2352" y="1029" on="0"/>
        <pt x="2326" y="1009" on="1"/>
        <pt x="2225" y="931" on="0"/>
        <pt x="2067" y="872" on="1"/>
        <pt x="2021" y="886" on="1"/>
        <pt x="2051" y="917" on="0"/>
        <pt x="2188" y="1015" on="1"/>
        <pt x="2311" y="1103" on="0"/>
        <pt x="2359" y="1164" on="1"/>
        <pt x="2337" y="1198" on="0"/>
        <pt x="2302" y="1226" on="1"/>
        <pt x="2287" y="1239" on="0"/>
        <pt x="2287" y="1282" on="1"/>
        <pt x="2287" y="1341" on="0"/>
        <pt x="2388" y="1466" on="0"/>
        <pt x="2446" y="1466" on="1"/>
        <pt x="2504" y="1466" on="0"/>
        <pt x="2515" y="1368" on="1"/>
        <pt x="2515" y="1313" on="0"/>
        <pt x="2515" y="1258" on="1"/>
        <pt x="2519" y="1251" on="0"/>
        <pt x="2565" y="1213" on="1"/>
        <pt x="2594" y="1189" on="0"/>
      </contour>
      <contour>
        <pt x="1672" y="893" on="1"/>
        <pt x="1672" y="873" on="0"/>
        <pt x="1595" y="800" on="0"/>
        <pt x="1575" y="800" on="1"/>
        <pt x="1557" y="800" on="0"/>
        <pt x="1478" y="861" on="0"/>
        <pt x="1478" y="877" on="1"/>
        <pt x="1478" y="903" on="0"/>
        <pt x="1550" y="975" on="0"/>
        <pt x="1575" y="975" on="1"/>
        <pt x="1604" y="975" on="0"/>
        <pt x="1640" y="941" on="1"/>
        <pt x="1672" y="910" on="0"/>
      </contour>
      <contour>
        <pt x="1785" y="714" on="1"/>
        <pt x="1785" y="696" on="0"/>
        <pt x="1713" y="616" on="0"/>
        <pt x="1693" y="616" on="1"/>
        <pt x="1685" y="616" on="0"/>
        <pt x="1606" y="668" on="1"/>
        <pt x="1578" y="646" on="0"/>
        <pt x="1550" y="624" on="1"/>
        <pt x="1514" y="596" on="0"/>
        <pt x="1499" y="596" on="1"/>
        <pt x="1465" y="596" on="0"/>
        <pt x="1428" y="636" on="1"/>
        <pt x="1396" y="669" on="0"/>
        <pt x="1396" y="682" on="1"/>
        <pt x="1396" y="718" on="0"/>
        <pt x="1440" y="757" on="1"/>
        <pt x="1477" y="791" on="0"/>
        <pt x="1488" y="791" on="1"/>
        <pt x="1500" y="791" on="0"/>
        <pt x="1570" y="739" on="0"/>
        <pt x="1581" y="739" on="1"/>
        <pt x="1603" y="739" on="0"/>
        <pt x="1636" y="811" on="0"/>
        <pt x="1677" y="811" on="1"/>
        <pt x="1702" y="811" on="0"/>
        <pt x="1785" y="737" on="0"/>
      </contour>
      <contour>
        <pt x="1130" y="1338" on="1"/>
        <pt x="1130" y="1290" on="0"/>
        <pt x="920" y="1169" on="1"/>
        <pt x="767" y="1082" on="0"/>
        <pt x="614" y="995" on="1"/>
        <pt x="580" y="995" on="1"/>
        <pt x="557" y="1021" on="1"/>
        <pt x="635" y="1121" on="0"/>
        <pt x="806" y="1216" on="1"/>
        <pt x="944" y="1289" on="0"/>
        <pt x="1083" y="1363" on="1"/>
        <pt x="1118" y="1363" on="1"/>
        <pt x="1130" y="1362" on="0"/>
      </contour>
      <contour>
        <pt x="2932" y="217" on="1"/>
        <pt x="2932" y="168" on="0"/>
        <pt x="2881" y="134" on="1"/>
        <pt x="2835" y="104" on="0"/>
        <pt x="2783" y="104" on="1"/>
        <pt x="2771" y="104" on="0"/>
        <pt x="2546" y="145" on="0"/>
        <pt x="2533" y="145" on="1"/>
        <pt x="2490" y="145" on="0"/>
        <pt x="2357" y="108" on="1"/>
        <pt x="2284" y="87" on="0"/>
        <pt x="2211" y="66" on="1"/>
        <pt x="1993" y="22" on="0"/>
        <pt x="1918" y="22" on="1"/>
        <pt x="1831" y="22" on="0"/>
        <pt x="1779" y="74" on="1"/>
        <pt x="1758" y="53" on="0"/>
        <pt x="1701" y="6" on="1"/>
        <pt x="1672" y="-18" on="0"/>
        <pt x="1616" y="-18" on="1"/>
        <pt x="1618" y="-18" on="0"/>
        <pt x="1558" y="-13" on="1"/>
        <pt x="1508" y="-9" on="0"/>
        <pt x="1473" y="-12" on="1"/>
        <pt x="1468" y="-13" on="0"/>
        <pt x="1436" y="-21" on="1"/>
        <pt x="1409" y="-28" on="0"/>
        <pt x="1391" y="-28" on="1"/>
        <pt x="1324" y="-28" on="0"/>
        <pt x="1057" y="125" on="0"/>
        <pt x="1069" y="125" on="1"/>
        <pt x="1061" y="125" on="0"/>
        <pt x="997" y="109" on="1"/>
        <pt x="929" y="93" on="0"/>
        <pt x="891" y="90" on="1"/>
        <pt x="861" y="70" on="0"/>
        <pt x="849" y="14" on="1"/>
        <pt x="834" y="-65" on="0"/>
        <pt x="829" y="-77" on="1"/>
        <pt x="769" y="-210" on="0"/>
        <pt x="682" y="-299" on="1"/>
        <pt x="575" y="-407" on="0"/>
        <pt x="459" y="-407" on="1"/>
        <pt x="375" y="-407" on="0"/>
        <pt x="210" y="-365" on="1"/>
        <pt x="133" y="-344" on="0"/>
        <pt x="57" y="-322" on="1"/>
        <pt x="51" y="-316" on="0"/>
        <pt x="34" y="-289" on="1"/>
        <pt x="46" y="-265" on="1"/>
        <pt x="77" y="-248" on="0"/>
        <pt x="113" y="-258" on="1"/>
        <pt x="210" y="-285" on="0"/>
        <pt x="275" y="-285" on="1"/>
        <pt x="283" y="-285" on="0"/>
        <pt x="399" y="-271" on="0"/>
        <pt x="429" y="-271" on="1"/>
        <pt x="514" y="-271" on="0"/>
        <pt x="634" y="-174" on="1"/>
        <pt x="759" y="-72" on="0"/>
        <pt x="759" y="9" on="1"/>
        <pt x="759" y="26" on="0"/>
        <pt x="733" y="103" on="0"/>
        <pt x="733" y="120" on="1"/>
        <pt x="734" y="143" on="0"/>
        <pt x="770" y="187" on="1"/>
        <pt x="810" y="235" on="0"/>
        <pt x="847" y="243" on="1"/>
        <pt x="1055" y="290" on="0"/>
        <pt x="1126" y="288" on="1"/>
        <pt x="1169" y="288" on="1"/>
        <pt x="1175" y="255" on="0"/>
        <pt x="1193" y="193" on="1"/>
        <pt x="1219" y="135" on="0"/>
        <pt x="1401" y="135" on="1"/>
        <pt x="1486" y="135" on="0"/>
        <pt x="1506" y="165" on="1"/>
        <pt x="1554" y="242" on="0"/>
        <pt x="1584" y="267" on="1"/>
        <pt x="1619" y="267" on="1"/>
        <pt x="1631" y="233" on="0"/>
        <pt x="1611" y="172" on="1"/>
        <pt x="1627" y="156" on="0"/>
        <pt x="1657" y="156" on="1"/>
        <pt x="1712" y="156" on="0"/>
        <pt x="1731" y="195" on="1"/>
        <pt x="1771" y="270" on="0"/>
        <pt x="1799" y="298" on="1"/>
        <pt x="1835" y="298" on="1"/>
        <pt x="1849" y="260" on="0"/>
        <pt x="1826" y="193" on="1"/>
        <pt x="1864" y="156" on="0"/>
        <pt x="1929" y="156" on="1"/>
        <pt x="1930" y="156" on="0"/>
        <pt x="2288" y="215" on="1"/>
        <pt x="2288" y="223" on="0"/>
        <pt x="2307" y="242" on="1"/>
        <pt x="2162" y="329" on="0"/>
        <pt x="2134" y="329" on="1"/>
        <pt x="2120" y="329" on="0"/>
        <pt x="2064" y="319" on="1"/>
        <pt x="1994" y="305" on="0"/>
        <pt x="1960" y="300" on="1"/>
        <pt x="1960" y="343" on="1"/>
        <pt x="1960" y="389" on="0"/>
        <pt x="2066" y="450" on="1"/>
        <pt x="2158" y="504" on="0"/>
        <pt x="2184" y="504" on="1"/>
        <pt x="2197" y="504" on="0"/>
        <pt x="2321" y="436" on="1"/>
        <pt x="2475" y="352" on="0"/>
        <pt x="2519" y="332" on="1"/>
        <pt x="2592" y="297" on="0"/>
        <pt x="2837" y="245" on="0"/>
        <pt x="2918" y="247" on="1"/>
        <pt x="2919" y="247" on="0"/>
        <pt x="2920" y="246" on="1"/>
        <pt x="2932" y="235" on="0"/>
      </contour>
      <contour>
        <pt x="2021" y="-182" on="1"/>
        <pt x="2021" y="-234" on="0"/>
        <pt x="1956" y="-261" on="1"/>
        <pt x="1555" y="-428" on="0"/>
        <pt x="1502" y="-427" on="1"/>
        <pt x="1459" y="-427" on="1"/>
        <pt x="1447" y="-425" on="0"/>
        <pt x="1447" y="-402" on="1"/>
        <pt x="1447" y="-349" on="0"/>
        <pt x="1663" y="-268" on="1"/>
        <pt x="1968" y="-154" on="0"/>
        <pt x="1973" y="-152" on="1"/>
        <pt x="2007" y="-152" on="1"/>
        <pt x="2021" y="-165" on="0"/>
      </contour>
      <contour>
        <pt x="2445" y="1287" on="1"/>
        <pt x="2433" y="1356" on="1"/>
        <pt x="2386" y="1332" on="0"/>
        <pt x="2386" y="1308" on="1"/>
        <pt x="2428" y="1287" on="0"/>
      </contour>
    </TTGlyph>
    <TTGlyph name="uniFB53" xMin="165" yMin="-326" xMax="3135" yMax="1588">
      <contour>
        <pt x="3135" y="1394" on="1"/>
        <pt x="3135" y="1331" on="0"/>
        <pt x="3006" y="1200" on="0"/>
        <pt x="2946" y="1192" on="1"/>
        <pt x="2897" y="1193" on="0"/>
        <pt x="2803" y="1185" on="1"/>
        <pt x="2786" y="1177" on="0"/>
        <pt x="2750" y="1159" on="1"/>
        <pt x="2743" y="1161" on="0"/>
        <pt x="2725" y="1173" on="1"/>
        <pt x="2742" y="1219" on="0"/>
        <pt x="2791" y="1256" on="1"/>
        <pt x="2825" y="1280" on="0"/>
        <pt x="2860" y="1303" on="1"/>
        <pt x="2901" y="1352" on="0"/>
        <pt x="2982" y="1440" on="1"/>
        <pt x="3019" y="1476" on="0"/>
        <pt x="3048" y="1476" on="1"/>
        <pt x="3135" y="1476" on="0"/>
      </contour>
      <contour>
        <pt x="2377" y="1553" on="1"/>
        <pt x="2377" y="1512" on="0"/>
        <pt x="2161" y="1390" on="1"/>
        <pt x="1965" y="1278" on="0"/>
        <pt x="1879" y="1251" on="1"/>
        <pt x="1855" y="1275" on="0"/>
        <pt x="1855" y="1287" on="1"/>
        <pt x="1855" y="1342" on="0"/>
        <pt x="2185" y="1499" on="1"/>
        <pt x="2243" y="1534" on="0"/>
        <pt x="2363" y="1588" on="1"/>
        <pt x="2377" y="1575" on="0"/>
      </contour>
      <contour>
        <pt x="2981" y="165" on="1"/>
        <pt x="2981" y="110" on="0"/>
        <pt x="2956" y="56" on="1"/>
        <pt x="2949" y="46" on="0"/>
        <pt x="2927" y="23" on="1"/>
        <pt x="2918" y="22" on="0"/>
        <pt x="2892" y="53" on="0"/>
        <pt x="2891" y="68" on="1"/>
        <pt x="2881" y="233" on="0"/>
        <pt x="2842" y="577" on="1"/>
        <pt x="2807" y="896" on="0"/>
        <pt x="2807" y="898" on="1"/>
        <pt x="2807" y="976" on="0"/>
        <pt x="2872" y="1056" on="1"/>
        <pt x="2884" y="1056" on="0"/>
        <pt x="2905" y="1022" on="1"/>
        <pt x="2981" y="129" on="0"/>
      </contour>
      <contour>
        <pt x="2233" y="1180" on="1"/>
        <pt x="2233" y="1058" on="0"/>
        <pt x="2076" y="1002" on="1"/>
        <pt x="2068" y="999" on="0"/>
        <pt x="2027" y="974" on="1"/>
        <pt x="1993" y="954" on="0"/>
        <pt x="1978" y="954" on="1"/>
        <pt x="1906" y="954" on="0"/>
        <pt x="1906" y="1021" on="1"/>
        <pt x="1906" y="1062" on="0"/>
        <pt x="1971" y="1149" on="1"/>
        <pt x="1998" y="1135" on="0"/>
        <pt x="2015" y="1076" on="1"/>
        <pt x="2038" y="1094" on="0"/>
        <pt x="2059" y="1128" on="1"/>
        <pt x="2084" y="1167" on="0"/>
        <pt x="2095" y="1180" on="1"/>
        <pt x="2108" y="1162" on="0"/>
        <pt x="2136" y="1128" on="1"/>
        <pt x="2162" y="1153" on="0"/>
        <pt x="2184" y="1220" on="1"/>
        <pt x="2220" y="1220" on="1"/>
        <pt x="2233" y="1207" on="0"/>
      </contour>
      <contour>
        <pt x="2254" y="529" on="1"/>
        <pt x="2254" y="506" on="0"/>
        <pt x="2176" y="432" on="0"/>
        <pt x="2162" y="432" on="1"/>
        <pt x="2142" y="432" on="0"/>
        <pt x="2049" y="510" on="0"/>
        <pt x="2049" y="524" on="1"/>
        <pt x="2049" y="546" on="0"/>
        <pt x="2075" y="583" on="1"/>
        <pt x="2104" y="627" on="0"/>
        <pt x="2136" y="627" on="1"/>
        <pt x="2162" y="627" on="0"/>
        <pt x="2254" y="546" on="0"/>
      </contour>
      <contour>
        <pt x="2612" y="242" on="1"/>
        <pt x="2612" y="165" on="0"/>
        <pt x="2579" y="76" on="1"/>
        <pt x="2536" y="-39" on="0"/>
        <pt x="2469" y="-39" on="1"/>
        <pt x="2433" y="-39" on="0"/>
        <pt x="2250" y="22" on="0"/>
        <pt x="2244" y="22" on="1"/>
        <pt x="2231" y="22" on="0"/>
        <pt x="2194" y="-2" on="1"/>
        <pt x="2151" y="-31" on="0"/>
        <pt x="2138" y="-36" on="1"/>
        <pt x="2028" y="-80" on="0"/>
        <pt x="1921" y="-80" on="1"/>
        <pt x="1883" y="-80" on="0"/>
        <pt x="1802" y="-50" on="1"/>
        <pt x="1711" y="-17" on="0"/>
        <pt x="1694" y="15" on="1"/>
        <pt x="1652" y="97" on="0"/>
        <pt x="1643" y="235" on="1"/>
        <pt x="1636" y="351" on="0"/>
        <pt x="1630" y="467" on="1"/>
        <pt x="1578" y="884" on="0"/>
        <pt x="1578" y="1010" on="1"/>
        <pt x="1578" y="1094" on="0"/>
        <pt x="1633" y="1149" on="1"/>
        <pt x="1672" y="1140" on="0"/>
        <pt x="1682" y="1067" on="1"/>
        <pt x="1685" y="1018" on="0"/>
        <pt x="1687" y="970" on="1"/>
        <pt x="1703" y="777" on="0"/>
        <pt x="1728" y="458" on="1"/>
        <pt x="1731" y="387" on="0"/>
        <pt x="1735" y="317" on="1"/>
        <pt x="1742" y="228" on="0"/>
        <pt x="1765" y="173" on="1"/>
        <pt x="1780" y="134" on="0"/>
        <pt x="1854" y="107" on="1"/>
        <pt x="1921" y="84" on="0"/>
        <pt x="1983" y="84" on="1"/>
        <pt x="2090" y="84" on="0"/>
        <pt x="2239" y="186" on="0"/>
        <pt x="2270" y="186" on="1"/>
        <pt x="2281" y="186" on="0"/>
        <pt x="2452" y="125" on="0"/>
        <pt x="2464" y="125" on="1"/>
        <pt x="2510" y="125" on="0"/>
        <pt x="2510" y="181" on="1"/>
        <pt x="2510" y="283" on="0"/>
        <pt x="2424" y="856" on="1"/>
        <pt x="2422" y="873" on="0"/>
        <pt x="2404" y="922" on="1"/>
        <pt x="2387" y="967" on="0"/>
        <pt x="2387" y="985" on="1"/>
        <pt x="2387" y="1031" on="0"/>
        <pt x="2415" y="1083" on="1"/>
        <pt x="2443" y="1130" on="0"/>
        <pt x="2472" y="1179" on="1"/>
        <pt x="2505" y="1173" on="0"/>
        <pt x="2514" y="1088" on="1"/>
        <pt x="2523" y="998" on="0"/>
        <pt x="2601" y="973" on="1"/>
        <pt x="2584" y="885" on="0"/>
        <pt x="2559" y="847" on="1"/>
        <pt x="2541" y="821" on="0"/>
        <pt x="2541" y="764" on="1"/>
        <pt x="2541" y="752" on="0"/>
        <pt x="2612" y="256" on="0"/>
      </contour>
      <contour>
        <pt x="1261" y="980" on="1"/>
        <pt x="1261" y="981" on="0"/>
        <pt x="1237" y="924" on="1"/>
        <pt x="1222" y="928" on="0"/>
        <pt x="1182" y="943" on="1"/>
        <pt x="1152" y="954" on="0"/>
        <pt x="1138" y="954" on="1"/>
        <pt x="1126" y="954" on="0"/>
        <pt x="1078" y="913" on="1"/>
        <pt x="1019" y="861" on="0"/>
        <pt x="992" y="845" on="1"/>
        <pt x="825" y="740" on="0"/>
        <pt x="730" y="740" on="1"/>
        <pt x="719" y="740" on="0"/>
        <pt x="709" y="741" on="1"/>
        <pt x="709" y="768" on="0"/>
        <pt x="720" y="775" on="1"/>
        <pt x="725" y="778" on="0"/>
        <pt x="881" y="874" on="1"/>
        <pt x="981" y="936" on="0"/>
        <pt x="1036" y="1000" on="1"/>
        <pt x="1013" y="1027" on="0"/>
        <pt x="989" y="1054" on="1"/>
        <pt x="964" y="1087" on="0"/>
        <pt x="964" y="1118" on="1"/>
        <pt x="964" y="1157" on="0"/>
        <pt x="1007" y="1228" on="1"/>
        <pt x="1058" y="1312" on="0"/>
        <pt x="1113" y="1312" on="1"/>
        <pt x="1203" y="1312" on="0"/>
        <pt x="1203" y="1198" on="1"/>
        <pt x="1203" y="1170" on="0"/>
        <pt x="1191" y="1095" on="0"/>
        <pt x="1191" y="1094" on="1"/>
        <pt x="1191" y="1094" on="0"/>
        <pt x="1233" y="1035" on="1"/>
        <pt x="1261" y="995" on="0"/>
      </contour>
      <contour>
        <pt x="1476" y="324" on="1"/>
        <pt x="1476" y="94" on="0"/>
        <pt x="1343" y="94" on="1"/>
        <pt x="1332" y="94" on="0"/>
        <pt x="1196" y="125" on="0"/>
        <pt x="1184" y="125" on="1"/>
        <pt x="1173" y="125" on="0"/>
        <pt x="1137" y="104" on="1"/>
        <pt x="1098" y="80" on="0"/>
        <pt x="1083" y="76" on="1"/>
        <pt x="1062" y="70" on="0"/>
        <pt x="983" y="61" on="1"/>
        <pt x="963" y="16" on="0"/>
        <pt x="929" y="-107" on="1"/>
        <pt x="901" y="-212" on="0"/>
        <pt x="735" y="-276" on="1"/>
        <pt x="606" y="-326" on="0"/>
        <pt x="488" y="-326" on="1"/>
        <pt x="362" y="-326" on="0"/>
        <pt x="271" y="-258" on="1"/>
        <pt x="165" y="-181" on="0"/>
        <pt x="165" y="-49" on="1"/>
        <pt x="165" y="-3" on="0"/>
        <pt x="216" y="102" on="1"/>
        <pt x="269" y="214" on="0"/>
        <pt x="312" y="238" on="1"/>
        <pt x="349" y="238" on="0"/>
        <pt x="349" y="202" on="1"/>
        <pt x="349" y="188" on="0"/>
        <pt x="267" y="20" on="0"/>
        <pt x="267" y="7" on="1"/>
        <pt x="267" y="-70" on="0"/>
        <pt x="376" y="-126" on="1"/>
        <pt x="465" y="-172" on="0"/>
        <pt x="539" y="-172" on="1"/>
        <pt x="622" y="-172" on="0"/>
        <pt x="738" y="-122" on="1"/>
        <pt x="872" y="-67" on="0"/>
        <pt x="872" y="-3" on="1"/>
        <pt x="872" y="12" on="0"/>
        <pt x="854" y="67" on="1"/>
        <pt x="842" y="103" on="0"/>
        <pt x="793" y="194" on="1"/>
        <pt x="749" y="276" on="0"/>
        <pt x="749" y="288" on="1"/>
        <pt x="749" y="325" on="0"/>
        <pt x="793" y="390" on="1"/>
        <pt x="801" y="390" on="0"/>
        <pt x="839" y="376" on="1"/>
        <pt x="879" y="316" on="0"/>
        <pt x="920" y="256" on="1"/>
        <pt x="954" y="217" on="0"/>
        <pt x="1010" y="217" on="1"/>
        <pt x="1061" y="217" on="1"/>
        <pt x="1076" y="217" on="0"/>
        <pt x="1097" y="238" on="0"/>
        <pt x="1100" y="239" on="1"/>
        <pt x="1141" y="305" on="0"/>
        <pt x="1223" y="421" on="1"/>
        <pt x="1242" y="421" on="0"/>
        <pt x="1257" y="398" on="1"/>
        <pt x="1259" y="383" on="0"/>
        <pt x="1255" y="348" on="1"/>
        <pt x="1250" y="307" on="0"/>
        <pt x="1250" y="294" on="1"/>
        <pt x="1290" y="258" on="0"/>
        <pt x="1323" y="258" on="1"/>
        <pt x="1359" y="258" on="0"/>
        <pt x="1381" y="286" on="1"/>
        <pt x="1384" y="300" on="0"/>
        <pt x="1377" y="328" on="1"/>
        <pt x="1367" y="365" on="0"/>
        <pt x="1366" y="375" on="1"/>
        <pt x="1364" y="401" on="0"/>
        <pt x="1377" y="442" on="1"/>
        <pt x="1393" y="494" on="0"/>
        <pt x="1421" y="514" on="1"/>
        <pt x="1476" y="397" on="0"/>
      </contour>
      <contour>
        <pt x="3021" y="1324" on="1"/>
        <pt x="3021" y="1353" on="0"/>
        <pt x="3007" y="1353" on="1"/>
        <pt x="2999" y="1353" on="0"/>
        <pt x="2961" y="1316" on="1"/>
        <pt x="2979" y="1316" on="0"/>
        <pt x="3017" y="1324" on="0"/>
      </contour>
      <contour>
        <pt x="1116" y="1120" on="1"/>
        <pt x="1105" y="1189" on="1"/>
        <pt x="1057" y="1165" on="0"/>
        <pt x="1057" y="1141" on="1"/>
        <pt x="1099" y="1120" on="0"/>
      </contour>
    </TTGlyph>
    <TTGlyph name="uniFB54" xMin="190" yMin="-466" xMax="2586" yMax="1652">
      <contour>
        <pt x="2156" y="1621" on="1"/>
        <pt x="2156" y="1576" on="0"/>
        <pt x="1959" y="1443" on="1"/>
        <pt x="1851" y="1374" on="0"/>
        <pt x="1743" y="1305" on="1"/>
        <pt x="1709" y="1305" on="1"/>
        <pt x="1696" y="1318" on="0"/>
        <pt x="1696" y="1335" on="1"/>
        <pt x="1696" y="1380" on="0"/>
        <pt x="1864" y="1489" on="1"/>
        <pt x="1991" y="1570" on="0"/>
        <pt x="2118" y="1652" on="1"/>
        <pt x="2156" y="1652" on="0"/>
      </contour>
      <contour>
        <pt x="2586" y="1417" on="1"/>
        <pt x="2586" y="1401" on="0"/>
        <pt x="2570" y="1367" on="1"/>
        <pt x="2552" y="1330" on="0"/>
        <pt x="2533" y="1316" on="1"/>
        <pt x="2320" y="1160" on="0"/>
        <pt x="2107" y="1005" on="1"/>
        <pt x="1786" y="768" on="0"/>
        <pt x="1665" y="623" on="1"/>
        <pt x="1692" y="586" on="0"/>
        <pt x="1745" y="569" on="1"/>
        <pt x="1817" y="546" on="0"/>
        <pt x="1919" y="460" on="1"/>
        <pt x="2023" y="372" on="0"/>
        <pt x="2023" y="245" on="1"/>
        <pt x="2023" y="-16" on="0"/>
        <pt x="1680" y="-16" on="1"/>
        <pt x="1596" y="-16" on="0"/>
        <pt x="1545" y="27" on="1"/>
        <pt x="1535" y="81" on="0"/>
        <pt x="1514" y="193" on="1"/>
        <pt x="1515" y="249" on="0"/>
        <pt x="1514" y="357" on="1"/>
        <pt x="1511" y="449" on="0"/>
        <pt x="1503" y="633" on="1"/>
        <pt x="1502" y="719" on="0"/>
        <pt x="1487" y="940" on="1"/>
        <pt x="1485" y="959" on="0"/>
        <pt x="1472" y="1013" on="1"/>
        <pt x="1460" y="1061" on="0"/>
        <pt x="1460" y="1074" on="1"/>
        <pt x="1460" y="1104" on="0"/>
        <pt x="1503" y="1190" on="1"/>
        <pt x="1540" y="1190" on="1"/>
        <pt x="1567" y="1118" on="0"/>
        <pt x="1577" y="976" on="1"/>
        <pt x="1592" y="745" on="0"/>
        <pt x="1592" y="738" on="1"/>
        <pt x="1609" y="721" on="1"/>
        <pt x="1963" y="1026" on="0"/>
        <pt x="2096" y="1131" on="1"/>
        <pt x="2354" y="1335" on="0"/>
        <pt x="2573" y="1457" on="1"/>
        <pt x="2573" y="1454" on="0"/>
        <pt x="2586" y="1431" on="0"/>
      </contour>
      <contour>
        <pt x="1225" y="1248" on="1"/>
        <pt x="1225" y="1239" on="0"/>
        <pt x="1202" y="1192" on="1"/>
        <pt x="1159" y="1192" on="1"/>
        <pt x="1147" y="1192" on="0"/>
        <pt x="1117" y="1222" on="1"/>
        <pt x="1085" y="1184" on="0"/>
        <pt x="1018" y="1113" on="1"/>
        <pt x="1002" y="1099" on="0"/>
        <pt x="831" y="988" on="1"/>
        <pt x="775" y="988" on="1"/>
        <pt x="775" y="1025" on="1"/>
        <pt x="914" y="1130" on="0"/>
        <pt x="1020" y="1248" on="1"/>
        <pt x="1005" y="1283" on="0"/>
        <pt x="962" y="1316" on="1"/>
        <pt x="927" y="1341" on="0"/>
        <pt x="927" y="1376" on="1"/>
        <pt x="927" y="1416" on="0"/>
        <pt x="974" y="1484" on="1"/>
        <pt x="1026" y="1561" on="0"/>
        <pt x="1076" y="1561" on="1"/>
        <pt x="1160" y="1561" on="0"/>
        <pt x="1160" y="1425" on="1"/>
        <pt x="1160" y="1402" on="0"/>
        <pt x="1157" y="1371" on="1"/>
        <pt x="1155" y="1344" on="0"/>
        <pt x="1155" y="1342" on="1"/>
        <pt x="1225" y="1266" on="0"/>
      </contour>
      <contour>
        <pt x="1204" y="736" on="1"/>
        <pt x="1204" y="709" on="0"/>
        <pt x="1161" y="673" on="1"/>
        <pt x="1122" y="639" on="0"/>
        <pt x="1107" y="639" on="1"/>
        <pt x="1082" y="639" on="0"/>
        <pt x="1042" y="664" on="1"/>
        <pt x="999" y="692" on="0"/>
        <pt x="999" y="715" on="1"/>
        <pt x="999" y="736" on="0"/>
        <pt x="1065" y="823" on="0"/>
        <pt x="1086" y="823" on="1"/>
        <pt x="1117" y="823" on="0"/>
        <pt x="1204" y="757" on="0"/>
      </contour>
      <contour>
        <pt x="446" y="1361" on="1"/>
        <pt x="446" y="1302" on="0"/>
        <pt x="319" y="1181" on="0"/>
        <pt x="262" y="1181" on="1"/>
        <pt x="190" y="1181" on="0"/>
        <pt x="190" y="1253" on="1"/>
        <pt x="190" y="1298" on="0"/>
        <pt x="230" y="1384" on="1"/>
        <pt x="278" y="1488" on="0"/>
        <pt x="328" y="1488" on="1"/>
        <pt x="373" y="1488" on="0"/>
        <pt x="411" y="1443" on="1"/>
        <pt x="446" y="1401" on="0"/>
      </contour>
      <contour>
        <pt x="426" y="198" on="1"/>
        <pt x="426" y="43" on="0"/>
        <pt x="357" y="-5" on="1"/>
        <pt x="242" y="967" on="1"/>
        <pt x="242" y="1000" on="0"/>
        <pt x="296" y="1109" on="1"/>
        <pt x="337" y="1090" on="0"/>
        <pt x="344" y="1022" on="1"/>
        <pt x="347" y="972" on="0"/>
        <pt x="351" y="922" on="1"/>
        <pt x="378" y="773" on="0"/>
        <pt x="405" y="483" on="1"/>
        <pt x="426" y="247" on="0"/>
      </contour>
      <contour>
        <pt x="1316" y="193" on="1"/>
        <pt x="1316" y="171" on="0"/>
        <pt x="1289" y="101" on="1"/>
        <pt x="1260" y="27" on="0"/>
        <pt x="1242" y="17" on="1"/>
        <pt x="1217" y="4" on="0"/>
        <pt x="1153" y="-10" on="1"/>
        <pt x="1072" y="-27" on="0"/>
        <pt x="1038" y="-39" on="1"/>
        <pt x="1003" y="-112" on="0"/>
        <pt x="919" y="-249" on="1"/>
        <pt x="903" y="-276" on="0"/>
        <pt x="861" y="-330" on="1"/>
        <pt x="727" y="-466" on="0"/>
        <pt x="549" y="-466" on="1"/>
        <pt x="536" y="-466" on="0"/>
        <pt x="367" y="-457" on="0"/>
        <pt x="354" y="-457" on="1"/>
        <pt x="300" y="-457" on="0"/>
        <pt x="205" y="-412" on="1"/>
        <pt x="202" y="-405" on="0"/>
        <pt x="190" y="-379" on="1"/>
        <pt x="204" y="-362" on="1"/>
        <pt x="191" y="-364" on="0"/>
        <pt x="395" y="-364" on="1"/>
        <pt x="716" y="-364" on="0"/>
        <pt x="908" y="-81" on="1"/>
        <pt x="905" y="-56" on="0"/>
        <pt x="843" y="-41" on="1"/>
        <pt x="758" y="-21" on="0"/>
        <pt x="731" y="-6" on="1"/>
        <pt x="672" y="28" on="0"/>
        <pt x="672" y="102" on="1"/>
        <pt x="672" y="163" on="0"/>
        <pt x="726" y="257" on="1"/>
        <pt x="786" y="362" on="0"/>
        <pt x="845" y="362" on="1"/>
        <pt x="897" y="362" on="0"/>
        <pt x="1008" y="137" on="0"/>
        <pt x="1071" y="137" on="1"/>
        <pt x="1135" y="137" on="0"/>
        <pt x="1205" y="175" on="1"/>
        <pt x="1210" y="184" on="0"/>
        <pt x="1210" y="196" on="1"/>
        <pt x="1210" y="227" on="0"/>
        <pt x="1102" y="372" on="0"/>
        <pt x="1102" y="403" on="1"/>
        <pt x="1102" y="428" on="0"/>
        <pt x="1115" y="463" on="1"/>
        <pt x="1131" y="505" on="0"/>
        <pt x="1153" y="505" on="1"/>
        <pt x="1202" y="505" on="0"/>
        <pt x="1263" y="360" on="1"/>
        <pt x="1316" y="233" on="0"/>
      </contour>
      <contour>
        <pt x="1067" y="1386" on="1"/>
        <pt x="1079" y="1410" on="0"/>
        <pt x="1066" y="1432" on="1"/>
        <pt x="1060" y="1435" on="0"/>
        <pt x="1031" y="1436" on="1"/>
        <pt x="1031" y="1421" on="0"/>
      </contour>
      <contour>
        <pt x="1931" y="224" on="1"/>
        <pt x="1923" y="266" on="0"/>
        <pt x="1803" y="340" on="1"/>
        <pt x="1692" y="408" on="0"/>
        <pt x="1626" y="423" on="1"/>
        <pt x="1614" y="372" on="0"/>
        <pt x="1614" y="296" on="1"/>
        <pt x="1614" y="218" on="0"/>
        <pt x="1619" y="199" on="1"/>
        <pt x="1634" y="147" on="0"/>
        <pt x="1696" y="147" on="1"/>
        <pt x="1778" y="147" on="0"/>
        <pt x="1908" y="192" on="1"/>
        <pt x="1931" y="209" on="0"/>
      </contour>
      <contour>
        <pt x="354" y="1330" on="1"/>
        <pt x="347" y="1343" on="0"/>
        <pt x="331" y="1365" on="1"/>
        <pt x="296" y="1365" on="1"/>
        <pt x="273" y="1342" on="1"/>
        <pt x="273" y="1305" on="1"/>
        <pt x="330" y="1305" on="1"/>
      </contour>
      <contour>
        <pt x="855" y="138" on="1"/>
        <pt x="842" y="169" on="0"/>
        <pt x="809" y="209" on="1"/>
        <pt x="804" y="203" on="0"/>
        <pt x="790" y="178" on="0"/>
        <pt x="784" y="173" on="1"/>
        <pt x="790" y="161" on="0"/>
        <pt x="808" y="138" on="1"/>
      </contour>
    </TTGlyph>
    <TTGlyph name="uniFB55" xMin="167" yMin="-869" xMax="1651" yMax="1681">
      <contour>
        <pt x="1554" y="1670" on="1"/>
        <pt x="1544" y="1670" on="0"/>
        <pt x="1547" y="1652" on="1"/>
        <pt x="1550" y="1629" on="0"/>
        <pt x="1544" y="1621" on="1"/>
        <pt x="1488" y="1559" on="0"/>
        <pt x="1354" y="1479" on="1"/>
        <pt x="1176" y="1374" on="0"/>
        <pt x="1136" y="1344" on="1"/>
        <pt x="1089" y="1344" on="1"/>
        <pt x="1089" y="1378" on="1"/>
        <pt x="1089" y="1420" on="0"/>
        <pt x="1276" y="1538" on="1"/>
        <pt x="1496" y="1675" on="0"/>
        <pt x="1501" y="1681" on="1"/>
      </contour>
      <contour>
        <pt x="1078" y="928" on="1"/>
        <pt x="1078" y="872" on="0"/>
        <pt x="1032" y="872" on="1"/>
        <pt x="1019" y="872" on="0"/>
        <pt x="963" y="903" on="0"/>
        <pt x="950" y="903" on="1"/>
        <pt x="949" y="903" on="0"/>
        <pt x="867" y="833" on="1"/>
        <pt x="773" y="754" on="0"/>
        <pt x="718" y="722" on="1"/>
        <pt x="676" y="705" on="0"/>
        <pt x="592" y="668" on="1"/>
        <pt x="546" y="682" on="1"/>
        <pt x="644" y="760" on="0"/>
        <pt x="844" y="931" on="1"/>
        <pt x="844" y="936" on="0"/>
        <pt x="781" y="997" on="1"/>
        <pt x="779" y="1064" on="0"/>
        <pt x="811" y="1135" on="1"/>
        <pt x="850" y="1221" on="0"/>
        <pt x="914" y="1221" on="1"/>
        <pt x="988" y="1221" on="0"/>
        <pt x="1001" y="1137" on="1"/>
        <pt x="1005" y="1076" on="0"/>
        <pt x="1008" y="1013" on="1"/>
        <pt x="1078" y="964" on="0"/>
      </contour>
      <contour>
        <pt x="638" y="1256" on="1"/>
        <pt x="638" y="1208" on="0"/>
        <pt x="542" y="1144" on="1"/>
        <pt x="457" y="1087" on="0"/>
        <pt x="427" y="1088" on="1"/>
        <pt x="342" y="1088" on="1"/>
        <pt x="342" y="1126" on="1"/>
        <pt x="373" y="1144" on="0"/>
        <pt x="423" y="1194" on="1"/>
        <pt x="407" y="1210" on="0"/>
        <pt x="377" y="1210" on="1"/>
        <pt x="364" y="1210" on="0"/>
        <pt x="324" y="1184" on="1"/>
        <pt x="282" y="1155" on="0"/>
        <pt x="260" y="1149" on="1"/>
        <pt x="260" y="1207" on="1"/>
        <pt x="339" y="1292" on="0"/>
        <pt x="346" y="1297" on="1"/>
        <pt x="375" y="1323" on="0"/>
        <pt x="413" y="1323" on="1"/>
        <pt x="423" y="1323" on="0"/>
        <pt x="499" y="1312" on="1"/>
        <pt x="581" y="1300" on="0"/>
        <pt x="614" y="1298" on="1"/>
        <pt x="638" y="1283" on="0"/>
      </contour>
      <contour>
        <pt x="1651" y="222" on="1"/>
        <pt x="1651" y="145" on="0"/>
        <pt x="1620" y="77" on="1"/>
        <pt x="1581" y="-8" on="0"/>
        <pt x="1513" y="-8" on="1"/>
        <pt x="1501" y="-8" on="0"/>
        <pt x="1284" y="53" on="0"/>
        <pt x="1273" y="53" on="1"/>
        <pt x="1287" y="53" on="0"/>
        <pt x="1207" y="35" on="1"/>
        <pt x="1012" y="-8" on="0"/>
        <pt x="863" y="-8" on="1"/>
        <pt x="852" y="-8" on="0"/>
        <pt x="790" y="2" on="0"/>
        <pt x="776" y="2" on="1"/>
        <pt x="748" y="2" on="0"/>
        <pt x="738" y="-36" on="1"/>
        <pt x="731" y="-67" on="0"/>
        <pt x="726" y="-97" on="1"/>
        <pt x="706" y="-151" on="0"/>
        <pt x="665" y="-192" on="1"/>
        <pt x="626" y="-190" on="0"/>
        <pt x="560" y="-142" on="1"/>
        <pt x="491" y="-92" on="0"/>
        <pt x="487" y="-54" on="1"/>
        <pt x="486" y="-7" on="0"/>
        <pt x="481" y="87" on="1"/>
        <pt x="459" y="115" on="0"/>
        <pt x="428" y="115" on="1"/>
        <pt x="417" y="115" on="0"/>
        <pt x="387" y="104" on="1"/>
        <pt x="353" y="93" on="0"/>
        <pt x="337" y="90" on="1"/>
        <pt x="296" y="85" on="0"/>
        <pt x="271" y="35" on="1"/>
        <pt x="259" y="10" on="0"/>
        <pt x="259" y="-33" on="1"/>
        <pt x="341" y="-761" on="1"/>
        <pt x="341" y="-846" on="0"/>
        <pt x="307" y="-868" on="1"/>
        <pt x="297" y="-869" on="0"/>
        <pt x="282" y="-858" on="1"/>
        <pt x="263" y="-847" on="0"/>
        <pt x="262" y="-833" on="1"/>
        <pt x="247" y="-694" on="0"/>
        <pt x="204" y="-355" on="1"/>
        <pt x="167" y="-60" on="0"/>
        <pt x="167" y="-49" on="1"/>
        <pt x="167" y="-2" on="0"/>
        <pt x="261" y="189" on="0"/>
        <pt x="295" y="212" on="1"/>
        <pt x="352" y="252" on="0"/>
        <pt x="416" y="274" on="1"/>
        <pt x="442" y="275" on="0"/>
        <pt x="488" y="281" on="1"/>
        <pt x="498" y="283" on="0"/>
        <pt x="517" y="329" on="0"/>
        <pt x="531" y="329" on="1"/>
        <pt x="563" y="329" on="1"/>
        <pt x="582" y="315" on="0"/>
        <pt x="616" y="283" on="1"/>
        <pt x="640" y="250" on="0"/>
        <pt x="697" y="198" on="1"/>
        <pt x="776" y="156" on="0"/>
        <pt x="895" y="156" on="1"/>
        <pt x="1005" y="156" on="1"/>
        <pt x="1065" y="156" on="0"/>
        <pt x="1089" y="204" on="1"/>
        <pt x="1096" y="217" on="0"/>
        <pt x="1114" y="312" on="1"/>
        <pt x="1131" y="396" on="0"/>
        <pt x="1164" y="440" on="1"/>
        <pt x="1205" y="481" on="0"/>
        <pt x="1291" y="573" on="1"/>
        <pt x="1303" y="588" on="0"/>
        <pt x="1303" y="637" on="1"/>
        <pt x="1303" y="815" on="0"/>
        <pt x="1269" y="979" on="1"/>
        <pt x="1267" y="988" on="0"/>
        <pt x="1232" y="1032" on="0"/>
        <pt x="1232" y="1046" on="1"/>
        <pt x="1232" y="1077" on="0"/>
        <pt x="1275" y="1196" on="1"/>
        <pt x="1288" y="1230" on="0"/>
        <pt x="1339" y="1282" on="1"/>
        <pt x="1359" y="1257" on="0"/>
        <pt x="1361" y="1178" on="1"/>
        <pt x="1363" y="1112" on="0"/>
        <pt x="1436" y="1085" on="1"/>
        <pt x="1436" y="1040" on="1"/>
        <pt x="1436" y="1027" on="0"/>
        <pt x="1415" y="991" on="1"/>
        <pt x="1392" y="949" on="0"/>
        <pt x="1388" y="937" on="1"/>
        <pt x="1385" y="929" on="0"/>
        <pt x="1385" y="841" on="1"/>
        <pt x="1385" y="618" on="0"/>
        <pt x="1454" y="514" on="1"/>
        <pt x="1466" y="496" on="0"/>
        <pt x="1583" y="396" on="1"/>
        <pt x="1651" y="337" on="0"/>
      </contour>
      <contour>
        <pt x="924" y="1058" on="1"/>
        <pt x="924" y="1094" on="1"/>
        <pt x="913" y="1105" on="0"/>
        <pt x="875" y="1105" on="1"/>
        <pt x="890" y="1058" on="0"/>
      </contour>
      <contour>
        <pt x="1569" y="191" on="1"/>
        <pt x="1562" y="217" on="0"/>
        <pt x="1459" y="291" on="0"/>
        <pt x="1438" y="288" on="1"/>
        <pt x="1416" y="242" on="0"/>
        <pt x="1416" y="227" on="1"/>
        <pt x="1416" y="216" on="0"/>
        <pt x="1484" y="166" on="0"/>
        <pt x="1505" y="166" on="1"/>
        <pt x="1558" y="166" on="1"/>
        <pt x="1558" y="177" on="0"/>
      </contour>
      <contour>
        <pt x="1344" y="279" on="1"/>
        <pt x="1344" y="292" on="0"/>
        <pt x="1328" y="331" on="1"/>
        <pt x="1307" y="381" on="0"/>
        <pt x="1283" y="381" on="1"/>
        <pt x="1234" y="381" on="0"/>
        <pt x="1191" y="272" on="1"/>
        <pt x="1258" y="227" on="0"/>
        <pt x="1278" y="227" on="1"/>
        <pt x="1295" y="227" on="0"/>
        <pt x="1344" y="265" on="0"/>
      </contour>
    </TTGlyph>
</ttFont>
